STARTFONT 2.1
COMMENT
COMMENT Converted from OpenType font "arial.ttf" by "otf2bdf 3.0".
COMMENT
FONT -FreeType-Arial-Medium-R-Normal--19-140-100-100-P-94-ISO10646-1
SIZE 14 100 100
FONTBOUNDINGBOX 34 26 -13 -6
STARTPROPERTIES 19
FOUNDRY "FreeType"
FAMILY_NAME "Arial"
WEIGHT_NAME "Medium"
SLANT "R"
SETWIDTH_NAME "Normal"
ADD_STYLE_NAME ""
PIXEL_SIZE 19
POINT_SIZE 140
RESOLUTION_X 100
RESOLUTION_Y 100
SPACING "P"
AVERAGE_WIDTH 94
CHARSET_REGISTRY "ISO10646"
CHARSET_ENCODING "1"
FONT_ASCENT 17
FONT_DESCENT 4
COPYRIGHT "Typeface © The Monotype Corporation plc. Data © The Monotype Corporation plc/Type Solutions Inc. 1990-1992. All Rights Reserved"
_OTF_FONTFILE "arial.ttf"
_OTF_PSNAME "ArialMT"
ENDPROPERTIES
CHARS 1419
STARTCHAR 0020
ENCODING 32
SWIDTH 257 0
DWIDTH 5 0
BBX 0 0 0 0
BITMAP
ENDCHAR
STARTCHAR 0021
ENCODING 33
SWIDTH 257 0
DWIDTH 5 0
BBX 2 14 2 0
BITMAP
C0
C0
C0
C0
C0
C0
C0
80
80
80
80
00
C0
C0
ENDCHAR
STARTCHAR 0022
ENCODING 34
SWIDTH 360 0
DWIDTH 7 0
BBX 5 5 1 9
BITMAP
D8
D8
D8
D8
90
ENDCHAR
STARTCHAR 0023
ENCODING 35
SWIDTH 565 0
DWIDTH 11 0
BBX 10 14 0 0
BITMAP
0880
0880
1880
FFC0
FFC0
1100
3100
3100
FFC0
FFC0
2200
6200
6200
4600
ENDCHAR
STARTCHAR 0024
ENCODING 36
SWIDTH 565 0
DWIDTH 11 0
BBX 9 17 1 -2
BITMAP
0800
3E00
7F00
CB00
C800
C800
7800
3E00
0F00
0900
0980
C980
CB00
7F00
3E00
0800
0800
ENDCHAR
STARTCHAR 0025
ENCODING 37
SWIDTH 874 0
DWIDTH 17 0
BBX 15 14 1 0
BITMAP
7830
4C20
CC40
CC40
CC80
4880
7900
0338
0264
0646
0446
0C46
0864
1838
ENDCHAR
STARTCHAR 0026
ENCODING 38
SWIDTH 668 0
DWIDTH 13 0
BBX 11 14 1 0
BITMAP
1E00
3F00
3300
2300
3300
1E00
3C00
7C00
C6C0
C3C0
C180
E3C0
7FE0
3C60
ENDCHAR
STARTCHAR 0027
ENCODING 39
SWIDTH 205 0
DWIDTH 4 0
BBX 2 5 1 9
BITMAP
C0
C0
C0
C0
80
ENDCHAR
STARTCHAR 0028
ENCODING 40
SWIDTH 308 0
DWIDTH 6 0
BBX 4 18 1 -4
BITMAP
10
30
20
60
60
40
C0
C0
C0
C0
C0
C0
40
60
60
20
30
10
ENDCHAR
STARTCHAR 0029
ENCODING 41
SWIDTH 308 0
DWIDTH 6 0
BBX 5 18 1 -4
BITMAP
C0
40
60
20
30
10
10
18
18
18
18
10
10
30
20
60
40
C0
ENDCHAR
STARTCHAR 002A
ENCODING 42
SWIDTH 360 0
DWIDTH 7 0
BBX 6 6 1 8
BITMAP
20
20
FC
30
50
48
ENDCHAR
STARTCHAR 002B
ENCODING 43
SWIDTH 565 0
DWIDTH 11 0
BBX 9 10 1 1
BITMAP
0800
0800
0800
0800
FF80
FF80
0800
0800
0800
0800
ENDCHAR
STARTCHAR 002C
ENCODING 44
SWIDTH 257 0
DWIDTH 5 0
BBX 2 5 2 -3
BITMAP
C0
C0
40
80
80
ENDCHAR
STARTCHAR 002D
ENCODING 45
SWIDTH 308 0
DWIDTH 6 0
BBX 5 2 1 4
BITMAP
F8
F8
ENDCHAR
STARTCHAR 002E
ENCODING 46
SWIDTH 257 0
DWIDTH 5 0
BBX 2 2 2 0
BITMAP
C0
C0
ENDCHAR
STARTCHAR 002F
ENCODING 47
SWIDTH 257 0
DWIDTH 5 0
BBX 5 14 0 0
BITMAP
08
08
18
10
10
30
20
20
20
60
40
40
C0
80
ENDCHAR
STARTCHAR 0030
ENCODING 48
SWIDTH 565 0
DWIDTH 11 0
BBX 9 14 1 0
BITMAP
3C00
7E00
6300
C300
C100
C180
C180
C180
C180
C100
C300
E300
7E00
3C00
ENDCHAR
STARTCHAR 0031
ENCODING 49
SWIDTH 565 0
DWIDTH 11 0
BBX 5 14 2 0
BITMAP
08
18
38
F8
98
18
18
18
18
18
18
18
18
18
ENDCHAR
STARTCHAR 0032
ENCODING 50
SWIDTH 565 0
DWIDTH 11 0
BBX 9 14 1 0
BITMAP
3E00
7F00
C300
C180
0180
0300
0300
0600
1C00
3800
6000
C000
FF80
FF80
ENDCHAR
STARTCHAR 0033
ENCODING 51
SWIDTH 565 0
DWIDTH 11 0
BBX 9 14 1 0
BITMAP
3C00
7E00
C300
C300
0300
1E00
1F00
0300
0180
0180
C180
C300
7F00
3C00
ENDCHAR
STARTCHAR 0034
ENCODING 52
SWIDTH 565 0
DWIDTH 11 0
BBX 10 14 0 0
BITMAP
0300
0700
0700
0F00
1B00
1300
3300
6300
4300
FFC0
FFC0
0300
0300
0300
ENDCHAR
STARTCHAR 0035
ENCODING 53
SWIDTH 565 0
DWIDTH 11 0
BBX 9 14 1 0
BITMAP
7F00
7F00
6000
4000
4000
DE00
FF00
C300
0180
0180
C180
C300
7F00
3C00
ENDCHAR
STARTCHAR 0036
ENCODING 54
SWIDTH 565 0
DWIDTH 11 0
BBX 9 14 1 0
BITMAP
3E00
7F00
6300
C100
C000
9E00
BF00
E300
C180
C180
C180
E300
7F00
3C00
ENDCHAR
STARTCHAR 0037
ENCODING 55
SWIDTH 565 0
DWIDTH 11 0
BBX 9 14 1 0
BITMAP
FF80
FF80
0300
0600
0600
0C00
0C00
1800
1800
1000
3000
3000
3000
3000
ENDCHAR
STARTCHAR 0038
ENCODING 56
SWIDTH 565 0
DWIDTH 11 0
BBX 9 14 1 0
BITMAP
3C00
7E00
6300
C300
C300
6300
3E00
7E00
C300
C180
C180
C300
7F00
3E00
ENDCHAR
STARTCHAR 0039
ENCODING 57
SWIDTH 565 0
DWIDTH 11 0
BBX 9 14 1 0
BITMAP
3C00
7E00
E300
C100
C180
C180
C380
7F80
3D80
0180
C300
C300
7E00
3C00
ENDCHAR
STARTCHAR 003A
ENCODING 58
SWIDTH 257 0
DWIDTH 5 0
BBX 2 10 2 0
BITMAP
C0
C0
00
00
00
00
00
00
C0
C0
ENDCHAR
STARTCHAR 003B
ENCODING 59
SWIDTH 257 0
DWIDTH 5 0
BBX 2 13 2 -3
BITMAP
C0
C0
00
00
00
00
00
00
C0
C0
40
80
80
ENDCHAR
STARTCHAR 003C
ENCODING 60
SWIDTH 565 0
DWIDTH 11 0
BBX 9 9 1 2
BITMAP
0080
0380
1F00
7800
C000
7800
1F00
0380
0080
ENDCHAR
STARTCHAR 003D
ENCODING 61
SWIDTH 565 0
DWIDTH 11 0
BBX 9 6 1 4
BITMAP
FF80
FF80
0000
0000
FF80
FF80
ENDCHAR
STARTCHAR 003E
ENCODING 62
SWIDTH 565 0
DWIDTH 11 0
BBX 9 9 1 2
BITMAP
8000
E000
7C00
0F00
0180
0F00
7C00
E000
8000
ENDCHAR
STARTCHAR 003F
ENCODING 63
SWIDTH 565 0
DWIDTH 11 0
BBX 9 14 1 0
BITMAP
3E00
7F00
C300
C180
0180
0300
0600
0C00
0C00
1800
1800
0000
1800
1800
ENDCHAR
STARTCHAR 0040
ENCODING 64
SWIDTH 977 0
DWIDTH 19 0
BBX 17 18 1 -4
BITMAP
03F000
0FFC00
1C0E00
300300
61D980
47F980
C63880
CC1080
8C1080
883180
883100
CC7700
CFFE00
67BC00
700180
3C0700
1FFE00
03F800
ENDCHAR
STARTCHAR 0041
ENCODING 65
SWIDTH 668 0
DWIDTH 13 0
BBX 13 14 0 0
BITMAP
0600
0700
0F00
0D80
0980
1980
18C0
30C0
3FE0
3FE0
6060
6030
4030
C038
ENDCHAR
STARTCHAR 0042
ENCODING 66
SWIDTH 668 0
DWIDTH 13 0
BBX 11 14 1 0
BITMAP
FF00
FF80
C0C0
C0C0
C0C0
C0C0
FF80
FF80
C0C0
C060
C060
C0C0
FFC0
FF80
ENDCHAR
STARTCHAR 0043
ENCODING 67
SWIDTH 720 0
DWIDTH 14 0
BBX 12 14 1 0
BITMAP
0F80
3FC0
70E0
6070
C000
C000
C000
C000
C000
C030
6070
70E0
3FC0
0F80
ENDCHAR
STARTCHAR 0044
ENCODING 68
SWIDTH 720 0
DWIDTH 14 0
BBX 12 14 1 0
BITMAP
FF00
FFC0
C0E0
C060
C020
C030
C030
C030
C030
C060
C060
C0E0
FFC0
FF00
ENDCHAR
STARTCHAR 0045
ENCODING 69
SWIDTH 668 0
DWIDTH 13 0
BBX 11 14 1 0
BITMAP
FFC0
FFC0
C000
C000
C000
C000
FFC0
FFC0
C000
C000
C000
C000
FFE0
FFE0
ENDCHAR
STARTCHAR 0046
ENCODING 70
SWIDTH 617 0
DWIDTH 12 0
BBX 9 14 2 0
BITMAP
FF80
FF80
8000
8000
8000
8000
FF00
FF00
8000
8000
8000
8000
8000
8000
ENDCHAR
STARTCHAR 0047
ENCODING 71
SWIDTH 771 0
DWIDTH 15 0
BBX 13 14 1 0
BITMAP
0F80
3FE0
7070
6030
C010
C000
C000
C1F8
C1F8
C018
6018
7038
3FF0
0FC0
ENDCHAR
STARTCHAR 0048
ENCODING 72
SWIDTH 720 0
DWIDTH 14 0
BBX 10 14 2 0
BITMAP
80C0
80C0
80C0
80C0
80C0
80C0
FFC0
FFC0
80C0
80C0
80C0
80C0
80C0
80C0
ENDCHAR
STARTCHAR 0049
ENCODING 73
SWIDTH 257 0
DWIDTH 5 0
BBX 2 14 2 0
BITMAP
C0
C0
C0
C0
C0
C0
C0
C0
C0
C0
C0
C0
C0
C0
ENDCHAR
STARTCHAR 004A
ENCODING 74
SWIDTH 514 0
DWIDTH 10 0
BBX 7 14 1 0
BITMAP
06
06
06
06
06
06
06
06
06
06
86
C6
FC
78
ENDCHAR
STARTCHAR 004B
ENCODING 75
SWIDTH 668 0
DWIDTH 13 0
BBX 11 14 1 0
BITMAP
C0E0
C1C0
C380
C700
CE00
DC00
FC00
F600
E700
C300
C180
C0C0
C0E0
C060
ENDCHAR
STARTCHAR 004C
ENCODING 76
SWIDTH 565 0
DWIDTH 11 0
BBX 9 14 1 0
BITMAP
C000
C000
C000
C000
C000
C000
C000
C000
C000
C000
C000
C000
FF80
FF80
ENDCHAR
STARTCHAR 004D
ENCODING 77
SWIDTH 822 0
DWIDTH 16 0
BBX 13 14 1 0
BITMAP
E018
F038
F028
D028
D868
D868
C848
CCC8
CCC8
C488
C788
C788
C308
C308
ENDCHAR
STARTCHAR 004E
ENCODING 78
SWIDTH 720 0
DWIDTH 14 0
BBX 11 14 1 0
BITMAP
E060
E060
F060
D860
D860
CC60
CC60
C660
C360
C360
C1E0
C0E0
C0E0
C060
ENDCHAR
STARTCHAR 004F
ENCODING 79
SWIDTH 771 0
DWIDTH 15 0
BBX 13 14 1 0
BITMAP
0F80
3FE0
7070
6030
C018
C018
C018
C018
C018
C018
6030
7070
3FE0
0F80
ENDCHAR
STARTCHAR 0050
ENCODING 80
SWIDTH 668 0
DWIDTH 13 0
BBX 11 14 1 0
BITMAP
FF80
FFC0
C0E0
C060
C060
C060
C0C0
FFC0
FF80
C000
C000
C000
C000
C000
ENDCHAR
STARTCHAR 0051
ENCODING 81
SWIDTH 771 0
DWIDTH 15 0
BBX 13 15 1 -1
BITMAP
0F80
3FE0
7070
6030
C038
C018
C018
C018
C018
C030
61B0
70E0
3FE0
0FB8
0008
ENDCHAR
STARTCHAR 0052
ENCODING 82
SWIDTH 720 0
DWIDTH 14 0
BBX 12 14 1 0
BITMAP
FFC0
FFE0
C060
C060
C060
C060
FFE0
FF80
C300
C180
C0C0
C060
C060
C030
ENDCHAR
STARTCHAR 0053
ENCODING 83
SWIDTH 668 0
DWIDTH 13 0
BBX 11 14 1 0
BITMAP
1F00
7F80
60C0
C0C0
C000
7000
3F00
07C0
00C0
C060
C060
60C0
7FC0
1F00
ENDCHAR
STARTCHAR 0054
ENCODING 84
SWIDTH 617 0
DWIDTH 12 0
BBX 11 14 0 0
BITMAP
FFE0
FFE0
0600
0600
0600
0600
0600
0600
0600
0600
0600
0600
0600
0600
ENDCHAR
STARTCHAR 0055
ENCODING 85
SWIDTH 720 0
DWIDTH 14 0
BBX 11 14 1 0
BITMAP
C060
C060
C060
C060
C060
C060
C060
C060
4060
4060
6060
70E0
3FC0
1F80
ENDCHAR
STARTCHAR 0056
ENCODING 86
SWIDTH 668 0
DWIDTH 13 0
BBX 12 14 0 0
BITMAP
C010
6030
6030
6060
3060
3040
10C0
18C0
1880
0980
0D80
0D00
0700
0600
ENDCHAR
STARTCHAR 0057
ENCODING 87
SWIDTH 925 0
DWIDTH 18 0
BBX 18 14 0 0
BITMAP
C0C0C0
40C080
61E180
61E180
612180
233100
333300
323300
321200
161A00
161E00
1C0E00
1C0C00
0C0C00
ENDCHAR
STARTCHAR 0058
ENCODING 88
SWIDTH 668 0
DWIDTH 13 0
BBX 12 14 0 0
BITMAP
6030
3060
30C0
18C0
0D80
0F00
0700
0700
0D80
1980
18C0
3060
6070
E030
ENDCHAR
STARTCHAR 0059
ENCODING 89
SWIDTH 668 0
DWIDTH 13 0
BBX 12 14 0 0
BITMAP
E030
6070
3060
30C0
1880
0D80
0F00
0600
0600
0600
0600
0600
0600
0600
ENDCHAR
STARTCHAR 005A
ENCODING 90
SWIDTH 617 0
DWIDTH 12 0
BBX 11 14 0 0
BITMAP
7FE0
7FE0
00C0
01C0
0180
0300
0600
0C00
1C00
3800
3000
6000
FFE0
FFE0
ENDCHAR
STARTCHAR 005B
ENCODING 91
SWIDTH 257 0
DWIDTH 5 0
BBX 4 18 1 -4
BITMAP
F0
F0
C0
C0
C0
C0
C0
C0
C0
C0
C0
C0
C0
C0
C0
C0
F0
F0
ENDCHAR
STARTCHAR 005C
ENCODING 92
SWIDTH 257 0
DWIDTH 5 0
BBX 5 14 0 0
BITMAP
80
C0
40
40
60
20
20
20
30
10
10
18
08
08
ENDCHAR
STARTCHAR 005D
ENCODING 93
SWIDTH 257 0
DWIDTH 5 0
BBX 4 18 0 -4
BITMAP
F0
F0
30
30
30
30
30
30
30
30
30
30
30
30
30
30
F0
F0
ENDCHAR
STARTCHAR 005E
ENCODING 94
SWIDTH 462 0
DWIDTH 9 0
BBX 7 7 1 7
BITMAP
10
38
28
6C
44
C6
82
ENDCHAR
STARTCHAR 005F
ENCODING 95
SWIDTH 565 0
DWIDTH 11 0
BBX 11 2 0 -4
BITMAP
FFE0
FFE0
ENDCHAR
STARTCHAR 0060
ENCODING 96
SWIDTH 308 0
DWIDTH 6 0
BBX 3 3 1 11
BITMAP
C0
60
20
ENDCHAR
STARTCHAR 0061
ENCODING 97
SWIDTH 565 0
DWIDTH 11 0
BBX 9 10 1 0
BITMAP
3E00
7F00
C300
0F00
7F00
F100
C300
C700
FF00
7D80
ENDCHAR
STARTCHAR 0062
ENCODING 98
SWIDTH 565 0
DWIDTH 11 0
BBX 9 14 1 0
BITMAP
C000
C000
C000
C000
DE00
FF00
E300
C180
C180
C180
C180
E300
FF00
DC00
ENDCHAR
STARTCHAR 0063
ENCODING 99
SWIDTH 514 0
DWIDTH 10 0
BBX 8 10 1 0
BITMAP
3C
7F
E3
C0
80
80
C0
C3
7F
3C
ENDCHAR
STARTCHAR 0064
ENCODING 100
SWIDTH 565 0
DWIDTH 11 0
BBX 8 14 1 0
BITMAP
01
01
01
01
39
7D
C3
C3
81
81
C3
C3
7D
39
ENDCHAR
STARTCHAR 0065
ENCODING 101
SWIDTH 565 0
DWIDTH 11 0
BBX 9 10 1 0
BITMAP
3C00
7F00
C300
C180
FF80
FF80
C000
C380
7F00
3E00
ENDCHAR
STARTCHAR 0066
ENCODING 102
SWIDTH 257 0
DWIDTH 5 0
BBX 6 14 0 0
BITMAP
1C
3C
20
20
F8
F8
20
20
20
20
20
20
20
20
ENDCHAR
STARTCHAR 0067
ENCODING 103
SWIDTH 565 0
DWIDTH 11 0
BBX 8 14 1 -4
BITMAP
3D
7F
C3
C3
81
81
C3
C3
7F
3D
01
C3
FE
7C
ENDCHAR
STARTCHAR 0068
ENCODING 104
SWIDTH 565 0
DWIDTH 11 0
BBX 8 14 1 0
BITMAP
C0
C0
C0
C0
DE
FF
E3
C1
C1
C1
C1
C1
C1
C1
ENDCHAR
STARTCHAR 0069
ENCODING 105
SWIDTH 205 0
DWIDTH 4 0
BBX 2 14 1 0
BITMAP
C0
C0
00
00
C0
C0
C0
C0
C0
C0
C0
C0
C0
C0
ENDCHAR
STARTCHAR 006A
ENCODING 106
SWIDTH 205 0
DWIDTH 4 0
BBX 4 18 -1 -4
BITMAP
30
30
00
00
30
30
30
30
30
30
30
30
30
30
30
30
F0
E0
ENDCHAR
STARTCHAR 006B
ENCODING 107
SWIDTH 514 0
DWIDTH 10 0
BBX 8 14 1 0
BITMAP
C0
C0
C0
C0
C7
CE
DC
F8
F8
D8
CC
C6
C6
C3
ENDCHAR
STARTCHAR 006C
ENCODING 108
SWIDTH 205 0
DWIDTH 4 0
BBX 2 14 1 0
BITMAP
C0
C0
C0
C0
C0
C0
C0
C0
C0
C0
C0
C0
C0
C0
ENDCHAR
STARTCHAR 006D
ENCODING 109
SWIDTH 822 0
DWIDTH 16 0
BBX 14 10 1 0
BITMAP
DC70
FEF8
E38C
C30C
C30C
C30C
C30C
C30C
C30C
C30C
ENDCHAR
STARTCHAR 006E
ENCODING 110
SWIDTH 565 0
DWIDTH 11 0
BBX 8 10 1 0
BITMAP
DE
FF
E3
C1
C1
C1
C1
C1
C1
C1
ENDCHAR
STARTCHAR 006F
ENCODING 111
SWIDTH 565 0
DWIDTH 11 0
BBX 9 10 1 0
BITMAP
3C00
7F00
C300
C180
8180
8180
C180
C300
7F00
3C00
ENDCHAR
STARTCHAR 0070
ENCODING 112
SWIDTH 565 0
DWIDTH 11 0
BBX 9 14 1 -4
BITMAP
DE00
FF00
E300
C180
C180
C180
C180
E300
FF00
DC00
C000
C000
C000
C000
ENDCHAR
STARTCHAR 0071
ENCODING 113
SWIDTH 565 0
DWIDTH 11 0
BBX 8 14 1 -4
BITMAP
39
7D
C3
C3
81
81
C3
C3
7D
39
01
01
01
01
ENDCHAR
STARTCHAR 0072
ENCODING 114
SWIDTH 308 0
DWIDTH 6 0
BBX 6 10 1 0
BITMAP
DC
F8
E0
C0
C0
C0
C0
C0
C0
C0
ENDCHAR
STARTCHAR 0073
ENCODING 115
SWIDTH 514 0
DWIDTH 10 0
BBX 8 10 1 0
BITMAP
7C
FE
C6
E0
FC
3E
03
C3
FE
7C
ENDCHAR
STARTCHAR 0074
ENCODING 116
SWIDTH 257 0
DWIDTH 5 0
BBX 5 13 0 0
BITMAP
20
20
20
F8
F8
20
20
20
20
20
20
38
38
ENDCHAR
STARTCHAR 0075
ENCODING 117
SWIDTH 565 0
DWIDTH 11 0
BBX 8 10 1 0
BITMAP
C1
C1
C1
C1
C1
C1
C3
C3
7D
39
ENDCHAR
STARTCHAR 0076
ENCODING 118
SWIDTH 514 0
DWIDTH 10 0
BBX 9 10 0 0
BITMAP
C180
6180
6100
2300
3300
3200
1600
1C00
1C00
0C00
ENDCHAR
STARTCHAR 0077
ENCODING 119
SWIDTH 720 0
DWIDTH 14 0
BBX 13 10 0 0
BITMAP
C308
4308
4718
6798
6590
24B0
3CB0
3CE0
18E0
1860
ENDCHAR
STARTCHAR 0078
ENCODING 120
SWIDTH 514 0
DWIDTH 10 0
BBX 9 10 0 0
BITMAP
6180
6300
3600
1E00
0C00
1C00
1E00
3300
6300
E180
ENDCHAR
STARTCHAR 0079
ENCODING 121
SWIDTH 514 0
DWIDTH 10 0
BBX 8 14 1 -4
BITMAP
83
C3
C2
46
66
64
3C
3C
18
18
10
30
F0
E0
ENDCHAR
STARTCHAR 007A
ENCODING 122
SWIDTH 514 0
DWIDTH 10 0
BBX 9 10 0 0
BITMAP
7F80
7F80
0300
0600
0C00
1800
3000
6000
FF80
FF80
ENDCHAR
STARTCHAR 007B
ENCODING 123
SWIDTH 308 0
DWIDTH 6 0
BBX 5 18 1 -4
BITMAP
38
38
60
60
60
60
60
60
C0
C0
60
60
60
60
60
20
38
38
ENDCHAR
STARTCHAR 007C
ENCODING 124
SWIDTH 257 0
DWIDTH 5 0
BBX 1 18 2 -4
BITMAP
80
80
80
80
80
80
80
80
80
80
80
80
80
80
80
80
80
80
ENDCHAR
STARTCHAR 007D
ENCODING 125
SWIDTH 308 0
DWIDTH 6 0
BBX 6 18 0 -4
BITMAP
E0
F0
30
30
30
30
30
18
1C
1C
18
30
30
30
30
30
F0
E0
ENDCHAR
STARTCHAR 007E
ENCODING 126
SWIDTH 565 0
DWIDTH 11 0
BBX 9 4 1 4
BITMAP
7000
FC80
8F80
0700
ENDCHAR
STARTCHAR 00A0
ENCODING 160
SWIDTH 257 0
DWIDTH 5 0
BBX 0 0 0 0
BITMAP
ENDCHAR
STARTCHAR 00A1
ENCODING 161
SWIDTH 308 0
DWIDTH 6 0
BBX 2 14 2 -4
BITMAP
C0
C0
00
40
40
C0
C0
C0
C0
C0
C0
C0
C0
C0
ENDCHAR
STARTCHAR 00A2
ENCODING 162
SWIDTH 565 0
DWIDTH 11 0
BBX 8 18 1 -4
BITMAP
02
02
02
06
3C
7F
E7
C8
C8
C8
D1
F3
7F
3C
20
20
20
40
ENDCHAR
STARTCHAR 00A3
ENCODING 163
SWIDTH 565 0
DWIDTH 11 0
BBX 10 14 0 0
BITMAP
1F00
3F80
30C0
6000
6000
2000
FE00
FE00
3000
3000
2000
7C40
FFC0
4380
ENDCHAR
STARTCHAR 00A4
ENCODING 164
SWIDTH 565 0
DWIDTH 11 0
BBX 8 8 1 2
BITMAP
9D
FF
63
C1
C1
63
FF
9D
ENDCHAR
STARTCHAR 00A5
ENCODING 165
SWIDTH 565 0
DWIDTH 11 0
BBX 10 14 0 0
BITMAP
C0C0
60C0
6180
3180
3300
1B00
1E00
7FC0
7FC0
0C00
7FC0
7FC0
0C00
0C00
ENDCHAR
STARTCHAR 00A6
ENCODING 166
SWIDTH 257 0
DWIDTH 5 0
BBX 1 18 2 -4
BITMAP
80
80
80
80
80
80
80
80
00
00
00
80
80
80
80
80
80
80
ENDCHAR
STARTCHAR 00A7
ENCODING 167
SWIDTH 565 0
DWIDTH 11 0
BBX 9 18 1 -4
BITMAP
3C00
7E00
6300
6000
7000
7C00
8E00
8300
C180
E180
3900
1E00
0600
0300
C300
6300
7F00
3C00
ENDCHAR
STARTCHAR 00A8
ENCODING 168
SWIDTH 308 0
DWIDTH 6 0
BBX 5 2 1 12
BITMAP
98
98
ENDCHAR
STARTCHAR 00A9
ENCODING 169
SWIDTH 720 0
DWIDTH 14 0
BBX 14 14 0 0
BITMAP
0FC0
1860
2010
4788
CC4C
8804
9804
9804
8844
CCCC
4788
2010
1860
0FC0
ENDCHAR
STARTCHAR 00AA
ENCODING 170
SWIDTH 360 0
DWIDTH 7 0
BBX 6 7 0 7
BITMAP
3C
44
04
7C
C4
4C
7C
ENDCHAR
STARTCHAR 00AB
ENCODING 171
SWIDTH 565 0
DWIDTH 11 0
BBX 8 9 1 1
BITMAP
13
32
26
64
CC
64
26
32
13
ENDCHAR
STARTCHAR 00AC
ENCODING 172
SWIDTH 565 0
DWIDTH 11 0
BBX 9 6 1 4
BITMAP
FF80
FF80
0180
0180
0180
0180
ENDCHAR
STARTCHAR 00AD
ENCODING 173
SWIDTH 308 0
DWIDTH 6 0
BBX 5 2 1 4
BITMAP
F8
F8
ENDCHAR
STARTCHAR 00AE
ENCODING 174
SWIDTH 720 0
DWIDTH 14 0
BBX 14 14 0 0
BITMAP
0FC0
1860
2010
4F88
C8CC
88C4
8F84
8904
8884
C8CC
4848
2010
1860
0FC0
ENDCHAR
STARTCHAR 00AF
ENCODING 175
SWIDTH 565 0
DWIDTH 11 0
BBX 11 2 0 15
BITMAP
FFE0
FFE0
ENDCHAR
STARTCHAR 00B0
ENCODING 176
SWIDTH 411 0
DWIDTH 8 0
BBX 5 5 1 9
BITMAP
70
C8
88
C8
70
ENDCHAR
STARTCHAR 00B1
ENCODING 177
SWIDTH 514 0
DWIDTH 10 0
BBX 9 11 1 0
BITMAP
1800
1800
1800
1800
FF80
FF80
1800
1800
1800
FF80
FF80
ENDCHAR
STARTCHAR 00B2
ENCODING 178
SWIDTH 308 0
DWIDTH 6 0
BBX 6 7 0 7
BITMAP
78
4C
0C
18
30
60
FC
ENDCHAR
STARTCHAR 00B3
ENCODING 179
SWIDTH 308 0
DWIDTH 6 0
BBX 6 7 0 7
BITMAP
78
4C
0C
18
0C
CC
78
ENDCHAR
STARTCHAR 00B4
ENCODING 180
SWIDTH 308 0
DWIDTH 6 0
BBX 3 3 2 11
BITMAP
60
40
C0
ENDCHAR
STARTCHAR 00B5
ENCODING 181
SWIDTH 565 0
DWIDTH 11 0
BBX 8 14 1 -4
BITMAP
C1
C1
C1
C1
C1
C1
C1
E3
FF
DD
C0
C0
C0
C0
ENDCHAR
STARTCHAR 00B6
ENCODING 182
SWIDTH 514 0
DWIDTH 10 0
BBX 10 17 0 -3
BITMAP
3FC0
7FC0
F980
F980
F980
F980
7980
3980
0980
0980
0980
0980
0980
0980
0980
0980
0980
ENDCHAR
STARTCHAR 00B7
ENCODING 183
SWIDTH 257 0
DWIDTH 5 0
BBX 2 2 2 6
BITMAP
C0
C0
ENDCHAR
STARTCHAR 00B8
ENCODING 184
SWIDTH 308 0
DWIDTH 6 0
BBX 4 4 1 -4
BITMAP
60
70
30
E0
ENDCHAR
STARTCHAR 00B9
ENCODING 185
SWIDTH 308 0
DWIDTH 6 0
BBX 3 7 1 7
BITMAP
20
60
E0
A0
20
20
20
ENDCHAR
STARTCHAR 00BA
ENCODING 186
SWIDTH 360 0
DWIDTH 7 0
BBX 7 7 0 7
BITMAP
38
44
44
C6
44
44
38
ENDCHAR
STARTCHAR 00BB
ENCODING 187
SWIDTH 565 0
DWIDTH 11 0
BBX 7 9 2 1
BITMAP
98
C8
4C
66
36
66
4C
C8
98
ENDCHAR
STARTCHAR 00BC
ENCODING 188
SWIDTH 822 0
DWIDTH 16 0
BBX 15 14 1 0
BITMAP
2018
6030
E020
A040
20C0
2080
2100
030C
061C
041C
082C
186C
307E
200C
ENDCHAR
STARTCHAR 00BD
ENCODING 189
SWIDTH 822 0
DWIDTH 16 0
BBX 15 14 1 0
BITMAP
2010
6030
E020
A040
20C0
2180
2100
023C
0664
0C04
080C
1018
3030
607E
ENDCHAR
STARTCHAR 00BE
ENCODING 190
SWIDTH 822 0
DWIDTH 16 0
BBX 16 14 0 0
BITMAP
780C
4C18
0C10
1820
0C60
CC40
7880
0186
030E
020E
0416
0C36
183F
1006
ENDCHAR
STARTCHAR 00BF
ENCODING 191
SWIDTH 617 0
DWIDTH 12 0
BBX 9 14 1 -4
BITMAP
0C00
0C00
0000
0C00
0C00
0800
1800
3000
6000
4000
C180
6180
7F00
1E00
ENDCHAR
STARTCHAR 00C0
ENCODING 192
SWIDTH 668 0
DWIDTH 13 0
BBX 13 18 0 0
BITMAP
0600
0600
0200
0000
0600
0700
0F00
0D80
0980
1980
18C0
30C0
3FE0
3FE0
6060
6030
4030
C038
ENDCHAR
STARTCHAR 00C1
ENCODING 193
SWIDTH 668 0
DWIDTH 13 0
BBX 13 18 0 0
BITMAP
0300
0200
0600
0000
0600
0700
0F00
0D80
0980
1980
18C0
30C0
3FE0
3FE0
6060
6030
4030
C038
ENDCHAR
STARTCHAR 00C2
ENCODING 194
SWIDTH 668 0
DWIDTH 13 0
BBX 13 18 0 0
BITMAP
0600
0F00
0980
0000
0600
0700
0F00
0D80
0980
1980
18C0
30C0
3FE0
3FE0
6060
6030
4030
C038
ENDCHAR
STARTCHAR 00C3
ENCODING 195
SWIDTH 668 0
DWIDTH 13 0
BBX 13 18 0 0
BITMAP
0C80
1F80
1B80
0000
0600
0700
0F00
0D80
0980
1980
18C0
30C0
3FE0
3FE0
6060
6030
4030
C038
ENDCHAR
STARTCHAR 00C4
ENCODING 196
SWIDTH 668 0
DWIDTH 13 0
BBX 13 17 0 0
BITMAP
0980
0980
0000
0600
0700
0F00
0D80
0980
1980
18C0
30C0
3FE0
3FE0
6060
6030
4030
C038
ENDCHAR
STARTCHAR 00C5
ENCODING 197
SWIDTH 668 0
DWIDTH 13 0
BBX 13 18 0 0
BITMAP
0600
0900
0900
0900
0600
0700
0F00
0D80
0980
1980
18C0
30C0
3FE0
3FE0
6060
6030
4030
C038
ENDCHAR
STARTCHAR 00C6
ENCODING 198
SWIDTH 977 0
DWIDTH 19 0
BBX 18 14 0 0
BITMAP
03FFC0
03FFC0
066000
066000
0C6000
0C6000
087F80
187F80
1FE000
3FE000
306000
606000
607FC0
C07FC0
ENDCHAR
STARTCHAR 00C7
ENCODING 199
SWIDTH 720 0
DWIDTH 14 0
BBX 12 18 1 -4
BITMAP
0F80
3FC0
70E0
6070
C000
C000
C000
C000
C000
C030
6070
70E0
3FC0
0F80
0400
0600
0300
0E00
ENDCHAR
STARTCHAR 00C8
ENCODING 200
SWIDTH 668 0
DWIDTH 13 0
BBX 11 18 1 0
BITMAP
0C00
0C00
0600
0000
FFC0
FFC0
C000
C000
C000
C000
FFC0
FFC0
C000
C000
C000
C000
FFE0
FFE0
ENDCHAR
STARTCHAR 00C9
ENCODING 201
SWIDTH 668 0
DWIDTH 13 0
BBX 11 18 1 0
BITMAP
0600
0600
0C00
0000
FFC0
FFC0
C000
C000
C000
C000
FFC0
FFC0
C000
C000
C000
C000
FFE0
FFE0
ENDCHAR
STARTCHAR 00CA
ENCODING 202
SWIDTH 668 0
DWIDTH 13 0
BBX 11 18 1 0
BITMAP
0E00
0A00
1B00
0000
FFC0
FFC0
C000
C000
C000
C000
FFC0
FFC0
C000
C000
C000
C000
FFE0
FFE0
ENDCHAR
STARTCHAR 00CB
ENCODING 203
SWIDTH 668 0
DWIDTH 13 0
BBX 11 17 1 0
BITMAP
1B00
1B00
0000
FFC0
FFC0
C000
C000
C000
C000
FFC0
FFC0
C000
C000
C000
C000
FFE0
FFE0
ENDCHAR
STARTCHAR 00CC
ENCODING 204
SWIDTH 257 0
DWIDTH 5 0
BBX 3 18 1 0
BITMAP
C0
40
60
00
60
60
60
60
60
60
60
60
60
60
60
60
60
60
ENDCHAR
STARTCHAR 00CD
ENCODING 205
SWIDTH 257 0
DWIDTH 5 0
BBX 2 18 2 0
BITMAP
C0
C0
80
00
C0
C0
C0
C0
C0
C0
C0
C0
C0
C0
C0
C0
C0
C0
ENDCHAR
STARTCHAR 00CE
ENCODING 206
SWIDTH 257 0
DWIDTH 5 0
BBX 5 18 0 0
BITMAP
70
58
D8
00
30
30
30
30
30
30
30
30
30
30
30
30
30
30
ENDCHAR
STARTCHAR 00CF
ENCODING 207
SWIDTH 257 0
DWIDTH 5 0
BBX 5 17 0 0
BITMAP
D8
D8
00
30
30
30
30
30
30
30
30
30
30
30
30
30
30
ENDCHAR
STARTCHAR 00D0
ENCODING 208
SWIDTH 720 0
DWIDTH 14 0
BBX 13 14 0 0
BITMAP
7F80
7FE0
6070
6030
6010
6018
FE18
FE18
6018
6030
6030
6070
7FE0
7F80
ENDCHAR
STARTCHAR 00D1
ENCODING 209
SWIDTH 720 0
DWIDTH 14 0
BBX 11 18 1 0
BITMAP
0C80
1F80
1300
0000
E060
E060
F060
D860
D860
CC60
CC60
C660
C360
C360
C1E0
C0E0
C0E0
C060
ENDCHAR
STARTCHAR 00D2
ENCODING 210
SWIDTH 771 0
DWIDTH 15 0
BBX 13 18 1 0
BITMAP
0C00
0600
0200
0000
0F80
3FE0
7070
6030
C018
C018
C018
C018
C018
C018
6030
7070
3FE0
0F80
ENDCHAR
STARTCHAR 00D3
ENCODING 211
SWIDTH 771 0
DWIDTH 15 0
BBX 13 18 1 0
BITMAP
0300
0300
0600
0000
0F80
3FE0
7070
6030
C018
C018
C018
C018
C018
C018
6030
7070
3FE0
0F80
ENDCHAR
STARTCHAR 00D4
ENCODING 212
SWIDTH 771 0
DWIDTH 15 0
BBX 13 18 1 0
BITMAP
0700
0D00
0D80
0000
0F80
3FE0
7070
6030
C018
C018
C018
C018
C018
C018
6030
7070
3FE0
0F80
ENDCHAR
STARTCHAR 00D5
ENCODING 213
SWIDTH 771 0
DWIDTH 15 0
BBX 13 18 1 0
BITMAP
0EC0
0F80
1B80
0000
0F80
3FE0
7070
6030
C018
C018
C018
C018
C018
C018
6030
7070
3FE0
0F80
ENDCHAR
STARTCHAR 00D6
ENCODING 214
SWIDTH 771 0
DWIDTH 15 0
BBX 13 17 1 0
BITMAP
0D80
0D80
0000
0F80
3FE0
7070
6030
C018
C018
C018
C018
C018
C018
6030
7070
3FE0
0F80
ENDCHAR
STARTCHAR 00D7
ENCODING 215
SWIDTH 565 0
DWIDTH 11 0
BBX 7 7 2 3
BITMAP
82
C6
7C
38
7C
C6
82
ENDCHAR
STARTCHAR 00D8
ENCODING 216
SWIDTH 771 0
DWIDTH 15 0
BBX 13 15 1 -1
BITMAP
0F88
3FD0
7060
6070
C0D0
C198
C318
C618
CC18
D818
7030
7070
7FE0
DF80
8000
ENDCHAR
STARTCHAR 00D9
ENCODING 217
SWIDTH 720 0
DWIDTH 14 0
BBX 11 18 1 0
BITMAP
0C00
0400
0600
0000
C060
C060
C060
C060
C060
C060
C060
C060
4060
4060
6060
70E0
3FC0
1F80
ENDCHAR
STARTCHAR 00DA
ENCODING 218
SWIDTH 720 0
DWIDTH 14 0
BBX 11 18 1 0
BITMAP
0300
0600
0400
0000
C060
C060
C060
C060
C060
C060
C060
C060
4060
4060
6060
70E0
3FC0
1F80
ENDCHAR
STARTCHAR 00DB
ENCODING 219
SWIDTH 720 0
DWIDTH 14 0
BBX 11 18 1 0
BITMAP
0600
0F00
1900
0000
C060
C060
C060
C060
C060
C060
C060
C060
4060
4060
6060
70E0
3FC0
1F80
ENDCHAR
STARTCHAR 00DC
ENCODING 220
SWIDTH 720 0
DWIDTH 14 0
BBX 11 17 1 0
BITMAP
1900
1900
0000
C060
C060
C060
C060
C060
C060
C060
C060
4060
4060
6060
70E0
3FC0
1F80
ENDCHAR
STARTCHAR 00DD
ENCODING 221
SWIDTH 668 0
DWIDTH 13 0
BBX 12 18 0 0
BITMAP
0300
0300
0600
0000
E030
6070
3060
30C0
1880
0D80
0F00
0600
0600
0600
0600
0600
0600
0600
ENDCHAR
STARTCHAR 00DE
ENCODING 222
SWIDTH 668 0
DWIDTH 13 0
BBX 11 14 1 0
BITMAP
C000
C000
C000
FF80
FFC0
C0E0
C060
C060
C0E0
FFC0
FF80
C000
C000
C000
ENDCHAR
STARTCHAR 00DF
ENCODING 223
SWIDTH 617 0
DWIDTH 12 0
BBX 10 14 1 0
BITMAP
3C00
7E00
6300
C300
C200
C600
C400
C600
C380
C1C0
C0C0
D8C0
CFC0
C780
ENDCHAR
STARTCHAR 00E0
ENCODING 224
SWIDTH 565 0
DWIDTH 11 0
BBX 9 14 1 0
BITMAP
3800
1800
0800
0000
3E00
7F00
C300
0F00
7F00
F100
C300
C700
FF00
7D80
ENDCHAR
STARTCHAR 00E1
ENCODING 225
SWIDTH 565 0
DWIDTH 11 0
BBX 9 14 1 0
BITMAP
0C00
0C00
0800
0000
3E00
7F00
C300
0F00
7F00
F100
C300
C700
FF00
7D80
ENDCHAR
STARTCHAR 00E2
ENCODING 226
SWIDTH 565 0
DWIDTH 11 0
BBX 9 14 1 0
BITMAP
1800
3400
2600
0000
3E00
7F00
C300
0F00
7F00
F100
C300
C700
FF00
7D80
ENDCHAR
STARTCHAR 00E3
ENCODING 227
SWIDTH 565 0
DWIDTH 11 0
BBX 9 14 1 0
BITMAP
3200
7E00
4E00
0000
3E00
7F00
C300
0F00
7F00
F100
C300
C700
FF00
7D80
ENDCHAR
STARTCHAR 00E4
ENCODING 228
SWIDTH 565 0
DWIDTH 11 0
BBX 9 13 1 0
BITMAP
2600
2600
0000
3E00
7F00
C300
0F00
7F00
F100
C300
C700
FF00
7D80
ENDCHAR
STARTCHAR 00E5
ENCODING 229
SWIDTH 565 0
DWIDTH 11 0
BBX 9 16 1 0
BITMAP
1800
2400
2400
2400
1800
0000
3E00
7F00
C300
0F00
7F00
F100
C300
C700
FF00
7D80
ENDCHAR
STARTCHAR 00E6
ENCODING 230
SWIDTH 874 0
DWIDTH 17 0
BBX 15 10 1 0
BITMAP
3E78
7FFC
C386
0F06
7FFE
F3FE
8300
C786
FFFC
7878
ENDCHAR
STARTCHAR 00E7
ENCODING 231
SWIDTH 514 0
DWIDTH 10 0
BBX 8 14 1 -4
BITMAP
3C
7F
E3
C0
80
80
C0
C3
7F
3C
10
18
0C
38
ENDCHAR
STARTCHAR 00E8
ENCODING 232
SWIDTH 565 0
DWIDTH 11 0
BBX 9 14 1 0
BITMAP
3000
1800
0800
0000
3C00
7F00
C300
C180
FF80
FF80
C000
C380
7F00
3E00
ENDCHAR
STARTCHAR 00E9
ENCODING 233
SWIDTH 565 0
DWIDTH 11 0
BBX 9 14 1 0
BITMAP
0C00
0C00
0800
0000
3C00
7F00
C300
C180
FF80
FF80
C000
C380
7F00
3E00
ENDCHAR
STARTCHAR 00EA
ENCODING 234
SWIDTH 565 0
DWIDTH 11 0
BBX 9 14 1 0
BITMAP
1800
3400
2600
0000
3C00
7F00
C300
C180
FF80
FF80
C000
C380
7F00
3E00
ENDCHAR
STARTCHAR 00EB
ENCODING 235
SWIDTH 565 0
DWIDTH 11 0
BBX 9 13 1 0
BITMAP
2600
2600
0000
3C00
7F00
C300
C180
FF80
FF80
C000
C380
7F00
3E00
ENDCHAR
STARTCHAR 00EC
ENCODING 236
SWIDTH 257 0
DWIDTH 5 0
BBX 3 14 1 0
BITMAP
C0
C0
60
00
60
60
60
60
60
60
60
60
60
60
ENDCHAR
STARTCHAR 00ED
ENCODING 237
SWIDTH 257 0
DWIDTH 5 0
BBX 3 14 2 0
BITMAP
60
C0
80
00
C0
C0
C0
C0
C0
C0
C0
C0
C0
C0
ENDCHAR
STARTCHAR 00EE
ENCODING 238
SWIDTH 257 0
DWIDTH 5 0
BBX 5 14 0 0
BITMAP
30
78
C8
00
30
30
30
30
30
30
30
30
30
30
ENDCHAR
STARTCHAR 00EF
ENCODING 239
SWIDTH 257 0
DWIDTH 5 0
BBX 5 13 0 0
BITMAP
C8
C8
00
30
30
30
30
30
30
30
30
30
30
ENDCHAR
STARTCHAR 00F0
ENCODING 240
SWIDTH 565 0
DWIDTH 11 0
BBX 9 14 1 0
BITMAP
3200
1E00
3C00
2600
3B00
7F00
C300
C180
8180
8180
C180
E300
7F00
3C00
ENDCHAR
STARTCHAR 00F1
ENCODING 241
SWIDTH 565 0
DWIDTH 11 0
BBX 8 14 1 0
BITMAP
3B
3E
6E
00
DE
FF
E3
C1
C1
C1
C1
C1
C1
C1
ENDCHAR
STARTCHAR 00F2
ENCODING 242
SWIDTH 565 0
DWIDTH 11 0
BBX 9 14 1 0
BITMAP
3000
1800
0800
0000
3C00
7F00
C300
C180
8180
8180
C180
C300
7F00
3C00
ENDCHAR
STARTCHAR 00F3
ENCODING 243
SWIDTH 565 0
DWIDTH 11 0
BBX 9 14 1 0
BITMAP
0C00
0C00
0800
0000
3C00
7F00
C300
C180
8180
8180
C180
C300
7F00
3C00
ENDCHAR
STARTCHAR 00F4
ENCODING 244
SWIDTH 565 0
DWIDTH 11 0
BBX 9 14 1 0
BITMAP
1800
3400
2600
0000
3C00
7F00
C300
C180
8180
8180
C180
C300
7F00
3C00
ENDCHAR
STARTCHAR 00F5
ENCODING 245
SWIDTH 565 0
DWIDTH 11 0
BBX 9 14 1 0
BITMAP
3200
7E00
4E00
0000
3C00
7F00
C300
C180
8180
8180
C180
C300
7F00
3C00
ENDCHAR
STARTCHAR 00F6
ENCODING 246
SWIDTH 565 0
DWIDTH 11 0
BBX 9 13 1 0
BITMAP
2600
2600
0000
3C00
7F00
C300
C180
8180
8180
C180
C300
7F00
3C00
ENDCHAR
STARTCHAR 00F7
ENCODING 247
SWIDTH 514 0
DWIDTH 10 0
BBX 9 8 1 2
BITMAP
1800
1800
0000
FF80
FF80
0000
1800
1800
ENDCHAR
STARTCHAR 00F8
ENCODING 248
SWIDTH 617 0
DWIDTH 12 0
BBX 9 12 1 -1
BITMAP
0080
1E80
7F00
6380
C680
C480
C880
D180
7380
7F00
5E00
8000
ENDCHAR
STARTCHAR 00F9
ENCODING 249
SWIDTH 565 0
DWIDTH 11 0
BBX 8 14 1 0
BITMAP
18
18
0C
00
C1
C1
C1
C1
C1
C1
C3
C3
7D
39
ENDCHAR
STARTCHAR 00FA
ENCODING 250
SWIDTH 565 0
DWIDTH 11 0
BBX 8 14 1 0
BITMAP
0C
0C
18
00
C1
C1
C1
C1
C1
C1
C3
C3
7D
39
ENDCHAR
STARTCHAR 00FB
ENCODING 251
SWIDTH 565 0
DWIDTH 11 0
BBX 8 14 1 0
BITMAP
18
3C
26
00
C1
C1
C1
C1
C1
C1
C3
C3
7D
39
ENDCHAR
STARTCHAR 00FC
ENCODING 252
SWIDTH 565 0
DWIDTH 11 0
BBX 8 13 1 0
BITMAP
26
26
00
C1
C1
C1
C1
C1
C1
C3
C3
7D
39
ENDCHAR
STARTCHAR 00FD
ENCODING 253
SWIDTH 514 0
DWIDTH 10 0
BBX 8 18 1 -4
BITMAP
0C
08
18
00
83
C3
C2
46
66
64
3C
3C
18
18
10
30
F0
E0
ENDCHAR
STARTCHAR 00FE
ENCODING 254
SWIDTH 565 0
DWIDTH 11 0
BBX 9 18 1 -4
BITMAP
C000
C000
C000
C000
DE00
FF00
E300
C180
C180
C180
C180
E300
FF00
DC00
C000
C000
C000
C000
ENDCHAR
STARTCHAR 00FF
ENCODING 255
SWIDTH 514 0
DWIDTH 10 0
BBX 8 17 1 -4
BITMAP
64
64
00
83
C3
C2
46
66
64
3C
3C
18
18
10
30
F0
E0
ENDCHAR
STARTCHAR 0100
ENCODING 256
SWIDTH 668 0
DWIDTH 13 0
BBX 13 16 0 0
BITMAP
1F80
0000
0600
0700
0F00
0D80
0980
1980
18C0
30C0
3FE0
3FE0
6060
6030
4030
C038
ENDCHAR
STARTCHAR 0101
ENCODING 257
SWIDTH 565 0
DWIDTH 11 0
BBX 9 12 1 0
BITMAP
3E00
0000
3E00
7F00
C300
0F00
7F00
F100
C300
C700
FF00
7D80
ENDCHAR
STARTCHAR 0102
ENCODING 258
SWIDTH 668 0
DWIDTH 13 0
BBX 13 18 0 0
BITMAP
0880
0980
0700
0000
0600
0700
0F00
0D80
0980
1980
18C0
30C0
3FE0
3FE0
6060
6030
4030
C038
ENDCHAR
STARTCHAR 0103
ENCODING 259
SWIDTH 565 0
DWIDTH 11 0
BBX 9 14 1 0
BITMAP
2200
2200
1C00
0000
3E00
7F00
C300
0F00
7F00
F100
C300
C700
FF00
7D80
ENDCHAR
STARTCHAR 0104
ENCODING 260
SWIDTH 668 0
DWIDTH 13 0
BBX 14 18 0 -4
BITMAP
0600
0700
0F00
0D80
0980
1980
18C0
30C0
3FE0
3FE0
6060
6030
4030
C038
0010
0020
0030
001C
ENDCHAR
STARTCHAR 0105
ENCODING 261
SWIDTH 565 0
DWIDTH 11 0
BBX 11 14 1 -4
BITMAP
3E00
7F00
C300
0F00
7F00
F100
C300
C700
FF00
7D80
0100
0100
0100
01E0
ENDCHAR
STARTCHAR 0106
ENCODING 262
SWIDTH 720 0
DWIDTH 14 0
BBX 12 18 1 0
BITMAP
0300
0300
0600
0000
0F80
3FC0
70E0
6070
C000
C000
C000
C000
C000
C030
6070
70E0
3FC0
0F80
ENDCHAR
STARTCHAR 0107
ENCODING 263
SWIDTH 514 0
DWIDTH 10 0
BBX 8 14 1 0
BITMAP
0C
08
18
00
3C
7F
E3
C0
80
80
C0
C3
7F
3C
ENDCHAR
STARTCHAR 0108
ENCODING 264
SWIDTH 720 0
DWIDTH 14 0
BBX 12 18 1 0
BITMAP
0600
0F00
0980
0000
0F80
3FC0
70E0
6070
C000
C000
C000
C000
C000
C030
6070
70E0
3FC0
0F80
ENDCHAR
STARTCHAR 0109
ENCODING 265
SWIDTH 514 0
DWIDTH 10 0
BBX 8 14 1 0
BITMAP
1C
14
36
00
3C
7F
E3
C0
80
80
C0
C3
7F
3C
ENDCHAR
STARTCHAR 010A
ENCODING 266
SWIDTH 720 0
DWIDTH 14 0
BBX 12 17 1 0
BITMAP
0600
0600
0000
0F80
3FC0
70E0
6070
C000
C000
C000
C000
C000
C030
6070
70E0
3FC0
0F80
ENDCHAR
STARTCHAR 010B
ENCODING 267
SWIDTH 514 0
DWIDTH 10 0
BBX 8 13 1 0
BITMAP
18
18
00
3C
7F
E3
C0
80
80
C0
C3
7F
3C
ENDCHAR
STARTCHAR 010C
ENCODING 268
SWIDTH 720 0
DWIDTH 14 0
BBX 12 18 1 0
BITMAP
0D80
0D00
0700
0000
0F80
3FC0
70E0
6070
C000
C000
C000
C000
C000
C030
6070
70E0
3FC0
0F80
ENDCHAR
STARTCHAR 010D
ENCODING 269
SWIDTH 514 0
DWIDTH 10 0
BBX 8 14 1 0
BITMAP
26
3C
18
00
3C
7F
E3
C0
80
80
C0
C3
7F
3C
ENDCHAR
STARTCHAR 010E
ENCODING 270
SWIDTH 720 0
DWIDTH 14 0
BBX 12 18 1 0
BITMAP
3600
1400
1C00
0000
FF00
FFC0
C0E0
C060
C020
C030
C030
C030
C030
C060
C060
C0E0
FFC0
FF00
ENDCHAR
STARTCHAR 010F
ENCODING 271
SWIDTH 617 0
DWIDTH 12 0
BBX 11 14 1 0
BITMAP
0160
0160
0120
0140
3D00
7F00
C300
C300
8100
8100
C300
C300
7D00
3900
ENDCHAR
STARTCHAR 0110
ENCODING 272
SWIDTH 720 0
DWIDTH 14 0
BBX 13 14 0 0
BITMAP
7F80
7FE0
6070
6030
6010
6018
FE18
FE18
6018
6030
6030
6070
7FE0
7F80
ENDCHAR
STARTCHAR 0111
ENCODING 273
SWIDTH 565 0
DWIDTH 11 0
BBX 10 14 1 0
BITMAP
0100
1FC0
1FC0
0100
3900
7D00
C300
C300
8100
8100
C300
C300
7D00
3900
ENDCHAR
STARTCHAR 0112
ENCODING 274
SWIDTH 668 0
DWIDTH 13 0
BBX 11 16 1 0
BITMAP
1F80
0000
FFC0
FFC0
C000
C000
C000
C000
FFC0
FFC0
C000
C000
C000
C000
FFE0
FFE0
ENDCHAR
STARTCHAR 0113
ENCODING 275
SWIDTH 565 0
DWIDTH 11 0
BBX 9 12 1 0
BITMAP
7E00
0000
3C00
7F00
C300
C180
FF80
FF80
C000
C380
7F00
3E00
ENDCHAR
STARTCHAR 0114
ENCODING 276
SWIDTH 668 0
DWIDTH 13 0
BBX 11 18 1 0
BITMAP
1100
1100
0E00
0000
FFC0
FFC0
C000
C000
C000
C000
FFC0
FFC0
C000
C000
C000
C000
FFE0
FFE0
ENDCHAR
STARTCHAR 0115
ENCODING 277
SWIDTH 565 0
DWIDTH 11 0
BBX 9 14 1 0
BITMAP
2200
2200
1C00
0000
3C00
7F00
C300
C180
FF80
FF80
C000
C380
7F00
3E00
ENDCHAR
STARTCHAR 0116
ENCODING 278
SWIDTH 668 0
DWIDTH 13 0
BBX 11 17 1 0
BITMAP
0600
0600
0000
FFC0
FFC0
C000
C000
C000
C000
FFC0
FFC0
C000
C000
C000
C000
FFE0
FFE0
ENDCHAR
STARTCHAR 0117
ENCODING 279
SWIDTH 565 0
DWIDTH 11 0
BBX 9 13 1 0
BITMAP
1C00
1C00
0000
3C00
7F00
C300
C180
FF80
FF80
C000
C380
7F00
3E00
ENDCHAR
STARTCHAR 0118
ENCODING 280
SWIDTH 668 0
DWIDTH 13 0
BBX 11 18 1 -4
BITMAP
FFC0
FFC0
C000
C000
C000
C000
FFC0
FFC0
C000
C000
C000
C000
FFE0
FFE0
0100
0100
0100
01E0
ENDCHAR
STARTCHAR 0119
ENCODING 281
SWIDTH 565 0
DWIDTH 11 0
BBX 9 14 1 -4
BITMAP
3C00
7F00
C300
C180
FF80
FF80
C000
C380
7F00
3E00
0800
0800
0800
0F00
ENDCHAR
STARTCHAR 011A
ENCODING 282
SWIDTH 668 0
DWIDTH 13 0
BBX 11 18 1 0
BITMAP
1300
1E00
0C00
0000
FFC0
FFC0
C000
C000
C000
C000
FFC0
FFC0
C000
C000
C000
C000
FFE0
FFE0
ENDCHAR
STARTCHAR 011B
ENCODING 283
SWIDTH 565 0
DWIDTH 11 0
BBX 9 14 1 0
BITMAP
3600
3400
1C00
0000
3C00
7F00
C300
C180
FF80
FF80
C000
C380
7F00
3E00
ENDCHAR
STARTCHAR 011C
ENCODING 284
SWIDTH 771 0
DWIDTH 15 0
BBX 13 18 1 0
BITMAP
0300
0780
0CC0
0000
0F80
3FE0
7070
6030
C010
C000
C000
C1F8
C1F8
C018
6018
7038
3FF0
0FC0
ENDCHAR
STARTCHAR 011D
ENCODING 285
SWIDTH 565 0
DWIDTH 11 0
BBX 8 18 1 -4
BITMAP
18
3C
66
00
3D
7F
C3
C3
81
81
C3
C3
7F
3D
01
C3
FE
7C
ENDCHAR
STARTCHAR 011E
ENCODING 286
SWIDTH 771 0
DWIDTH 15 0
BBX 13 18 1 0
BITMAP
0C40
0480
0780
0000
0F80
3FE0
7070
6030
C010
C000
C000
C1F8
C1F8
C018
6018
7038
3FF0
0FC0
ENDCHAR
STARTCHAR 011F
ENCODING 287
SWIDTH 565 0
DWIDTH 11 0
BBX 8 18 1 -4
BITMAP
22
26
1C
00
3D
7F
C3
C3
81
81
C3
C3
7F
3D
01
C3
FE
7C
ENDCHAR
STARTCHAR 0120
ENCODING 288
SWIDTH 771 0
DWIDTH 15 0
BBX 13 17 1 0
BITMAP
0300
0300
0000
0F80
3FE0
7070
6030
C010
C000
C000
C1F8
C1F8
C018
6018
7038
3FF0
0FC0
ENDCHAR
STARTCHAR 0121
ENCODING 289
SWIDTH 565 0
DWIDTH 11 0
BBX 8 17 1 -4
BITMAP
18
18
00
3D
7F
C3
C3
81
81
C3
C3
7F
3D
01
C3
FE
7C
ENDCHAR
STARTCHAR 0122
ENCODING 290
SWIDTH 771 0
DWIDTH 15 0
BBX 13 18 1 -4
BITMAP
0F80
3FE0
7070
6030
C010
C000
C000
C1F8
C1F8
C018
6018
7038
3FF0
0FC0
0300
0380
0180
0700
ENDCHAR
STARTCHAR 0123
ENCODING 291
SWIDTH 565 0
DWIDTH 11 0
BBX 8 19 1 -4
BITMAP
08
10
18
18
00
3D
7F
C3
C3
81
81
C3
C3
7F
3D
03
C3
FE
7C
ENDCHAR
STARTCHAR 0124
ENCODING 292
SWIDTH 720 0
DWIDTH 14 0
BBX 10 18 2 0
BITMAP
0C00
1E00
1300
0000
80C0
80C0
80C0
80C0
80C0
80C0
FFC0
FFC0
80C0
80C0
80C0
80C0
80C0
80C0
ENDCHAR
STARTCHAR 0125
ENCODING 293
SWIDTH 565 0
DWIDTH 11 0
BBX 8 18 1 0
BITMAP
0C
1E
33
00
C0
C0
C0
C0
DE
FF
E3
C1
C1
C1
C1
C1
C1
C1
ENDCHAR
STARTCHAR 0126
ENCODING 294
SWIDTH 720 0
DWIDTH 14 0
BBX 13 14 0 0
BITMAP
2030
FFF8
FFF8
2030
2030
3FF0
3FF0
2030
2030
2030
2030
2030
2030
2030
ENDCHAR
STARTCHAR 0127
ENCODING 295
SWIDTH 565 0
DWIDTH 11 0
BBX 9 14 0 0
BITMAP
6000
FC00
FC00
6000
6F00
7F80
7180
6080
6080
6080
6080
6080
6080
6080
ENDCHAR
STARTCHAR 0128
ENCODING 296
SWIDTH 257 0
DWIDTH 5 0
BBX 7 18 -1 0
BITMAP
76
7C
DC
00
18
18
18
18
18
18
18
18
18
18
18
18
18
18
ENDCHAR
STARTCHAR 0129
ENCODING 297
SWIDTH 257 0
DWIDTH 5 0
BBX 6 14 0 0
BITMAP
EC
FC
98
00
30
30
30
30
30
30
30
30
30
30
ENDCHAR
STARTCHAR 012A
ENCODING 298
SWIDTH 257 0
DWIDTH 5 0
BBX 6 16 0 0
BITMAP
FC
00
30
30
30
30
30
30
30
30
30
30
30
30
30
30
ENDCHAR
STARTCHAR 012B
ENCODING 299
SWIDTH 257 0
DWIDTH 5 0
BBX 6 12 0 0
BITMAP
FC
00
30
30
30
30
30
30
30
30
30
30
ENDCHAR
STARTCHAR 012C
ENCODING 300
SWIDTH 257 0
DWIDTH 5 0
BBX 5 18 0 0
BITMAP
88
C8
70
00
30
30
30
30
30
30
30
30
30
30
30
30
30
30
ENDCHAR
STARTCHAR 012D
ENCODING 301
SWIDTH 257 0
DWIDTH 5 0
BBX 5 14 0 0
BITMAP
88
C8
70
00
30
30
30
30
30
30
30
30
30
30
ENDCHAR
STARTCHAR 012E
ENCODING 302
SWIDTH 257 0
DWIDTH 5 0
BBX 4 18 2 -4
BITMAP
C0
C0
C0
C0
C0
C0
C0
C0
C0
C0
C0
C0
C0
C0
80
80
80
F0
ENDCHAR
STARTCHAR 012F
ENCODING 303
SWIDTH 205 0
DWIDTH 4 0
BBX 4 18 1 -4
BITMAP
C0
C0
00
00
C0
C0
C0
C0
C0
C0
C0
C0
C0
C0
80
80
80
70
ENDCHAR
STARTCHAR 0130
ENCODING 304
SWIDTH 257 0
DWIDTH 5 0
BBX 2 17 2 0
BITMAP
C0
C0
00
C0
C0
C0
C0
C0
C0
C0
C0
C0
C0
C0
C0
C0
C0
ENDCHAR
STARTCHAR 0131
ENCODING 305
SWIDTH 257 0
DWIDTH 5 0
BBX 2 10 2 0
BITMAP
C0
C0
C0
C0
C0
C0
C0
C0
C0
C0
ENDCHAR
STARTCHAR 0132
ENCODING 306
SWIDTH 720 0
DWIDTH 14 0
BBX 11 14 2 0
BITMAP
C060
C060
C060
C060
C060
C060
C060
C060
C060
C060
C860
CC60
CFC0
C780
ENDCHAR
STARTCHAR 0133
ENCODING 307
SWIDTH 411 0
DWIDTH 8 0
BBX 6 18 1 -4
BITMAP
C4
C4
00
00
C4
C4
C4
C4
C4
C4
C4
C4
C4
C4
04
04
1C
1C
ENDCHAR
STARTCHAR 0134
ENCODING 308
SWIDTH 514 0
DWIDTH 10 0
BBX 9 18 1 0
BITMAP
0700
0D00
0D80
0000
0600
0600
0600
0600
0600
0600
0600
0600
0600
0600
8600
C600
FC00
7800
ENDCHAR
STARTCHAR 0135
ENCODING 309
SWIDTH 205 0
DWIDTH 4 0
BBX 6 18 -1 -4
BITMAP
30
78
4C
00
30
30
30
30
30
30
30
30
30
30
30
30
F0
E0
ENDCHAR
STARTCHAR 0136
ENCODING 310
SWIDTH 668 0
DWIDTH 13 0
BBX 11 18 1 -4
BITMAP
C0E0
C1C0
C380
C700
CE00
DC00
FC00
F600
E700
C300
C180
C0C0
C0E0
C060
0000
0700
0100
0F00
ENDCHAR
STARTCHAR 0137
ENCODING 311
SWIDTH 514 0
DWIDTH 10 0
BBX 8 18 1 -4
BITMAP
C0
C0
C0
C0
C7
CE
DC
F8
F8
D8
CC
C6
C6
C3
00
0C
06
1C
ENDCHAR
STARTCHAR 0138
ENCODING 312
SWIDTH 514 0
DWIDTH 10 0
BBX 8 10 1 0
BITMAP
C7
CE
D8
F0
F8
C8
CC
C6
C6
C3
ENDCHAR
STARTCHAR 0139
ENCODING 313
SWIDTH 565 0
DWIDTH 11 0
BBX 9 18 1 0
BITMAP
1800
3000
3000
0000
C000
C000
C000
C000
C000
C000
C000
C000
C000
C000
C000
C000
FF80
FF80
ENDCHAR
STARTCHAR 013A
ENCODING 314
SWIDTH 205 0
DWIDTH 4 0
BBX 3 18 1 0
BITMAP
60
C0
80
00
C0
C0
C0
C0
C0
C0
C0
C0
C0
C0
C0
C0
C0
C0
ENDCHAR
STARTCHAR 013B
ENCODING 315
SWIDTH 565 0
DWIDTH 11 0
BBX 9 18 1 -4
BITMAP
C000
C000
C000
C000
C000
C000
C000
C000
C000
C000
C000
C000
FF80
FF80
0000
0E00
0200
1E00
ENDCHAR
STARTCHAR 013C
ENCODING 316
SWIDTH 205 0
DWIDTH 4 0
BBX 4 18 0 -4
BITMAP
60
60
60
60
60
60
60
60
60
60
60
60
60
60
00
70
30
E0
ENDCHAR
STARTCHAR 013D
ENCODING 317
SWIDTH 565 0
DWIDTH 11 0
BBX 9 14 1 0
BITMAP
C300
C300
C200
C200
C200
C000
C000
C000
C000
C000
C000
C000
FF80
FF80
ENDCHAR
STARTCHAR 013E
ENCODING 318
SWIDTH 308 0
DWIDTH 6 0
BBX 5 14 1 0
BITMAP
D8
D8
D0
D0
C0
C0
C0
C0
C0
C0
C0
C0
C0
C0
ENDCHAR
STARTCHAR 013F
ENCODING 319
SWIDTH 565 0
DWIDTH 11 0
BBX 9 14 1 0
BITMAP
C000
C000
C000
C000
C000
C000
C300
C300
C000
C000
C000
C000
FF80
FF80
ENDCHAR
STARTCHAR 0140
ENCODING 320
SWIDTH 308 0
DWIDTH 6 0
BBX 5 14 1 0
BITMAP
C0
C0
C0
C0
C0
C0
D8
D8
C0
C0
C0
C0
C0
C0
ENDCHAR
STARTCHAR 0141
ENCODING 321
SWIDTH 565 0
DWIDTH 11 0
BBX 10 14 0 0
BITMAP
6000
6000
6000
6400
6C00
7800
7000
E000
E000
6000
6000
6000
7FC0
7FC0
ENDCHAR
STARTCHAR 0142
ENCODING 322
SWIDTH 205 0
DWIDTH 4 0
BBX 4 14 0 0
BITMAP
60
60
60
60
70
70
60
E0
E0
60
60
60
60
60
ENDCHAR
STARTCHAR 0143
ENCODING 323
SWIDTH 720 0
DWIDTH 14 0
BBX 11 18 1 0
BITMAP
0600
0600
0400
0000
E060
E060
F060
D860
D860
CC60
CC60
C660
C360
C360
C1E0
C0E0
C0E0
C060
ENDCHAR
STARTCHAR 0144
ENCODING 324
SWIDTH 565 0
DWIDTH 11 0
BBX 8 14 1 0
BITMAP
0C
0C
18
00
DE
FF
E3
C1
C1
C1
C1
C1
C1
C1
ENDCHAR
STARTCHAR 0145
ENCODING 325
SWIDTH 720 0
DWIDTH 14 0
BBX 11 18 1 -4
BITMAP
E060
E060
F060
D860
D860
CC60
CC60
C660
C360
C360
C1E0
C0E0
C0E0
C060
0000
0700
0180
0700
ENDCHAR
STARTCHAR 0146
ENCODING 326
SWIDTH 565 0
DWIDTH 11 0
BBX 8 14 1 -4
BITMAP
DE
FF
E3
C1
C1
C1
C1
C1
C1
C1
00
1C
04
3C
ENDCHAR
STARTCHAR 0147
ENCODING 327
SWIDTH 720 0
DWIDTH 14 0
BBX 11 18 1 0
BITMAP
1900
0F00
0600
0000
E060
E060
F060
D860
D860
CC60
CC60
C660
C360
C360
C1E0
C0E0
C0E0
C060
ENDCHAR
STARTCHAR 0148
ENCODING 328
SWIDTH 565 0
DWIDTH 11 0
BBX 8 14 1 0
BITMAP
36
34
1C
00
DE
FF
E3
C1
C1
C1
C1
C1
C1
C1
ENDCHAR
STARTCHAR 0149
ENCODING 329
SWIDTH 565 0
DWIDTH 11 0
BBX 10 14 0 0
BITMAP
C000
C000
4000
8000
B780
3FC0
38C0
30C0
30C0
30C0
30C0
30C0
30C0
30C0
ENDCHAR
STARTCHAR 014A
ENCODING 330
SWIDTH 720 0
DWIDTH 14 0
BBX 11 14 2 0
BITMAP
9F00
BF80
E1C0
C0C0
C060
8060
8060
8060
8060
8060
80C0
80C0
8780
8F00
ENDCHAR
STARTCHAR 014B
ENCODING 331
SWIDTH 565 0
DWIDTH 11 0
BBX 8 14 1 -4
BITMAP
DE
FF
E3
C1
C1
C1
C1
C1
C1
C1
01
03
07
06
ENDCHAR
STARTCHAR 014C
ENCODING 332
SWIDTH 771 0
DWIDTH 15 0
BBX 13 16 1 0
BITMAP
0F80
0000
0F80
3FE0
7070
6030
C018
C018
C018
C018
C018
C018
6030
7070
3FE0
0F80
ENDCHAR
STARTCHAR 014D
ENCODING 333
SWIDTH 565 0
DWIDTH 11 0
BBX 9 12 1 0
BITMAP
7E00
0000
3C00
7F00
C300
C180
8180
8180
C180
C300
7F00
3C00
ENDCHAR
STARTCHAR 014E
ENCODING 334
SWIDTH 771 0
DWIDTH 15 0
BBX 13 18 1 0
BITMAP
0880
0880
0700
0000
0F80
3FE0
7070
6030
C018
C018
C018
C018
C018
C018
6030
7070
3FE0
0F80
ENDCHAR
STARTCHAR 014F
ENCODING 335
SWIDTH 565 0
DWIDTH 11 0
BBX 9 14 1 0
BITMAP
2200
2600
1C00
0000
3C00
7F00
C300
C180
8180
8180
C180
C300
7F00
3C00
ENDCHAR
STARTCHAR 0150
ENCODING 336
SWIDTH 771 0
DWIDTH 15 0
BBX 13 18 1 0
BITMAP
0CC0
0D80
0900
0000
0F80
3FE0
7070
6030
C018
C018
C018
C018
C018
C018
6030
7070
3FE0
0F80
ENDCHAR
STARTCHAR 0151
ENCODING 337
SWIDTH 565 0
DWIDTH 11 0
BBX 9 14 1 0
BITMAP
1B00
3600
2600
0000
3C00
7F00
C300
C180
8180
8180
C180
C300
7F00
3C00
ENDCHAR
STARTCHAR 0152
ENCODING 338
SWIDTH 977 0
DWIDTH 19 0
BBX 17 14 1 0
BITMAP
1F7F80
3FFF80
71E000
60E000
C06000
C06000
C07F80
C07F80
C06000
C06000
60E000
71E000
3FFF80
1F7F80
ENDCHAR
STARTCHAR 0153
ENCODING 339
SWIDTH 925 0
DWIDTH 18 0
BBX 16 10 1 0
BITMAP
3C3C
7F7E
E3C3
C183
C1FF
C1FF
C180
E3C3
7F7E
3C3C
ENDCHAR
STARTCHAR 0154
ENCODING 340
SWIDTH 720 0
DWIDTH 14 0
BBX 12 18 1 0
BITMAP
0600
0C00
0800
0000
FFC0
FFE0
C060
C060
C060
C060
FFE0
FF80
C300
C180
C0C0
C060
C060
C030
ENDCHAR
STARTCHAR 0155
ENCODING 341
SWIDTH 308 0
DWIDTH 6 0
BBX 6 14 1 0
BITMAP
30
30
60
00
DC
F8
E0
C0
C0
C0
C0
C0
C0
C0
ENDCHAR
STARTCHAR 0156
ENCODING 342
SWIDTH 720 0
DWIDTH 14 0
BBX 12 18 1 -4
BITMAP
FFC0
FFE0
C060
C060
C060
C060
FFE0
FF80
C300
C180
C0C0
C060
C060
C030
0000
0700
0180
0700
ENDCHAR
STARTCHAR 0157
ENCODING 343
SWIDTH 308 0
DWIDTH 6 0
BBX 6 14 1 -4
BITMAP
DC
F8
E0
C0
C0
C0
C0
C0
C0
C0
00
70
10
F0
ENDCHAR
STARTCHAR 0158
ENCODING 344
SWIDTH 720 0
DWIDTH 14 0
BBX 12 18 1 0
BITMAP
3300
1E00
0C00
0000
FFC0
FFE0
C060
C060
C060
C060
FFE0
FF80
C300
C180
C0C0
C060
C060
C030
ENDCHAR
STARTCHAR 0159
ENCODING 345
SWIDTH 308 0
DWIDTH 6 0
BBX 6 14 1 0
BITMAP
D8
50
70
00
DC
F8
E0
C0
C0
C0
C0
C0
C0
C0
ENDCHAR
STARTCHAR 015A
ENCODING 346
SWIDTH 668 0
DWIDTH 13 0
BBX 11 18 1 0
BITMAP
0600
0C00
0800
0000
1F00
7F80
60C0
C0C0
C000
7000
3F00
07C0
00C0
C060
C060
60C0
7FC0
1F00
ENDCHAR
STARTCHAR 015B
ENCODING 347
SWIDTH 514 0
DWIDTH 10 0
BBX 8 14 1 0
BITMAP
0C
18
10
00
7C
FE
C6
E0
FC
3E
03
C3
FE
7C
ENDCHAR
STARTCHAR 015C
ENCODING 348
SWIDTH 668 0
DWIDTH 13 0
BBX 11 18 1 0
BITMAP
0C00
1A00
1300
0000
1F00
7F80
60C0
C0C0
C000
7000
3F00
07C0
00C0
C060
C060
60C0
7FC0
1F00
ENDCHAR
STARTCHAR 015D
ENCODING 349
SWIDTH 514 0
DWIDTH 10 0
BBX 8 14 1 0
BITMAP
18
3C
66
00
7C
FE
C6
E0
FC
3E
03
C3
FE
7C
ENDCHAR
STARTCHAR 015E
ENCODING 350
SWIDTH 668 0
DWIDTH 13 0
BBX 11 18 1 -4
BITMAP
1F00
7F80
60C0
C0C0
C000
7000
3F00
07C0
00C0
C060
C060
60C0
7FC0
1F00
0400
0E00
0200
1C00
ENDCHAR
STARTCHAR 015F
ENCODING 351
SWIDTH 514 0
DWIDTH 10 0
BBX 8 14 1 -4
BITMAP
7C
FE
C6
E0
FC
3E
03
C3
FE
7C
10
18
08
38
ENDCHAR
STARTCHAR 0160
ENCODING 352
SWIDTH 668 0
DWIDTH 13 0
BBX 11 18 1 0
BITMAP
3300
1E00
0C00
0000
1F00
7F80
60C0
C0C0
C000
7000
3F00
07C0
00C0
C060
C060
60C0
7FC0
1F00
ENDCHAR
STARTCHAR 0161
ENCODING 353
SWIDTH 514 0
DWIDTH 10 0
BBX 8 14 1 0
BITMAP
6C
2C
38
00
7C
FE
C6
E0
FC
3E
03
C3
FE
7C
ENDCHAR
STARTCHAR 0162
ENCODING 354
SWIDTH 617 0
DWIDTH 12 0
BBX 11 19 0 -5
BITMAP
FFE0
FFE0
0600
0600
0600
0600
0600
0600
0600
0600
0600
0600
0600
0600
0000
0600
0600
0200
0400
ENDCHAR
STARTCHAR 0163
ENCODING 355
SWIDTH 257 0
DWIDTH 5 0
BBX 5 18 0 -5
BITMAP
20
20
20
F8
F8
20
20
20
20
20
20
38
38
00
10
10
10
10
ENDCHAR
STARTCHAR 0164
ENCODING 356
SWIDTH 617 0
DWIDTH 12 0
BBX 11 18 0 0
BITMAP
1900
0F00
0600
0000
FFE0
FFE0
0600
0600
0600
0600
0600
0600
0600
0600
0600
0600
0600
0600
ENDCHAR
STARTCHAR 0165
ENCODING 357
SWIDTH 360 0
DWIDTH 7 0
BBX 7 14 0 0
BITMAP
06
26
22
22
F8
F8
20
20
20
20
20
20
38
38
ENDCHAR
STARTCHAR 0166
ENCODING 358
SWIDTH 617 0
DWIDTH 12 0
BBX 11 14 0 0
BITMAP
FFE0
FFE0
0600
0600
0600
0600
0600
3FC0
3FC0
0600
0600
0600
0600
0600
ENDCHAR
STARTCHAR 0167
ENCODING 359
SWIDTH 257 0
DWIDTH 5 0
BBX 5 13 0 0
BITMAP
20
60
60
F8
F8
60
60
F8
F8
60
60
78
38
ENDCHAR
STARTCHAR 0168
ENCODING 360
SWIDTH 720 0
DWIDTH 14 0
BBX 11 18 1 0
BITMAP
0C80
1F80
1300
0000
C060
C060
C060
C060
C060
C060
C060
C060
4060
4060
6060
70E0
3FC0
1F80
ENDCHAR
STARTCHAR 0169
ENCODING 361
SWIDTH 565 0
DWIDTH 11 0
BBX 8 14 1 0
BITMAP
32
7E
6E
00
C1
C1
C1
C1
C1
C1
C3
C3
7D
39
ENDCHAR
STARTCHAR 016A
ENCODING 362
SWIDTH 720 0
DWIDTH 14 0
BBX 11 16 1 0
BITMAP
1F80
0000
C060
C060
C060
C060
C060
C060
C060
C060
4060
4060
6060
70E0
3FC0
1F80
ENDCHAR
STARTCHAR 016B
ENCODING 363
SWIDTH 565 0
DWIDTH 11 0
BBX 8 12 1 0
BITMAP
7E
00
C1
C1
C1
C1
C1
C1
C3
C3
7D
39
ENDCHAR
STARTCHAR 016C
ENCODING 364
SWIDTH 720 0
DWIDTH 14 0
BBX 11 18 1 0
BITMAP
1180
0900
0E00
0000
C060
C060
C060
C060
C060
C060
C060
C060
4060
4060
6060
70E0
3FC0
1F80
ENDCHAR
STARTCHAR 016D
ENCODING 365
SWIDTH 565 0
DWIDTH 11 0
BBX 8 14 1 0
BITMAP
22
26
1C
00
C1
C1
C1
C1
C1
C1
C3
C3
7D
39
ENDCHAR
STARTCHAR 016E
ENCODING 366
SWIDTH 720 0
DWIDTH 14 0
BBX 11 18 1 0
BITMAP
0600
0A00
0900
0A00
C660
C060
C060
C060
C060
C060
C060
C060
4060
4060
6060
70E0
3FC0
1F80
ENDCHAR
STARTCHAR 016F
ENCODING 367
SWIDTH 565 0
DWIDTH 11 0
BBX 8 16 1 0
BITMAP
18
24
24
24
18
00
C1
C1
C1
C1
C1
C1
C3
C3
7D
39
ENDCHAR
STARTCHAR 0170
ENCODING 368
SWIDTH 720 0
DWIDTH 14 0
BBX 11 18 1 0
BITMAP
0CC0
0D80
1900
0000
C060
C060
C060
C060
C060
C060
C060
C060
4060
4060
6060
70E0
3FC0
1F80
ENDCHAR
STARTCHAR 0171
ENCODING 369
SWIDTH 565 0
DWIDTH 11 0
BBX 8 14 1 0
BITMAP
36
36
64
00
C1
C1
C1
C1
C1
C1
C3
C3
7D
39
ENDCHAR
STARTCHAR 0172
ENCODING 370
SWIDTH 720 0
DWIDTH 14 0
BBX 11 18 1 -4
BITMAP
C060
C060
C060
C060
C060
C060
C060
C060
4060
4060
6060
70E0
3FC0
1F80
0400
0400
0400
0380
ENDCHAR
STARTCHAR 0173
ENCODING 371
SWIDTH 565 0
DWIDTH 11 0
BBX 10 14 1 -4
BITMAP
C100
C100
C100
C100
C100
C100
C300
C300
7F00
3D00
0100
0300
0300
01C0
ENDCHAR
STARTCHAR 0174
ENCODING 372
SWIDTH 925 0
DWIDTH 18 0
BBX 18 18 0 0
BITMAP
00C000
01E000
033000
000000
C0C0C0
40C080
61E180
61E180
612180
233100
333300
323300
321200
161A00
161E00
1C0E00
1C0C00
0C0C00
ENDCHAR
STARTCHAR 0175
ENCODING 373
SWIDTH 720 0
DWIDTH 14 0
BBX 13 14 0 0
BITMAP
0300
0780
0CC0
0000
C308
4308
4718
6798
6590
24B0
3CB0
3CE0
18E0
1860
ENDCHAR
STARTCHAR 0176
ENCODING 374
SWIDTH 668 0
DWIDTH 13 0
BBX 12 18 0 0
BITMAP
0700
0500
0D80
0000
E030
6070
3060
30C0
1880
0D80
0F00
0600
0600
0600
0600
0600
0600
0600
ENDCHAR
STARTCHAR 0177
ENCODING 375
SWIDTH 514 0
DWIDTH 10 0
BBX 8 18 1 -4
BITMAP
18
3C
26
00
83
C3
C2
46
66
64
3C
3C
18
18
10
30
F0
E0
ENDCHAR
STARTCHAR 0178
ENCODING 376
SWIDTH 668 0
DWIDTH 13 0
BBX 12 17 0 0
BITMAP
0980
0980
0000
E030
6070
3060
30C0
1880
0D80
0F00
0600
0600
0600
0600
0600
0600
0600
ENDCHAR
STARTCHAR 0179
ENCODING 377
SWIDTH 617 0
DWIDTH 12 0
BBX 11 18 0 0
BITMAP
0600
0600
0400
0000
7FE0
7FE0
00C0
01C0
0180
0300
0600
0C00
1C00
3800
3000
6000
FFE0
FFE0
ENDCHAR
STARTCHAR 017A
ENCODING 378
SWIDTH 514 0
DWIDTH 10 0
BBX 9 14 0 0
BITMAP
0600
0C00
0800
0000
7F80
7F80
0300
0600
0C00
1800
3000
6000
FF80
FF80
ENDCHAR
STARTCHAR 017B
ENCODING 379
SWIDTH 617 0
DWIDTH 12 0
BBX 11 17 0 0
BITMAP
0600
0600
0000
7FE0
7FE0
00C0
01C0
0180
0300
0600
0C00
1C00
3800
3000
6000
FFE0
FFE0
ENDCHAR
STARTCHAR 017C
ENCODING 380
SWIDTH 514 0
DWIDTH 10 0
BBX 9 13 0 0
BITMAP
0C00
0C00
0000
7F80
7F80
0300
0600
0C00
1800
3000
6000
FF80
FF80
ENDCHAR
STARTCHAR 017D
ENCODING 381
SWIDTH 617 0
DWIDTH 12 0
BBX 11 18 0 0
BITMAP
1900
0F00
0600
0000
7FE0
7FE0
00C0
01C0
0180
0300
0600
0C00
1C00
3800
3000
6000
FFE0
FFE0
ENDCHAR
STARTCHAR 017E
ENCODING 382
SWIDTH 514 0
DWIDTH 10 0
BBX 9 14 0 0
BITMAP
3300
1E00
0C00
0000
7F80
7F80
0300
0600
0C00
1800
3000
6000
FF80
FF80
ENDCHAR
STARTCHAR 017F
ENCODING 383
SWIDTH 205 0
DWIDTH 4 0
BBX 5 14 1 0
BITMAP
78
F0
C0
C0
C0
C0
C0
C0
C0
C0
C0
C0
C0
C0
ENDCHAR
STARTCHAR 018F
ENCODING 399
SWIDTH 720 0
DWIDTH 14 0
BBX 12 14 1 0
BITMAP
0F80
3FC0
70E0
6030
6030
0030
FFF0
FFF0
C010
C030
6030
70E0
3FC0
1F80
ENDCHAR
STARTCHAR 0192
ENCODING 402
SWIDTH 565 0
DWIDTH 11 0
BBX 10 18 0 -4
BITMAP
03C0
03C0
0200
0600
1F80
1F80
0600
0400
0400
0C00
0C00
0C00
0800
0800
1800
1800
7800
F000
ENDCHAR
STARTCHAR 01A0
ENCODING 416
SWIDTH 822 0
DWIDTH 16 0
BBX 15 14 1 0
BITMAP
0F86
3FE6
7072
6034
C018
C018
C018
C018
C018
C018
6030
7070
3FE0
0F80
ENDCHAR
STARTCHAR 01A1
ENCODING 417
SWIDTH 617 0
DWIDTH 12 0
BBX 11 10 1 0
BITMAP
3C60
7F60
C320
C1C0
81C0
8180
C180
C300
7F00
3E00
ENDCHAR
STARTCHAR 01AF
ENCODING 431
SWIDTH 822 0
DWIDTH 16 0
BBX 14 14 1 0
BITMAP
C064
C064
C064
C064
C078
C060
C060
C060
4060
4060
6060
70E0
3FC0
1F80
ENDCHAR
STARTCHAR 01B0
ENCODING 432
SWIDTH 668 0
DWIDTH 13 0
BBX 11 10 1 0
BITMAP
C160
C160
C120
C120
C1C0
C100
C300
C300
7D00
3900
ENDCHAR
STARTCHAR 01CD
ENCODING 461
SWIDTH 668 0
DWIDTH 13 0
BBX 13 18 0 0
BITMAP
0980
0F00
0600
0000
0600
0700
0F00
0D80
0980
1980
18C0
30C0
3FE0
3FE0
6060
6030
4030
C038
ENDCHAR
STARTCHAR 01CE
ENCODING 462
SWIDTH 565 0
DWIDTH 11 0
BBX 9 14 1 0
BITMAP
3600
1400
1C00
0000
3E00
7F00
C300
0F00
7F00
F100
C300
C700
FF00
7D80
ENDCHAR
STARTCHAR 01CF
ENCODING 463
SWIDTH 257 0
DWIDTH 5 0
BBX 5 18 0 0
BITMAP
D8
58
70
00
30
30
30
30
30
30
30
30
30
30
30
30
30
30
ENDCHAR
STARTCHAR 01D0
ENCODING 464
SWIDTH 205 0
DWIDTH 4 0
BBX 5 14 0 0
BITMAP
98
F0
60
00
60
60
60
60
60
60
60
60
60
60
ENDCHAR
STARTCHAR 01D1
ENCODING 465
SWIDTH 771 0
DWIDTH 15 0
BBX 13 18 1 0
BITMAP
0D80
0500
0700
0000
0F80
3FE0
7070
6030
C018
C018
C018
C018
C018
C018
6030
7070
3FE0
0F80
ENDCHAR
STARTCHAR 01D2
ENCODING 466
SWIDTH 565 0
DWIDTH 11 0
BBX 9 14 1 0
BITMAP
2600
3400
1800
0000
3C00
7F00
C300
C180
8180
8180
C180
C300
7F00
3C00
ENDCHAR
STARTCHAR 01D3
ENCODING 467
SWIDTH 720 0
DWIDTH 14 0
BBX 11 18 1 0
BITMAP
1980
0F00
0600
0000
C060
C060
C060
C060
C060
C060
C060
C060
4060
4060
6060
70E0
3FC0
1F80
ENDCHAR
STARTCHAR 01D4
ENCODING 468
SWIDTH 565 0
DWIDTH 11 0
BBX 8 14 1 0
BITMAP
36
34
1C
00
C1
C1
C1
C1
C1
C1
C3
C3
7D
39
ENDCHAR
STARTCHAR 01D5
ENCODING 469
SWIDTH 720 0
DWIDTH 14 0
BBX 11 18 1 0
BITMAP
0F00
0000
0900
0000
C060
C060
C060
C060
C060
C060
C060
C060
4060
4060
6060
70E0
3FC0
1F80
ENDCHAR
STARTCHAR 01D6
ENCODING 470
SWIDTH 565 0
DWIDTH 11 0
BBX 8 15 1 0
BITMAP
7E
00
26
26
00
C1
C1
C1
C1
C1
C1
C3
C3
7D
39
ENDCHAR
STARTCHAR 01D7
ENCODING 471
SWIDTH 720 0
DWIDTH 14 0
BBX 11 18 1 0
BITMAP
0300
0600
0900
0000
C060
C060
C060
C060
C060
C060
C060
C060
4060
4060
6060
70E0
3FC0
1F80
ENDCHAR
STARTCHAR 01D8
ENCODING 472
SWIDTH 565 0
DWIDTH 11 0
BBX 8 17 1 0
BITMAP
0C
0C
18
00
26
26
00
C1
C1
C1
C1
C1
C1
C3
C3
7D
39
ENDCHAR
STARTCHAR 01D9
ENCODING 473
SWIDTH 720 0
DWIDTH 14 0
BBX 11 18 1 0
BITMAP
0F00
0600
0900
0000
C060
C060
C060
C060
C060
C060
C060
C060
4060
4060
6060
70E0
3FC0
1F80
ENDCHAR
STARTCHAR 01DA
ENCODING 474
SWIDTH 565 0
DWIDTH 11 0
BBX 8 17 1 0
BITMAP
36
34
1C
00
26
26
00
C1
C1
C1
C1
C1
C1
C3
C3
7D
39
ENDCHAR
STARTCHAR 01DB
ENCODING 475
SWIDTH 720 0
DWIDTH 14 0
BBX 11 18 1 0
BITMAP
0C00
0600
0900
0000
C060
C060
C060
C060
C060
C060
C060
C060
4060
4060
6060
70E0
3FC0
1F80
ENDCHAR
STARTCHAR 01DC
ENCODING 476
SWIDTH 565 0
DWIDTH 11 0
BBX 8 17 1 0
BITMAP
30
18
08
00
26
26
00
C1
C1
C1
C1
C1
C1
C3
C3
7D
39
ENDCHAR
STARTCHAR 01FA
ENCODING 506
SWIDTH 668 0
DWIDTH 13 0
BBX 13 20 0 0
BITMAP
0300
0300
0600
0900
0900
0900
0600
0700
0F00
0D80
0980
1980
18C0
30C0
3FE0
3FE0
6060
6030
4030
C038
ENDCHAR
STARTCHAR 01FB
ENCODING 507
SWIDTH 565 0
DWIDTH 11 0
BBX 9 20 1 0
BITMAP
0600
0C00
0800
0000
1800
2400
2400
2400
1800
0000
3E00
7F00
C300
0F00
7F00
F100
C300
C700
FF00
7D80
ENDCHAR
STARTCHAR 01FC
ENCODING 508
SWIDTH 977 0
DWIDTH 19 0
BBX 18 18 0 0
BITMAP
006000
006000
00C000
000000
03FFC0
03FFC0
066000
066000
0C6000
0C6000
087F80
187F80
1FE000
3FE000
306000
606000
607FC0
C07FC0
ENDCHAR
STARTCHAR 01FD
ENCODING 509
SWIDTH 874 0
DWIDTH 17 0
BBX 15 14 1 0
BITMAP
00C0
0180
0100
0000
3E78
7FFC
C386
0F06
7FFE
F3FE
8300
C786
FFFC
7878
ENDCHAR
STARTCHAR 01FE
ENCODING 510
SWIDTH 771 0
DWIDTH 15 0
BBX 13 19 1 -1
BITMAP
0300
0300
0200
0000
0F88
3FD0
7060
6070
C0D0
C198
C318
C618
CC18
D818
7030
7070
7FE0
DF80
8000
ENDCHAR
STARTCHAR 01FF
ENCODING 511
SWIDTH 617 0
DWIDTH 12 0
BBX 9 15 1 -1
BITMAP
0600
0400
0C00
0080
1E80
7F00
6380
C680
C480
C880
D180
7380
7F00
5E00
8000
ENDCHAR
STARTCHAR 0259
ENCODING 601
SWIDTH 565 0
DWIDTH 11 0
BBX 9 10 1 0
BITMAP
3E00
FF00
C300
0180
FF80
FF80
C180
C300
7F00
3E00
ENDCHAR
STARTCHAR 02C6
ENCODING 710
SWIDTH 308 0
DWIDTH 6 0
BBX 5 3 1 11
BITMAP
60
F0
98
ENDCHAR
STARTCHAR 02C7
ENCODING 711
SWIDTH 308 0
DWIDTH 6 0
BBX 5 3 1 11
BITMAP
D8
D0
70
ENDCHAR
STARTCHAR 02C9
ENCODING 713
SWIDTH 308 0
DWIDTH 6 0
BBX 6 1 0 11
BITMAP
FC
ENDCHAR
STARTCHAR 02D8
ENCODING 728
SWIDTH 308 0
DWIDTH 6 0
BBX 6 3 0 11
BITMAP
C4
4C
38
ENDCHAR
STARTCHAR 02D9
ENCODING 729
SWIDTH 308 0
DWIDTH 6 0
BBX 2 2 2 11
BITMAP
C0
C0
ENDCHAR
STARTCHAR 02DA
ENCODING 730
SWIDTH 308 0
DWIDTH 6 0
BBX 4 5 1 9
BITMAP
60
90
90
90
60
ENDCHAR
STARTCHAR 02DB
ENCODING 731
SWIDTH 308 0
DWIDTH 6 0
BBX 4 4 2 -4
BITMAP
80
80
80
F0
ENDCHAR
STARTCHAR 02DC
ENCODING 732
SWIDTH 308 0
DWIDTH 6 0
BBX 6 3 0 11
BITMAP
64
FC
9C
ENDCHAR
STARTCHAR 02DD
ENCODING 733
SWIDTH 308 0
DWIDTH 6 0
BBX 6 3 1 11
BITMAP
EC
D8
90
ENDCHAR
STARTCHAR 0300
ENCODING 768
SWIDTH 0 0
DWIDTH 0 0
BBX 3 3 -5 15
BITMAP
C0
60
20
ENDCHAR
STARTCHAR 0301
ENCODING 769
SWIDTH 0 0
DWIDTH 0 0
BBX 3 3 -3 15
BITMAP
60
C0
80
ENDCHAR
STARTCHAR 0303
ENCODING 771
SWIDTH 0 0
DWIDTH 0 0
BBX 6 2 -8 15
BITMAP
EC
98
ENDCHAR
STARTCHAR 0309
ENCODING 777
SWIDTH 0 0
DWIDTH 0 0
BBX 4 3 -4 15
BITMAP
E0
30
60
ENDCHAR
STARTCHAR 0323
ENCODING 803
SWIDTH 0 0
DWIDTH 0 0
BBX 2 2 -7 -3
BITMAP
C0
C0
ENDCHAR
STARTCHAR 037E
ENCODING 894
SWIDTH 257 0
DWIDTH 5 0
BBX 2 13 2 -3
BITMAP
C0
C0
00
00
00
00
00
00
C0
C0
40
80
80
ENDCHAR
STARTCHAR 0384
ENCODING 900
SWIDTH 308 0
DWIDTH 6 0
BBX 3 3 2 11
BITMAP
60
40
C0
ENDCHAR
STARTCHAR 0385
ENCODING 901
SWIDTH 308 0
DWIDTH 6 0
BBX 7 3 0 11
BITMAP
18
96
A6
ENDCHAR
STARTCHAR 0386
ENCODING 902
SWIDTH 668 0
DWIDTH 13 0
BBX 13 14 0 0
BITMAP
3600
6700
4F00
0D80
0980
1980
18C0
30C0
3FE0
3FE0
6060
6030
4030
C038
ENDCHAR
STARTCHAR 0387
ENCODING 903
SWIDTH 257 0
DWIDTH 5 0
BBX 2 2 2 8
BITMAP
C0
C0
ENDCHAR
STARTCHAR 0388
ENCODING 904
SWIDTH 771 0
DWIDTH 15 0
BBX 15 14 -1 0
BITMAP
67FE
67FE
C600
0600
0600
0600
07FC
07FC
0600
0600
0600
0600
07FE
07FE
ENDCHAR
STARTCHAR 0389
ENCODING 905
SWIDTH 822 0
DWIDTH 16 0
BBX 15 14 -1 0
BITMAP
6C06
6C06
CC06
0C06
0C06
0C06
0FFE
0FFE
0C06
0C06
0C06
0C06
0C06
0C06
ENDCHAR
STARTCHAR 038A
ENCODING 906
SWIDTH 360 0
DWIDTH 7 0
BBX 6 14 -1 0
BITMAP
6C
6C
CC
0C
0C
0C
0C
0C
0C
0C
0C
0C
0C
0C
ENDCHAR
STARTCHAR 038C
ENCODING 908
SWIDTH 771 0
DWIDTH 15 0
BBX 15 14 -1 0
BITMAP
63E0
6FF8
DC18
180C
300C
3006
3006
3006
3006
300C
180C
1C18
0FF8
03E0
ENDCHAR
STARTCHAR 038E
ENCODING 910
SWIDTH 822 0
DWIDTH 16 0
BBX 17 14 -1 0
BITMAP
660180
630300
C30600
018600
018C00
00D800
007800
007000
003000
003000
003000
003000
003000
003000
ENDCHAR
STARTCHAR 038F
ENCODING 911
SWIDTH 720 0
DWIDTH 14 0
BBX 14 14 -1 0
BITMAP
63E0
6FF0
DC38
181C
300C
300C
300C
300C
300C
180C
0818
0C30
3E7C
3E7C
ENDCHAR
STARTCHAR 0390
ENCODING 912
SWIDTH 205 0
DWIDTH 4 0
BBX 6 15 -1 0
BITMAP
18
94
A4
00
00
30
30
30
30
30
30
30
30
30
30
ENDCHAR
STARTCHAR 0391
ENCODING 913
SWIDTH 668 0
DWIDTH 13 0
BBX 13 14 0 0
BITMAP
0600
0700
0F00
0D80
0980
1980
18C0
30C0
3FE0
3FE0
6060
6030
4030
C038
ENDCHAR
STARTCHAR 0392
ENCODING 914
SWIDTH 668 0
DWIDTH 13 0
BBX 11 14 1 0
BITMAP
FF00
FF80
C0C0
C0C0
C0C0
C0C0
FF80
FF80
C0C0
C060
C060
C0C0
FFC0
FF80
ENDCHAR
STARTCHAR 0393
ENCODING 915
SWIDTH 514 0
DWIDTH 10 0
BBX 8 14 2 0
BITMAP
FF
FF
80
80
80
80
80
80
80
80
80
80
80
80
ENDCHAR
STARTCHAR 0394
ENCODING 916
SWIDTH 668 0
DWIDTH 13 0
BBX 13 14 0 0
BITMAP
0600
0700
0F00
0D80
0980
1980
18C0
30C0
3060
2060
6060
6030
7FF0
FFF8
ENDCHAR
STARTCHAR 0395
ENCODING 917
SWIDTH 668 0
DWIDTH 13 0
BBX 11 14 1 0
BITMAP
FFC0
FFC0
C000
C000
C000
C000
FFC0
FFC0
C000
C000
C000
C000
FFE0
FFE0
ENDCHAR
STARTCHAR 0396
ENCODING 918
SWIDTH 617 0
DWIDTH 12 0
BBX 11 14 0 0
BITMAP
7FE0
7FE0
00C0
01C0
0180
0300
0600
0C00
1C00
3800
3000
6000
FFE0
FFE0
ENDCHAR
STARTCHAR 0397
ENCODING 919
SWIDTH 720 0
DWIDTH 14 0
BBX 10 14 2 0
BITMAP
80C0
80C0
80C0
80C0
80C0
80C0
FFC0
FFC0
80C0
80C0
80C0
80C0
80C0
80C0
ENDCHAR
STARTCHAR 0398
ENCODING 920
SWIDTH 771 0
DWIDTH 15 0
BBX 13 14 1 0
BITMAP
0F80
3FE0
7070
6030
C018
C018
CF98
CF98
C018
C018
6030
7070
3FE0
0F80
ENDCHAR
STARTCHAR 0399
ENCODING 921
SWIDTH 257 0
DWIDTH 5 0
BBX 2 14 2 0
BITMAP
C0
C0
C0
C0
C0
C0
C0
C0
C0
C0
C0
C0
C0
C0
ENDCHAR
STARTCHAR 039A
ENCODING 922
SWIDTH 668 0
DWIDTH 13 0
BBX 11 14 1 0
BITMAP
C0E0
C1C0
C380
C700
CE00
DC00
FC00
F600
E700
C300
C180
C0C0
C0E0
C060
ENDCHAR
STARTCHAR 039B
ENCODING 923
SWIDTH 668 0
DWIDTH 13 0
BBX 12 14 0 0
BITMAP
0600
0700
0F00
0D80
0980
1880
18C0
10C0
3040
3060
6060
6030
4030
C030
ENDCHAR
STARTCHAR 039C
ENCODING 924
SWIDTH 822 0
DWIDTH 16 0
BBX 13 14 1 0
BITMAP
E018
F038
F028
D028
D868
D868
C848
CCC8
CCC8
C488
C788
C788
C308
C308
ENDCHAR
STARTCHAR 039D
ENCODING 925
SWIDTH 720 0
DWIDTH 14 0
BBX 11 14 1 0
BITMAP
E060
E060
F060
D860
D860
CC60
CC60
C660
C360
C360
C1E0
C0E0
C0E0
C060
ENDCHAR
STARTCHAR 039E
ENCODING 926
SWIDTH 617 0
DWIDTH 12 0
BBX 10 14 1 0
BITMAP
FFC0
FFC0
0000
0000
0000
0000
7F80
7F80
0000
0000
0000
0000
FFC0
FFC0
ENDCHAR
STARTCHAR 039F
ENCODING 927
SWIDTH 771 0
DWIDTH 15 0
BBX 13 14 1 0
BITMAP
0F80
3FE0
7070
6030
C018
C018
C018
C018
C018
C018
6030
7070
3FE0
0F80
ENDCHAR
STARTCHAR 03A0
ENCODING 928
SWIDTH 720 0
DWIDTH 14 0
BBX 10 14 2 0
BITMAP
FFC0
FFC0
80C0
80C0
80C0
80C0
80C0
80C0
80C0
80C0
80C0
80C0
80C0
80C0
ENDCHAR
STARTCHAR 03A1
ENCODING 929
SWIDTH 668 0
DWIDTH 13 0
BBX 11 14 1 0
BITMAP
FF80
FFC0
C0E0
C060
C060
C060
C0C0
FFC0
FF80
C000
C000
C000
C000
C000
ENDCHAR
STARTCHAR 03A3
ENCODING 931
SWIDTH 617 0
DWIDTH 12 0
BBX 10 14 1 0
BITMAP
FFC0
FFC0
6000
3000
1800
0C00
0600
0C00
1800
3800
7000
6000
FFC0
FFC0
ENDCHAR
STARTCHAR 03A4
ENCODING 932
SWIDTH 617 0
DWIDTH 12 0
BBX 11 14 0 0
BITMAP
FFE0
FFE0
0600
0600
0600
0600
0600
0600
0600
0600
0600
0600
0600
0600
ENDCHAR
STARTCHAR 03A5
ENCODING 933
SWIDTH 668 0
DWIDTH 13 0
BBX 12 14 0 0
BITMAP
E030
6070
3060
30C0
1880
0D80
0F00
0600
0600
0600
0600
0600
0600
0600
ENDCHAR
STARTCHAR 03A6
ENCODING 934
SWIDTH 771 0
DWIDTH 15 0
BBX 13 14 1 0
BITMAP
0200
0200
1FC0
7FF0
E238
C218
C218
C218
C218
E238
7FF0
1FC0
0200
0200
ENDCHAR
STARTCHAR 03A7
ENCODING 935
SWIDTH 668 0
DWIDTH 13 0
BBX 12 14 0 0
BITMAP
6030
3060
30C0
18C0
0D80
0F00
0700
0700
0D80
1980
18C0
3060
6070
E030
ENDCHAR
STARTCHAR 03A8
ENCODING 936
SWIDTH 822 0
DWIDTH 16 0
BBX 14 14 1 0
BITMAP
C30C
C30C
C30C
C30C
C30C
C30C
E318
7338
3FF0
1FE0
0300
0300
0300
0300
ENDCHAR
STARTCHAR 03A9
ENCODING 937
SWIDTH 720 0
DWIDTH 14 0
BBX 12 14 1 0
BITMAP
0F80
3FC0
70E0
6070
C030
C030
C030
C030
C030
4020
6060
30C0
F9F0
F9F0
ENDCHAR
STARTCHAR 03AA
ENCODING 938
SWIDTH 257 0
DWIDTH 5 0
BBX 5 17 0 0
BITMAP
D8
D8
00
30
30
30
30
30
30
30
30
30
30
30
30
30
30
ENDCHAR
STARTCHAR 03AB
ENCODING 939
SWIDTH 668 0
DWIDTH 13 0
BBX 12 17 0 0
BITMAP
0980
0980
0000
E030
6070
3060
30C0
1880
0D80
0F00
0600
0600
0600
0600
0600
0600
0600
ENDCHAR
STARTCHAR 03AC
ENCODING 940
SWIDTH 565 0
DWIDTH 11 0
BBX 9 14 1 0
BITMAP
0C00
0C00
0800
0000
3D80
7F80
C380
C300
C100
C100
C300
C380
7F80
3D80
ENDCHAR
STARTCHAR 03AD
ENCODING 941
SWIDTH 411 0
DWIDTH 8 0
BBX 7 14 1 0
BITMAP
18
18
10
00
78
7C
C4
C0
70
70
C0
C4
FE
78
ENDCHAR
STARTCHAR 03AE
ENCODING 942
SWIDTH 565 0
DWIDTH 11 0
BBX 8 18 1 -4
BITMAP
0C
0C
08
00
DE
FF
E3
C1
C1
C1
C1
C1
C1
C1
01
01
01
01
ENDCHAR
STARTCHAR 03AF
ENCODING 943
SWIDTH 205 0
DWIDTH 4 0
BBX 3 14 1 0
BITMAP
60
40
C0
00
C0
C0
C0
C0
C0
C0
C0
C0
C0
C0
ENDCHAR
STARTCHAR 03B0
ENCODING 944
SWIDTH 514 0
DWIDTH 10 0
BBX 8 14 1 0
BITMAP
0C
4B
53
00
C3
C3
C3
C3
C3
C3
C3
E3
7E
3C
ENDCHAR
STARTCHAR 03B1
ENCODING 945
SWIDTH 565 0
DWIDTH 11 0
BBX 9 10 1 0
BITMAP
3D80
7F80
C380
C300
C100
C100
C300
C380
7F80
3D80
ENDCHAR
STARTCHAR 03B2
ENCODING 946
SWIDTH 565 0
DWIDTH 11 0
BBX 9 18 1 -4
BITMAP
3E00
7F00
6300
C100
C300
DC00
DF00
C380
C180
C180
C180
E380
FF00
DE00
C000
C000
C000
C000
ENDCHAR
STARTCHAR 03B3
ENCODING 947
SWIDTH 514 0
DWIDTH 10 0
BBX 9 14 0 -4
BITMAP
C180
6180
6100
2300
3300
3200
1600
1E00
1C00
0C00
0C00
0C00
0C00
0C00
ENDCHAR
STARTCHAR 03B4
ENCODING 948
SWIDTH 565 0
DWIDTH 11 0
BBX 9 14 1 0
BITMAP
7F00
7F00
3000
1800
3E00
7F00
E300
C180
8180
8180
C180
E300
7F00
3C00
ENDCHAR
STARTCHAR 03B5
ENCODING 949
SWIDTH 411 0
DWIDTH 8 0
BBX 7 10 1 0
BITMAP
78
7C
C4
C0
70
70
C0
C4
FE
78
ENDCHAR
STARTCHAR 03B6
ENCODING 950
SWIDTH 411 0
DWIDTH 8 0
BBX 7 18 1 -4
BITMAP
7E
7E
0C
18
30
60
40
C0
C0
80
80
C0
FC
7E
06
06
0C
0C
ENDCHAR
STARTCHAR 03B7
ENCODING 951
SWIDTH 565 0
DWIDTH 11 0
BBX 8 14 1 -4
BITMAP
DE
FF
E3
C1
C1
C1
C1
C1
C1
C1
01
01
01
01
ENDCHAR
STARTCHAR 03B8
ENCODING 952
SWIDTH 565 0
DWIDTH 11 0
BBX 9 14 1 0
BITMAP
3C00
7E00
6300
C100
C180
C180
FF80
FF80
C180
C180
C100
6300
7E00
3C00
ENDCHAR
STARTCHAR 03B9
ENCODING 953
SWIDTH 205 0
DWIDTH 4 0
BBX 2 10 1 0
BITMAP
C0
C0
C0
C0
C0
C0
C0
C0
C0
C0
ENDCHAR
STARTCHAR 03BA
ENCODING 954
SWIDTH 514 0
DWIDTH 10 0
BBX 8 10 1 0
BITMAP
C7
CE
D8
F0
F0
D8
CC
CC
C6
C3
ENDCHAR
STARTCHAR 03BB
ENCODING 955
SWIDTH 514 0
DWIDTH 10 0
BBX 9 14 0 0
BITMAP
1000
1800
1800
0800
0C00
1C00
1E00
1600
3600
3300
6300
6100
6180
C180
ENDCHAR
STARTCHAR 03BC
ENCODING 956
SWIDTH 565 0
DWIDTH 11 0
BBX 8 14 1 -4
BITMAP
C1
C1
C1
C1
C1
C1
C1
E3
FF
DD
C0
C0
C0
C0
ENDCHAR
STARTCHAR 03BD
ENCODING 957
SWIDTH 514 0
DWIDTH 10 0
BBX 9 10 0 0
BITMAP
C180
6180
6100
2300
3300
3200
1600
1C00
1C00
0C00
ENDCHAR
STARTCHAR 03BE
ENCODING 958
SWIDTH 462 0
DWIDTH 9 0
BBX 7 18 1 -4
BITMAP
3C
7C
C0
C0
40
7C
1C
60
C0
C0
C0
C0
7C
3E
06
06
0E
0C
ENDCHAR
STARTCHAR 03BF
ENCODING 959
SWIDTH 565 0
DWIDTH 11 0
BBX 9 10 1 0
BITMAP
3C00
7F00
C300
C180
8180
8180
C180
C300
7F00
3C00
ENDCHAR
STARTCHAR 03C0
ENCODING 960
SWIDTH 668 0
DWIDTH 13 0
BBX 13 10 0 0
BITMAP
FFF8
FFF8
1840
1840
1840
1840
1840
1840
1840
1840
ENDCHAR
STARTCHAR 03C1
ENCODING 961
SWIDTH 565 0
DWIDTH 11 0
BBX 9 14 1 -4
BITMAP
3E00
7F00
6380
C180
C180
C180
C180
E380
FF00
DE00
C000
C000
C000
C000
ENDCHAR
STARTCHAR 03C2
ENCODING 962
SWIDTH 462 0
DWIDTH 9 0
BBX 8 14 1 -4
BITMAP
1F
3F
60
C0
C0
80
C0
E0
7C
3E
03
02
1E
1C
ENDCHAR
STARTCHAR 03C3
ENCODING 963
SWIDTH 617 0
DWIDTH 12 0
BBX 10 10 1 0
BITMAP
3FC0
7FC0
C300
C180
8180
8180
C180
C300
7F00
3E00
ENDCHAR
STARTCHAR 03C4
ENCODING 964
SWIDTH 411 0
DWIDTH 8 0
BBX 7 10 0 0
BITMAP
FE
FE
18
18
18
18
18
18
18
18
ENDCHAR
STARTCHAR 03C5
ENCODING 965
SWIDTH 514 0
DWIDTH 10 0
BBX 8 10 1 0
BITMAP
C3
C3
C3
C3
C3
C3
C3
E3
7E
3C
ENDCHAR
STARTCHAR 03C6
ENCODING 966
SWIDTH 617 0
DWIDTH 12 0
BBX 11 14 1 -4
BITMAP
3780
6FC0
CCC0
CC60
8C60
8C60
CCC0
EDC0
7F80
3F00
0C00
0C00
0C00
0C00
ENDCHAR
STARTCHAR 03C7
ENCODING 967
SWIDTH 514 0
DWIDTH 10 0
BBX 10 14 0 -4
BITMAP
6080
6180
3300
3300
1E00
1E00
0C00
0C00
1E00
1600
3300
2100
6180
C0C0
ENDCHAR
STARTCHAR 03C8
ENCODING 968
SWIDTH 720 0
DWIDTH 14 0
BBX 11 14 1 -4
BITMAP
C620
C620
C620
C620
C620
C620
C620
C660
66C0
3F80
0600
0600
0600
0600
ENDCHAR
STARTCHAR 03C9
ENCODING 969
SWIDTH 771 0
DWIDTH 15 0
BBX 13 10 1 0
BITMAP
6030
4010
C218
C218
C218
C218
C618
C538
7DF0
38E0
ENDCHAR
STARTCHAR 03CA
ENCODING 970
SWIDTH 205 0
DWIDTH 4 0
BBX 5 13 0 0
BITMAP
98
98
00
60
60
60
60
60
60
60
60
60
60
ENDCHAR
STARTCHAR 03CB
ENCODING 971
SWIDTH 514 0
DWIDTH 10 0
BBX 8 13 1 0
BITMAP
36
36
00
C3
C3
C3
C3
C3
C3
C3
E3
7E
3C
ENDCHAR
STARTCHAR 03CC
ENCODING 972
SWIDTH 565 0
DWIDTH 11 0
BBX 9 14 1 0
BITMAP
0C00
0C00
0800
0000
3C00
7F00
C300
C180
8180
8180
C180
C300
7F00
3C00
ENDCHAR
STARTCHAR 03CD
ENCODING 973
SWIDTH 514 0
DWIDTH 10 0
BBX 8 14 1 0
BITMAP
0C
0C
18
00
C3
C3
C3
C3
C3
C3
C3
E3
7E
3C
ENDCHAR
STARTCHAR 03CE
ENCODING 974
SWIDTH 771 0
DWIDTH 15 0
BBX 13 14 1 0
BITMAP
0180
0300
0200
0000
6030
4010
C218
C218
C218
C218
C618
C538
7DF0
38E0
ENDCHAR
STARTCHAR 0401
ENCODING 1025
SWIDTH 668 0
DWIDTH 13 0
BBX 11 17 1 0
BITMAP
1B00
1B00
0000
FFC0
FFC0
C000
C000
C000
C000
FFC0
FFC0
C000
C000
C000
C000
FFE0
FFE0
ENDCHAR
STARTCHAR 0402
ENCODING 1026
SWIDTH 822 0
DWIDTH 16 0
BBX 16 14 0 0
BITMAP
FFE0
FFE0
0600
0600
0600
06F8
07FE
0706
0603
0603
0603
0646
067E
063C
ENDCHAR
STARTCHAR 0403
ENCODING 1027
SWIDTH 514 0
DWIDTH 10 0
BBX 9 18 1 0
BITMAP
0C00
0C00
0800
0000
FF80
FF80
C000
C000
C000
C000
C000
C000
C000
C000
C000
C000
C000
C000
ENDCHAR
STARTCHAR 0404
ENCODING 1028
SWIDTH 720 0
DWIDTH 14 0
BBX 12 14 1 0
BITMAP
0F80
3FC0
70E0
6070
C020
C000
FE00
FE00
C000
C000
6030
7060
3FE0
0F80
ENDCHAR
STARTCHAR 0405
ENCODING 1029
SWIDTH 668 0
DWIDTH 13 0
BBX 11 14 1 0
BITMAP
1F00
7F80
60C0
C0C0
C000
7000
3F00
07C0
00C0
C060
C060
60C0
7FC0
1F00
ENDCHAR
STARTCHAR 0406
ENCODING 1030
SWIDTH 257 0
DWIDTH 5 0
BBX 2 14 2 0
BITMAP
C0
C0
C0
C0
C0
C0
C0
C0
C0
C0
C0
C0
C0
C0
ENDCHAR
STARTCHAR 0407
ENCODING 1031
SWIDTH 257 0
DWIDTH 5 0
BBX 5 17 0 0
BITMAP
D8
D8
00
30
30
30
30
30
30
30
30
30
30
30
30
30
30
ENDCHAR
STARTCHAR 0408
ENCODING 1032
SWIDTH 514 0
DWIDTH 10 0
BBX 7 14 1 0
BITMAP
06
06
06
06
06
06
06
06
06
06
86
C6
FC
78
ENDCHAR
STARTCHAR 0409
ENCODING 1033
SWIDTH 1028 0
DWIDTH 20 0
BBX 19 14 0 0
BITMAP
3FE000
3FE000
306000
306000
306000
306000
307F80
307FE0
306060
306060
306060
B06060
F07FE0
607F80
ENDCHAR
STARTCHAR 040A
ENCODING 1034
SWIDTH 977 0
DWIDTH 19 0
BBX 16 14 2 0
BITMAP
8300
8300
8300
8300
8300
8300
FFFE
FFFF
8303
8301
8301
8303
83FF
83FE
ENDCHAR
STARTCHAR 040B
ENCODING 1035
SWIDTH 822 0
DWIDTH 16 0
BBX 15 14 0 0
BITMAP
FFE0
FFE0
0600
0600
0600
06F8
07FC
0706
0606
0602
0602
0602
0602
0602
ENDCHAR
STARTCHAR 040C
ENCODING 1036
SWIDTH 565 0
DWIDTH 11 0
BBX 10 18 1 0
BITMAP
0600
0C00
0C00
0000
C1C0
C3C0
C300
C600
C600
CC00
F800
CC00
C600
C600
C300
C380
C180
C1C0
ENDCHAR
STARTCHAR 040E
ENCODING 1038
SWIDTH 617 0
DWIDTH 12 0
BBX 12 18 0 0
BITMAP
0880
0880
0700
0000
C030
6020
6060
3040
10C0
1880
0980
0D00
0700
0600
0600
0600
3C00
3800
ENDCHAR
STARTCHAR 040F
ENCODING 1039
SWIDTH 720 0
DWIDTH 14 0
BBX 11 18 1 -4
BITMAP
C060
C060
C060
C060
C060
C060
C060
C060
C060
C060
C060
C060
FFE0
FFE0
0600
0600
0600
0600
ENDCHAR
STARTCHAR 0410
ENCODING 1040
SWIDTH 668 0
DWIDTH 13 0
BBX 13 14 0 0
BITMAP
0600
0700
0F00
0D80
0980
1980
18C0
30C0
3FE0
3FE0
6060
6030
4030
C038
ENDCHAR
STARTCHAR 0411
ENCODING 1041
SWIDTH 617 0
DWIDTH 12 0
BBX 10 14 2 0
BITMAP
FF00
FF00
8000
8000
8000
8000
FF00
FF80
81C0
80C0
80C0
81C0
FF80
FF00
ENDCHAR
STARTCHAR 0412
ENCODING 1042
SWIDTH 668 0
DWIDTH 13 0
BBX 11 14 1 0
BITMAP
FF00
FF80
C0C0
C0C0
C0C0
C0C0
FF80
FF80
C0C0
C060
C060
C0C0
FFC0
FF80
ENDCHAR
STARTCHAR 0413
ENCODING 1043
SWIDTH 514 0
DWIDTH 10 0
BBX 9 14 1 0
BITMAP
FF80
FF80
C000
C000
C000
C000
C000
C000
C000
C000
C000
C000
C000
C000
ENDCHAR
STARTCHAR 0414
ENCODING 1044
SWIDTH 668 0
DWIDTH 13 0
BBX 12 17 0 -3
BITMAP
1FE0
1FE0
1060
1060
1060
1060
1060
3060
3060
3060
2060
6060
FFF0
FFF0
C010
C010
C010
ENDCHAR
STARTCHAR 0415
ENCODING 1045
SWIDTH 668 0
DWIDTH 13 0
BBX 11 14 1 0
BITMAP
FFC0
FFC0
C000
C000
C000
C000
FFC0
FFC0
C000
C000
C000
C000
FFE0
FFE0
ENDCHAR
STARTCHAR 0416
ENCODING 1046
SWIDTH 925 0
DWIDTH 18 0
BBX 17 14 0 0
BITMAP
E0C180
F0C380
30C600
18C600
18CC00
0CDC00
07F000
0CDC00
18CC00
18C600
30C700
70C300
60C380
E0C180
ENDCHAR
STARTCHAR 0417
ENCODING 1047
SWIDTH 565 0
DWIDTH 11 0
BBX 10 14 1 0
BITMAP
3E00
7F00
E380
C180
0180
0380
0F00
0F80
0180
00C0
C0C0
E180
7F80
3E00
ENDCHAR
STARTCHAR 0418
ENCODING 1048
SWIDTH 720 0
DWIDTH 14 0
BBX 11 14 1 0
BITMAP
C060
C0E0
C0E0
C1A0
C3A0
C320
C620
CE20
CC20
D820
D820
F020
E020
E020
ENDCHAR
STARTCHAR 0419
ENCODING 1049
SWIDTH 720 0
DWIDTH 14 0
BBX 11 18 1 0
BITMAP
1100
1900
0E00
0000
C060
C0E0
C0E0
C1A0
C3A0
C320
C620
CE20
CC20
D820
D820
F020
E020
E020
ENDCHAR
STARTCHAR 041A
ENCODING 1050
SWIDTH 565 0
DWIDTH 11 0
BBX 10 14 1 0
BITMAP
C1C0
C3C0
C300
C600
C600
CC00
F800
CC00
C600
C600
C300
C380
C180
C1C0
ENDCHAR
STARTCHAR 041B
ENCODING 1051
SWIDTH 617 0
DWIDTH 12 0
BBX 11 14 0 0
BITMAP
3FE0
3FE0
3060
3060
3060
3060
3060
3060
3060
3060
3060
B060
F060
6060
ENDCHAR
STARTCHAR 041C
ENCODING 1052
SWIDTH 822 0
DWIDTH 16 0
BBX 13 14 1 0
BITMAP
E018
F038
F028
D028
D868
D868
C848
CCC8
CCC8
C488
C788
C788
C308
C308
ENDCHAR
STARTCHAR 041D
ENCODING 1053
SWIDTH 720 0
DWIDTH 14 0
BBX 10 14 2 0
BITMAP
80C0
80C0
80C0
80C0
80C0
80C0
FFC0
FFC0
80C0
80C0
80C0
80C0
80C0
80C0
ENDCHAR
STARTCHAR 041E
ENCODING 1054
SWIDTH 771 0
DWIDTH 15 0
BBX 13 14 1 0
BITMAP
0F80
3FE0
7070
6030
C018
C018
C018
C018
C018
C018
6030
7070
3FE0
0F80
ENDCHAR
STARTCHAR 041F
ENCODING 1055
SWIDTH 720 0
DWIDTH 14 0
BBX 11 14 1 0
BITMAP
FFE0
FFE0
C060
C060
C060
C060
C060
C060
C060
C060
C060
C060
C060
C060
ENDCHAR
STARTCHAR 0420
ENCODING 1056
SWIDTH 668 0
DWIDTH 13 0
BBX 11 14 1 0
BITMAP
FF80
FFC0
C0E0
C060
C060
C060
C0C0
FFC0
FF80
C000
C000
C000
C000
C000
ENDCHAR
STARTCHAR 0421
ENCODING 1057
SWIDTH 720 0
DWIDTH 14 0
BBX 12 14 1 0
BITMAP
0F80
3FC0
70E0
6070
C000
C000
C000
C000
C000
C030
6070
70E0
3FC0
0F80
ENDCHAR
STARTCHAR 0422
ENCODING 1058
SWIDTH 617 0
DWIDTH 12 0
BBX 11 14 0 0
BITMAP
FFE0
FFE0
0600
0600
0600
0600
0600
0600
0600
0600
0600
0600
0600
0600
ENDCHAR
STARTCHAR 0423
ENCODING 1059
SWIDTH 617 0
DWIDTH 12 0
BBX 12 14 0 0
BITMAP
C030
6020
6060
3040
10C0
1880
0980
0D00
0700
0600
0600
0600
3C00
3800
ENDCHAR
STARTCHAR 0424
ENCODING 1060
SWIDTH 720 0
DWIDTH 14 0
BBX 13 14 1 0
BITMAP
0600
0600
1FC0
7FE0
E670
C630
C618
C618
C630
E670
7FE0
1FC0
0600
0600
ENDCHAR
STARTCHAR 0425
ENCODING 1061
SWIDTH 668 0
DWIDTH 13 0
BBX 12 14 0 0
BITMAP
6030
3060
30C0
18C0
0D80
0F00
0700
0700
0D80
1980
18C0
3060
6070
E030
ENDCHAR
STARTCHAR 0426
ENCODING 1062
SWIDTH 720 0
DWIDTH 14 0
BBX 12 18 1 -4
BITMAP
C060
C060
C060
C060
C060
C060
C060
C060
C060
C060
C060
C060
FFF0
FFF0
0010
0010
0010
0010
ENDCHAR
STARTCHAR 0427
ENCODING 1063
SWIDTH 668 0
DWIDTH 13 0
BBX 10 14 1 0
BITMAP
C0C0
C0C0
C0C0
C0C0
C0C0
C0C0
C0C0
E1C0
7FC0
3EC0
00C0
00C0
00C0
00C0
ENDCHAR
STARTCHAR 0428
ENCODING 1064
SWIDTH 874 0
DWIDTH 17 0
BBX 15 14 1 0
BITMAP
C186
C186
C186
C186
C186
C186
C186
C186
C186
C186
C186
C186
FFFE
FFFE
ENDCHAR
STARTCHAR 0429
ENCODING 1065
SWIDTH 925 0
DWIDTH 18 0
BBX 16 18 1 -4
BITMAP
C186
C186
C186
C186
C186
C186
C186
C186
C186
C186
C186
C186
FFFF
FFFF
0001
0001
0001
0001
ENDCHAR
STARTCHAR 042A
ENCODING 1066
SWIDTH 771 0
DWIDTH 15 0
BBX 14 14 0 0
BITMAP
FC00
FC00
0C00
0C00
0C00
0C00
0FF0
0FFC
0C0C
0C0C
0C0C
0C0C
0FFC
0FF0
ENDCHAR
STARTCHAR 042B
ENCODING 1067
SWIDTH 874 0
DWIDTH 17 0
BBX 13 14 2 0
BITMAP
8018
8018
8018
8018
8018
8018
FF18
FF98
81D8
80D8
80D8
81D8
FF98
FF18
ENDCHAR
STARTCHAR 042C
ENCODING 1068
SWIDTH 617 0
DWIDTH 12 0
BBX 10 14 2 0
BITMAP
8000
8000
8000
8000
8000
8000
FF00
FF80
81C0
80C0
80C0
8180
FF80
FF00
ENDCHAR
STARTCHAR 042D
ENCODING 1069
SWIDTH 720 0
DWIDTH 14 0
BBX 12 14 1 0
BITMAP
1F00
7FC0
60C0
C060
4060
0030
07F0
07F0
0030
0020
C060
E0E0
7FC0
1F00
ENDCHAR
STARTCHAR 042E
ENCODING 1070
SWIDTH 977 0
DWIDTH 19 0
BBX 16 14 2 0
BITMAP
80F8
83FC
870E
8607
8C03
8C03
FC03
FC03
8C03
8C03
8607
870E
83FC
80F8
ENDCHAR
STARTCHAR 042F
ENCODING 1071
SWIDTH 720 0
DWIDTH 14 0
BBX 11 14 1 0
BITMAP
3FE0
7FE0
6060
C060
C060
6060
7FE0
3FE0
1C60
3860
3060
6060
C060
C060
ENDCHAR
STARTCHAR 0430
ENCODING 1072
SWIDTH 565 0
DWIDTH 11 0
BBX 9 10 1 0
BITMAP
3E00
7F00
C300
0F00
7F00
F100
C300
C700
FF00
7D80
ENDCHAR
STARTCHAR 0431
ENCODING 1073
SWIDTH 565 0
DWIDTH 11 0
BBX 9 14 1 0
BITMAP
3F80
7F00
E000
C000
9E00
BF00
E380
C180
C180
C180
C180
6380
7F00
3E00
ENDCHAR
STARTCHAR 0432
ENCODING 1074
SWIDTH 514 0
DWIDTH 10 0
BBX 8 10 1 0
BITMAP
FE
FF
C3
C3
FE
FF
C3
C3
FF
FE
ENDCHAR
STARTCHAR 0433
ENCODING 1075
SWIDTH 360 0
DWIDTH 7 0
BBX 6 10 1 0
BITMAP
FC
FC
C0
C0
C0
C0
C0
C0
C0
C0
ENDCHAR
STARTCHAR 0434
ENCODING 1076
SWIDTH 565 0
DWIDTH 11 0
BBX 11 13 0 -3
BITMAP
1F80
1F80
3080
3080
3080
3080
2080
6080
FFE0
FFE0
8060
8060
8060
ENDCHAR
STARTCHAR 0435
ENCODING 1077
SWIDTH 565 0
DWIDTH 11 0
BBX 9 10 1 0
BITMAP
3C00
7F00
C300
C180
FF80
FF80
C000
C380
7F00
3E00
ENDCHAR
STARTCHAR 0436
ENCODING 1078
SWIDTH 668 0
DWIDTH 13 0
BBX 12 10 0 0
BITMAP
E630
E670
3660
16C0
0F80
16C0
3660
6620
6630
C610
ENDCHAR
STARTCHAR 0437
ENCODING 1079
SWIDTH 462 0
DWIDTH 9 0
BBX 7 10 1 0
BITMAP
78
FC
C6
06
3C
3C
06
86
FE
7C
ENDCHAR
STARTCHAR 0438
ENCODING 1080
SWIDTH 565 0
DWIDTH 11 0
BBX 8 10 1 0
BITMAP
C3
C3
C7
CD
C9
D9
D1
F1
E1
C1
ENDCHAR
STARTCHAR 0439
ENCODING 1081
SWIDTH 565 0
DWIDTH 11 0
BBX 8 14 1 0
BITMAP
22
22
1C
00
C3
C3
C7
CD
C9
D9
D1
F1
E1
C1
ENDCHAR
STARTCHAR 043A
ENCODING 1082
SWIDTH 411 0
DWIDTH 8 0
BBX 7 10 1 0
BITMAP
C6
CE
CC
D8
F0
D8
CC
CC
C6
C6
ENDCHAR
STARTCHAR 043B
ENCODING 1083
SWIDTH 565 0
DWIDTH 11 0
BBX 10 10 0 0
BITMAP
3FC0
3FC0
30C0
30C0
30C0
30C0
30C0
30C0
F0C0
E0C0
ENDCHAR
STARTCHAR 043C
ENCODING 1084
SWIDTH 668 0
DWIDTH 13 0
BBX 11 10 1 0
BITMAP
E0E0
E0E0
F1E0
D1E0
D160
DB60
CA60
CA60
CE60
C460
ENDCHAR
STARTCHAR 043D
ENCODING 1085
SWIDTH 565 0
DWIDTH 11 0
BBX 8 10 1 0
BITMAP
C1
C1
C1
C1
FF
FF
C1
C1
C1
C1
ENDCHAR
STARTCHAR 043E
ENCODING 1086
SWIDTH 565 0
DWIDTH 11 0
BBX 9 10 1 0
BITMAP
3C00
7F00
C300
C180
8180
8180
C180
C300
7F00
3C00
ENDCHAR
STARTCHAR 043F
ENCODING 1087
SWIDTH 514 0
DWIDTH 10 0
BBX 8 10 1 0
BITMAP
FF
FF
C3
C3
C3
C3
C3
C3
C3
C3
ENDCHAR
STARTCHAR 0440
ENCODING 1088
SWIDTH 565 0
DWIDTH 11 0
BBX 9 14 1 -4
BITMAP
DE00
FF00
E300
C180
C180
C180
C180
E300
FF00
DC00
C000
C000
C000
C000
ENDCHAR
STARTCHAR 0441
ENCODING 1089
SWIDTH 514 0
DWIDTH 10 0
BBX 8 10 1 0
BITMAP
3C
7F
E3
C0
80
80
C0
C3
7F
3C
ENDCHAR
STARTCHAR 0442
ENCODING 1090
SWIDTH 462 0
DWIDTH 9 0
BBX 8 10 0 0
BITMAP
FF
FF
08
08
08
08
08
08
08
08
ENDCHAR
STARTCHAR 0443
ENCODING 1091
SWIDTH 514 0
DWIDTH 10 0
BBX 8 14 1 -4
BITMAP
83
C3
C2
46
66
64
3C
3C
18
18
10
30
F0
E0
ENDCHAR
STARTCHAR 0444
ENCODING 1092
SWIDTH 822 0
DWIDTH 16 0
BBX 14 18 1 -4
BITMAP
0300
0300
0300
0300
3BF0
7FF8
C71C
C30C
830C
830C
C30C
C718
7FF8
3BF0
0300
0300
0300
0300
ENDCHAR
STARTCHAR 0445
ENCODING 1093
SWIDTH 514 0
DWIDTH 10 0
BBX 9 10 0 0
BITMAP
6180
6300
3600
1E00
0C00
1C00
1E00
3300
6300
E180
ENDCHAR
STARTCHAR 0446
ENCODING 1094
SWIDTH 565 0
DWIDTH 11 0
BBX 9 14 1 -4
BITMAP
C100
C100
C100
C100
C100
C100
C100
C100
FF80
FF80
0080
0080
0080
0080
ENDCHAR
STARTCHAR 0447
ENCODING 1095
SWIDTH 514 0
DWIDTH 10 0
BBX 8 10 1 0
BITMAP
83
83
83
83
C3
FF
7F
03
03
03
ENDCHAR
STARTCHAR 0448
ENCODING 1096
SWIDTH 771 0
DWIDTH 15 0
BBX 13 10 1 0
BITMAP
C218
C218
C218
C218
C218
C218
C218
C218
FFF8
FFF8
ENDCHAR
STARTCHAR 0449
ENCODING 1097
SWIDTH 822 0
DWIDTH 16 0
BBX 14 14 1 -4
BITMAP
C218
C218
C218
C218
C218
C218
C218
C218
FFFC
FFFC
0004
0004
0004
0004
ENDCHAR
STARTCHAR 044A
ENCODING 1098
SWIDTH 617 0
DWIDTH 12 0
BBX 11 10 0 0
BITMAP
F800
F800
1800
1800
1FC0
1FE0
1860
1860
1FE0
1FC0
ENDCHAR
STARTCHAR 044B
ENCODING 1099
SWIDTH 720 0
DWIDTH 14 0
BBX 11 10 1 0
BITMAP
C020
C020
C020
FE20
FF20
C320
C120
C320
FF20
FE20
ENDCHAR
STARTCHAR 044C
ENCODING 1100
SWIDTH 514 0
DWIDTH 10 0
BBX 8 10 1 0
BITMAP
C0
C0
C0
FE
FF
C3
C1
C3
FF
FE
ENDCHAR
STARTCHAR 044D
ENCODING 1101
SWIDTH 514 0
DWIDTH 10 0
BBX 8 10 1 0
BITMAP
7C
FE
C7
03
1F
1F
03
87
FE
7C
ENDCHAR
STARTCHAR 044E
ENCODING 1102
SWIDTH 720 0
DWIDTH 14 0
BBX 12 10 1 0
BITMAP
C3C0
C7E0
CE30
CC10
FC10
FC10
CC10
CE30
C7F0
C3C0
ENDCHAR
STARTCHAR 044F
ENCODING 1103
SWIDTH 514 0
DWIDTH 10 0
BBX 8 10 1 0
BITMAP
7F
FF
C3
C3
7F
1F
73
63
C3
C3
ENDCHAR
STARTCHAR 0451
ENCODING 1105
SWIDTH 565 0
DWIDTH 11 0
BBX 9 13 1 0
BITMAP
2600
2600
0000
3C00
7F00
C300
C180
FF80
FF80
C000
C380
7F00
3E00
ENDCHAR
STARTCHAR 0452
ENCODING 1106
SWIDTH 565 0
DWIDTH 11 0
BBX 9 18 0 -4
BITMAP
6000
FC00
FC00
6000
6F00
7F80
7180
6080
6080
6080
6080
6080
6080
6080
0080
0180
0380
0300
ENDCHAR
STARTCHAR 0453
ENCODING 1107
SWIDTH 360 0
DWIDTH 7 0
BBX 6 14 1 0
BITMAP
18
18
30
00
FC
FC
C0
C0
C0
C0
C0
C0
C0
C0
ENDCHAR
STARTCHAR 0454
ENCODING 1108
SWIDTH 514 0
DWIDTH 10 0
BBX 8 10 1 0
BITMAP
3C
7F
C3
C0
F8
F8
C0
C3
7F
3C
ENDCHAR
STARTCHAR 0455
ENCODING 1109
SWIDTH 514 0
DWIDTH 10 0
BBX 8 10 1 0
BITMAP
7C
FE
C6
E0
FC
3E
03
C3
FE
7C
ENDCHAR
STARTCHAR 0456
ENCODING 1110
SWIDTH 205 0
DWIDTH 4 0
BBX 2 14 1 0
BITMAP
C0
C0
00
00
C0
C0
C0
C0
C0
C0
C0
C0
C0
C0
ENDCHAR
STARTCHAR 0457
ENCODING 1111
SWIDTH 257 0
DWIDTH 5 0
BBX 5 13 0 0
BITMAP
C8
C8
00
30
30
30
30
30
30
30
30
30
30
ENDCHAR
STARTCHAR 0458
ENCODING 1112
SWIDTH 205 0
DWIDTH 4 0
BBX 4 18 -1 -4
BITMAP
30
30
00
00
30
30
30
30
30
30
30
30
30
30
30
30
F0
E0
ENDCHAR
STARTCHAR 0459
ENCODING 1113
SWIDTH 874 0
DWIDTH 17 0
BBX 17 10 0 0
BITMAP
3FC000
3FC000
30C000
30FE00
30FF00
30C300
30C180
30C300
F0FF00
E0FE00
ENDCHAR
STARTCHAR 045A
ENCODING 1114
SWIDTH 771 0
DWIDTH 15 0
BBX 14 10 1 0
BITMAP
C200
C200
C200
C200
FFF0
FFF8
C20C
C20C
C3F8
C3F0
ENDCHAR
STARTCHAR 045B
ENCODING 1115
SWIDTH 565 0
DWIDTH 11 0
BBX 9 14 0 0
BITMAP
6000
FC00
FC00
6000
6F00
7F80
7180
6080
6080
6080
6080
6080
6080
6080
ENDCHAR
STARTCHAR 045C
ENCODING 1116
SWIDTH 411 0
DWIDTH 8 0
BBX 7 14 1 0
BITMAP
18
18
30
00
C6
CE
CC
D8
F0
D8
CC
CC
C6
C6
ENDCHAR
STARTCHAR 045E
ENCODING 1118
SWIDTH 514 0
DWIDTH 10 0
BBX 8 18 1 -4
BITMAP
46
64
38
00
83
C3
C2
46
66
64
3C
3C
18
18
10
30
F0
E0
ENDCHAR
STARTCHAR 045F
ENCODING 1119
SWIDTH 565 0
DWIDTH 11 0
BBX 8 14 1 -4
BITMAP
C1
C1
C1
C1
C1
C1
C1
C1
FF
FF
08
08
08
08
ENDCHAR
STARTCHAR 0490
ENCODING 1168
SWIDTH 462 0
DWIDTH 9 0
BBX 8 17 1 0
BITMAP
03
03
03
FF
FF
C0
C0
C0
C0
C0
C0
C0
C0
C0
C0
C0
C0
ENDCHAR
STARTCHAR 0491
ENCODING 1169
SWIDTH 411 0
DWIDTH 8 0
BBX 6 14 1 0
BITMAP
04
04
04
04
FC
FC
C0
C0
C0
C0
C0
C0
C0
C0
ENDCHAR
STARTCHAR 0492
ENCODING 1170
SWIDTH 514 0
DWIDTH 10 0
BBX 10 14 0 0
BITMAP
7FC0
7FC0
6000
6000
6000
6000
FE00
FE00
6000
6000
6000
6000
6000
6000
ENDCHAR
STARTCHAR 0493
ENCODING 1171
SWIDTH 360 0
DWIDTH 7 0
BBX 7 10 0 0
BITMAP
7E
7E
60
F8
F8
60
60
60
60
60
ENDCHAR
STARTCHAR 0496
ENCODING 1174
SWIDTH 925 0
DWIDTH 18 0
BBX 17 18 0 -4
BITMAP
E0C380
F0C780
38C600
18CE00
1CCC00
0FF800
07F800
0CDC00
18CE00
38C600
30C700
70C300
60C380
E0C180
000080
000080
000080
000080
ENDCHAR
STARTCHAR 0497
ENCODING 1175
SWIDTH 668 0
DWIDTH 13 0
BBX 13 13 0 -3
BITMAP
E630
E670
3660
1FC0
1FC0
36E0
3660
6630
6638
C618
0018
0018
0018
ENDCHAR
STARTCHAR 049A
ENCODING 1178
SWIDTH 565 0
DWIDTH 11 0
BBX 10 18 1 -4
BITMAP
C1C0
C3C0
C700
C600
CE00
FC00
FC00
CE00
C600
C700
C300
C380
C1C0
C1C0
00C0
00C0
00C0
00C0
ENDCHAR
STARTCHAR 049B
ENCODING 1179
SWIDTH 411 0
DWIDTH 8 0
BBX 7 13 1 -3
BITMAP
C6
CE
D8
F8
F8
D8
CC
CC
C6
C6
02
02
02
ENDCHAR
STARTCHAR 049C
ENCODING 1180
SWIDTH 565 0
DWIDTH 11 0
BBX 10 14 1 0
BITMAP
C1C0
C3C0
DF00
DE00
DE00
FC00
FC00
DC00
DE00
DF00
DB00
DB80
C180
C1C0
ENDCHAR
STARTCHAR 049D
ENCODING 1181
SWIDTH 411 0
DWIDTH 8 0
BBX 7 10 1 0
BITMAP
C6
DE
D8
F8
F8
D8
DC
DC
C6
C6
ENDCHAR
STARTCHAR 04A2
ENCODING 1186
SWIDTH 720 0
DWIDTH 14 0
BBX 11 18 2 -4
BITMAP
80C0
80C0
80C0
80C0
80C0
FFC0
FFC0
80C0
80C0
80C0
80C0
80C0
80E0
80E0
0020
0020
0020
0020
ENDCHAR
STARTCHAR 04A3
ENCODING 1187
SWIDTH 565 0
DWIDTH 11 0
BBX 9 13 1 -3
BITMAP
C100
C100
C100
C100
FF00
FF00
C100
C100
C180
C180
0080
0080
0080
ENDCHAR
STARTCHAR 04AE
ENCODING 1198
SWIDTH 565 0
DWIDTH 11 0
BBX 10 14 0 0
BITMAP
C0C0
60C0
6180
3180
3300
1A00
0E00
0C00
0C00
0C00
0C00
0C00
0C00
0C00
ENDCHAR
STARTCHAR 04AF
ENCODING 1199
SWIDTH 514 0
DWIDTH 10 0
BBX 9 14 0 -4
BITMAP
C180
6180
6100
6300
3300
3600
1600
1E00
1C00
0C00
0C00
0C00
0C00
0C00
ENDCHAR
STARTCHAR 04B0
ENCODING 1200
SWIDTH 565 0
DWIDTH 11 0
BBX 10 14 0 0
BITMAP
C0C0
60C0
2180
3100
1B00
1E00
7FC0
7FC0
0C00
0C00
0C00
0C00
0C00
0C00
ENDCHAR
STARTCHAR 04B1
ENCODING 1201
SWIDTH 514 0
DWIDTH 10 0
BBX 9 14 0 -4
BITMAP
C180
6180
6100
6300
3300
3600
1600
1E00
1C00
0C00
7F80
7F80
0C00
0C00
ENDCHAR
STARTCHAR 04B2
ENCODING 1202
SWIDTH 668 0
DWIDTH 13 0
BBX 13 18 0 -4
BITMAP
6030
3060
38C0
18C0
0D80
0F00
0700
0700
0D80
1DC0
18C0
3060
6078
E038
0018
0018
0018
0018
ENDCHAR
STARTCHAR 04B3
ENCODING 1203
SWIDTH 514 0
DWIDTH 10 0
BBX 9 13 0 -3
BITMAP
6180
7300
3600
1E00
0C00
1E00
1E00
3300
6380
E180
0080
0080
0080
ENDCHAR
STARTCHAR 04B8
ENCODING 1208
SWIDTH 668 0
DWIDTH 13 0
BBX 10 14 1 0
BITMAP
C0C0
C0C0
C0C0
CCC0
CCC0
CCC0
EDC0
7FC0
3EC0
0CC0
0CC0
0CC0
00C0
00C0
ENDCHAR
STARTCHAR 04B9
ENCODING 1209
SWIDTH 514 0
DWIDTH 10 0
BBX 8 10 1 0
BITMAP
83
83
93
D3
FF
7F
13
13
03
03
ENDCHAR
STARTCHAR 04BA
ENCODING 1210
SWIDTH 668 0
DWIDTH 13 0
BBX 11 14 1 0
BITMAP
C000
C000
C000
C000
C000
DF80
FFC0
E0E0
C060
C060
C060
C060
C060
C060
ENDCHAR
STARTCHAR 04BB
ENCODING 1211
SWIDTH 565 0
DWIDTH 11 0
BBX 8 14 1 0
BITMAP
C0
C0
C0
C0
DE
FF
E3
C1
C1
C1
C1
C1
C1
C1
ENDCHAR
STARTCHAR 04D8
ENCODING 1240
SWIDTH 720 0
DWIDTH 14 0
BBX 12 14 1 0
BITMAP
0F80
3FC0
70E0
6030
6030
0030
FFF0
FFF0
C010
C030
6030
70E0
3FC0
1F80
ENDCHAR
STARTCHAR 04D9
ENCODING 1241
SWIDTH 565 0
DWIDTH 11 0
BBX 9 10 1 0
BITMAP
3E00
FF00
C300
0180
FF80
FF80
C180
C300
7F00
3E00
ENDCHAR
STARTCHAR 04E8
ENCODING 1256
SWIDTH 771 0
DWIDTH 15 0
BBX 13 14 1 0
BITMAP
0F80
3FE0
7070
6030
C018
C018
FFF8
FFF8
C018
C018
6030
7070
3FE0
0F80
ENDCHAR
STARTCHAR 04E9
ENCODING 1257
SWIDTH 565 0
DWIDTH 11 0
BBX 9 10 1 0
BITMAP
3E00
7F00
C300
C180
FF80
FF80
8180
C300
7F00
3C00
ENDCHAR
STARTCHAR 05B0
ENCODING 1456
SWIDTH 308 0
DWIDTH 6 0
BBX 2 3 2 -4
BITMAP
C0
00
C0
ENDCHAR
STARTCHAR 05B1
ENCODING 1457
SWIDTH 308 0
DWIDTH 6 0
BBX 6 3 0 -4
BITMAP
FC
00
6C
ENDCHAR
STARTCHAR 05B2
ENCODING 1458
SWIDTH 308 0
DWIDTH 6 0
BBX 6 3 0 -4
BITMAP
FC
00
0C
ENDCHAR
STARTCHAR 05B3
ENCODING 1459
SWIDTH 308 0
DWIDTH 6 0
BBX 6 3 0 -4
BITMAP
FC
60
0C
ENDCHAR
STARTCHAR 05B4
ENCODING 1460
SWIDTH 308 0
DWIDTH 6 0
BBX 2 1 2 -3
BITMAP
C0
ENDCHAR
STARTCHAR 05B5
ENCODING 1461
SWIDTH 308 0
DWIDTH 6 0
BBX 4 1 1 -3
BITMAP
D0
ENDCHAR
STARTCHAR 05B6
ENCODING 1462
SWIDTH 308 0
DWIDTH 6 0
BBX 4 3 1 -4
BITMAP
D0
00
60
ENDCHAR
STARTCHAR 05B7
ENCODING 1463
SWIDTH 308 0
DWIDTH 6 0
BBX 4 1 1 -3
BITMAP
F0
ENDCHAR
STARTCHAR 05B8
ENCODING 1464
SWIDTH 308 0
DWIDTH 6 0
BBX 4 3 1 -4
BITMAP
F0
20
20
ENDCHAR
STARTCHAR 05B9
ENCODING 1465
SWIDTH 308 0
DWIDTH 6 0
BBX 2 1 2 11
BITMAP
C0
ENDCHAR
STARTCHAR 05BA
ENCODING 1466
SWIDTH 308 0
DWIDTH 6 0
BBX 2 1 2 11
BITMAP
C0
ENDCHAR
STARTCHAR 05BB
ENCODING 1467
SWIDTH 308 0
DWIDTH 6 0
BBX 6 3 0 -4
BITMAP
C0
30
04
ENDCHAR
STARTCHAR 05BC
ENCODING 1468
SWIDTH 308 0
DWIDTH 6 0
BBX 2 1 2 5
BITMAP
C0
ENDCHAR
STARTCHAR 05BD
ENCODING 1469
SWIDTH 308 0
DWIDTH 6 0
BBX 1 3 3 -4
BITMAP
80
80
80
ENDCHAR
STARTCHAR 05BE
ENCODING 1470
SWIDTH 360 0
DWIDTH 7 0
BBX 5 2 1 8
BITMAP
F8
F8
ENDCHAR
STARTCHAR 05BF
ENCODING 1471
SWIDTH 308 0
DWIDTH 6 0
BBX 4 1 1 12
BITMAP
F0
ENDCHAR
STARTCHAR 05C0
ENCODING 1472
SWIDTH 257 0
DWIDTH 5 0
BBX 1 12 2 0
BITMAP
80
80
80
80
80
80
80
80
80
80
80
80
ENDCHAR
STARTCHAR 05C1
ENCODING 1473
SWIDTH 308 0
DWIDTH 6 0
BBX 2 1 7 12
BITMAP
C0
ENDCHAR
STARTCHAR 05C2
ENCODING 1474
SWIDTH 308 0
DWIDTH 6 0
BBX 1 1 -2 12
BITMAP
80
ENDCHAR
STARTCHAR 05C3
ENCODING 1475
SWIDTH 257 0
DWIDTH 5 0
BBX 2 10 2 0
BITMAP
C0
C0
00
00
00
00
00
00
C0
C0
ENDCHAR
STARTCHAR 05D0
ENCODING 1488
SWIDTH 565 0
DWIDTH 11 0
BBX 9 10 1 0
BITMAP
E180
6100
3300
3B00
7F00
4E00
C600
C600
C300
C180
ENDCHAR
STARTCHAR 05D1
ENCODING 1489
SWIDTH 514 0
DWIDTH 10 0
BBX 10 10 0 0
BITMAP
7C00
7E00
0700
0300
0100
0100
0100
0100
FFC0
FFC0
ENDCHAR
STARTCHAR 05D2
ENCODING 1490
SWIDTH 411 0
DWIDTH 8 0
BBX 7 10 0 0
BITMAP
78
7C
0C
0C
0C
1C
3C
64
66
C6
ENDCHAR
STARTCHAR 05D3
ENCODING 1491
SWIDTH 514 0
DWIDTH 10 0
BBX 9 10 0 0
BITMAP
FF80
FF80
0300
0300
0300
0300
0300
0300
0300
0300
ENDCHAR
STARTCHAR 05D4
ENCODING 1492
SWIDTH 565 0
DWIDTH 11 0
BBX 9 10 1 0
BITMAP
FE00
7F00
0380
0180
C180
C180
C180
C180
C180
C180
ENDCHAR
STARTCHAR 05D5
ENCODING 1493
SWIDTH 257 0
DWIDTH 5 0
BBX 2 10 1 0
BITMAP
C0
C0
C0
C0
C0
C0
C0
C0
C0
C0
ENDCHAR
STARTCHAR 05D6
ENCODING 1494
SWIDTH 360 0
DWIDTH 7 0
BBX 6 10 1 0
BITMAP
FC
FC
30
60
60
60
60
60
60
60
ENDCHAR
STARTCHAR 05D7
ENCODING 1495
SWIDTH 565 0
DWIDTH 11 0
BBX 9 10 1 0
BITMAP
FE00
FF00
C380
C180
C180
C180
C180
C180
C180
C180
ENDCHAR
STARTCHAR 05D8
ENCODING 1496
SWIDTH 565 0
DWIDTH 11 0
BBX 9 10 1 0
BITMAP
C700
CF80
C980
C180
C180
C180
C180
6380
7F00
1E00
ENDCHAR
STARTCHAR 05D9
ENCODING 1497
SWIDTH 257 0
DWIDTH 5 0
BBX 2 5 1 5
BITMAP
C0
C0
C0
C0
C0
ENDCHAR
STARTCHAR 05DA
ENCODING 1498
SWIDTH 514 0
DWIDTH 10 0
BBX 8 14 0 -4
BITMAP
FC
FE
07
03
01
01
01
01
01
01
01
01
01
01
ENDCHAR
STARTCHAR 05DB
ENCODING 1499
SWIDTH 462 0
DWIDTH 9 0
BBX 7 10 1 0
BITMAP
F0
FC
0C
06
06
06
06
0C
FC
F0
ENDCHAR
STARTCHAR 05DC
ENCODING 1500
SWIDTH 462 0
DWIDTH 9 0
BBX 7 14 1 0
BITMAP
80
80
80
80
FE
FE
06
06
04
0C
18
18
18
18
ENDCHAR
STARTCHAR 05DD
ENCODING 1501
SWIDTH 565 0
DWIDTH 11 0
BBX 9 10 1 0
BITMAP
FE00
FF00
C380
C180
C180
C180
C180
C180
FF80
FF80
ENDCHAR
STARTCHAR 05DE
ENCODING 1502
SWIDTH 565 0
DWIDTH 11 0
BBX 9 10 1 0
BITMAP
CE00
DF00
7180
6180
6180
6180
4180
4180
CF80
CF80
ENDCHAR
STARTCHAR 05DF
ENCODING 1503
SWIDTH 257 0
DWIDTH 5 0
BBX 2 14 1 -4
BITMAP
C0
C0
C0
C0
C0
C0
C0
C0
C0
C0
C0
C0
C0
C0
ENDCHAR
STARTCHAR 05E0
ENCODING 1504
SWIDTH 360 0
DWIDTH 7 0
BBX 4 10 1 0
BITMAP
E0
F0
30
10
10
10
10
10
F0
F0
ENDCHAR
STARTCHAR 05E1
ENCODING 1505
SWIDTH 565 0
DWIDTH 11 0
BBX 9 10 1 0
BITMAP
3E00
7F00
E380
C180
C180
C180
C180
E380
7F00
3E00
ENDCHAR
STARTCHAR 05E2
ENCODING 1506
SWIDTH 514 0
DWIDTH 10 0
BBX 9 11 0 -1
BITMAP
6180
2180
3180
3180
3180
3180
1300
1700
1E00
FC00
E000
ENDCHAR
STARTCHAR 05E3
ENCODING 1507
SWIDTH 565 0
DWIDTH 11 0
BBX 8 14 1 -4
BITMAP
FC
FF
C3
C3
C1
C1
71
01
01
01
01
01
01
01
ENDCHAR
STARTCHAR 05E4
ENCODING 1508
SWIDTH 514 0
DWIDTH 10 0
BBX 9 10 1 0
BITMAP
FC00
FE00
C700
C300
C180
7180
0300
8700
FE00
7C00
ENDCHAR
STARTCHAR 05E5
ENCODING 1509
SWIDTH 462 0
DWIDTH 9 0
BBX 8 14 0 -4
BITMAP
C3
63
23
33
16
1C
18
18
18
18
18
18
18
18
ENDCHAR
STARTCHAR 05E6
ENCODING 1510
SWIDTH 462 0
DWIDTH 9 0
BBX 8 10 0 0
BITMAP
C3
63
33
33
1E
0C
04
06
7F
7F
ENDCHAR
STARTCHAR 05E7
ENCODING 1511
SWIDTH 514 0
DWIDTH 10 0
BBX 8 14 1 -4
BITMAP
FF
FF
01
01
43
43
46
44
44
44
40
40
40
40
ENDCHAR
STARTCHAR 05E8
ENCODING 1512
SWIDTH 514 0
DWIDTH 10 0
BBX 8 10 0 0
BITMAP
FC
FE
07
03
01
01
01
01
01
01
ENDCHAR
STARTCHAR 05E9
ENCODING 1513
SWIDTH 668 0
DWIDTH 13 0
BBX 11 10 1 0
BITMAP
C460
C460
C460
CC60
CC60
F860
40C0
61C0
3F80
1F00
ENDCHAR
STARTCHAR 05EA
ENCODING 1514
SWIDTH 617 0
DWIDTH 12 0
BBX 11 10 0 0
BITMAP
7F80
7FC0
18E0
1860
1860
1860
1860
1860
7860
F060
ENDCHAR
STARTCHAR 05F0
ENCODING 1520
SWIDTH 462 0
DWIDTH 9 0
BBX 7 10 1 0
BITMAP
C6
C6
C6
C6
C6
C6
C6
C6
C6
C6
ENDCHAR
STARTCHAR 05F1
ENCODING 1521
SWIDTH 462 0
DWIDTH 9 0
BBX 7 10 1 0
BITMAP
C6
C6
C6
C6
C6
06
06
06
06
06
ENDCHAR
STARTCHAR 05F2
ENCODING 1522
SWIDTH 462 0
DWIDTH 9 0
BBX 7 5 1 5
BITMAP
C6
C6
C6
C6
C6
ENDCHAR
STARTCHAR 05F3
ENCODING 1523
SWIDTH 205 0
DWIDTH 4 0
BBX 2 4 1 6
BITMAP
40
C0
C0
80
ENDCHAR
STARTCHAR 05F4
ENCODING 1524
SWIDTH 411 0
DWIDTH 8 0
BBX 6 4 1 6
BITMAP
4C
C8
C8
98
ENDCHAR
STARTCHAR 060C
ENCODING 1548
SWIDTH 308 0
DWIDTH 6 0
BBX 3 6 2 3
BITMAP
40
80
80
C0
E0
C0
ENDCHAR
STARTCHAR 061B
ENCODING 1563
SWIDTH 308 0
DWIDTH 6 0
BBX 3 9 1 3
BITMAP
20
40
80
E0
60
60
00
60
60
ENDCHAR
STARTCHAR 061F
ENCODING 1567
SWIDTH 360 0
DWIDTH 7 0
BBX 5 11 1 3
BITMAP
70
C8
98
D8
C0
60
20
20
00
60
60
ENDCHAR
STARTCHAR 0621
ENCODING 1569
SWIDTH 411 0
DWIDTH 8 0
BBX 6 8 1 1
BITMAP
30
70
40
CC
FC
70
60
40
ENDCHAR
STARTCHAR 0622
ENCODING 1570
SWIDTH 205 0
DWIDTH 4 0
BBX 4 14 0 2
BITMAP
F0
00
00
40
60
20
20
20
20
20
20
20
20
20
ENDCHAR
STARTCHAR 0623
ENCODING 1571
SWIDTH 205 0
DWIDTH 4 0
BBX 2 14 1 2
BITMAP
40
80
C0
80
00
00
80
C0
40
40
40
40
40
40
ENDCHAR
STARTCHAR 0624
ENCODING 1572
SWIDTH 411 0
DWIDTH 8 0
BBX 8 16 0 -2
BITMAP
0C
10
0C
10
00
03
07
05
05
07
03
01
01
02
86
7C
ENDCHAR
STARTCHAR 0625
ENCODING 1573
SWIDTH 205 0
DWIDTH 4 0
BBX 3 16 0 -2
BITMAP
40
60
20
20
20
20
20
20
20
20
20
00
60
80
60
80
ENDCHAR
STARTCHAR 0626
ENCODING 1574
SWIDTH 617 0
DWIDTH 12 0
BBX 12 12 0 -1
BITMAP
2000
4000
6060
40F0
0100
0200
43E0
81E0
8020
C1C0
7F80
3E00
ENDCHAR
STARTCHAR 0627
ENCODING 1575
SWIDTH 205 0
DWIDTH 4 0
BBX 2 11 1 3
BITMAP
80
C0
40
40
40
40
40
40
40
40
40
ENDCHAR
STARTCHAR 0628
ENCODING 1576
SWIDTH 720 0
DWIDTH 14 0
BBX 13 9 1 0
BITMAP
8010
8010
8010
8008
FFF8
7FF8
0000
0600
0600
ENDCHAR
STARTCHAR 0629
ENCODING 1577
SWIDTH 257 0
DWIDTH 5 0
BBX 5 11 0 3
BITMAP
10
D0
C0
00
20
30
78
48
48
78
70
ENDCHAR
STARTCHAR 062A
ENCODING 1578
SWIDTH 720 0
DWIDTH 14 0
BBX 13 9 1 3
BITMAP
0300
0F00
0C00
8010
8010
8010
8008
FFF8
7FF8
ENDCHAR
STARTCHAR 062B
ENCODING 1579
SWIDTH 720 0
DWIDTH 14 0
BBX 13 10 1 3
BITMAP
0400
0700
0F00
0C00
8010
8010
8010
8008
FFF8
7FF8
ENDCHAR
STARTCHAR 062C
ENCODING 1580
SWIDTH 565 0
DWIDTH 11 0
BBX 9 12 0 -4
BITMAP
3F80
7F80
0C00
3000
4000
8600
8600
8000
4000
7000
3F80
1F00
ENDCHAR
STARTCHAR 062D
ENCODING 1581
SWIDTH 565 0
DWIDTH 11 0
BBX 9 12 0 -4
BITMAP
3F80
7F80
0C00
3000
4000
8000
8000
8000
4000
7000
3F80
1F00
ENDCHAR
STARTCHAR 062E
ENCODING 1582
SWIDTH 565 0
DWIDTH 11 0
BBX 9 16 0 -4
BITMAP
0C00
0400
0000
0000
3F80
7F80
0C00
3000
4000
8000
8000
8000
4000
7000
3F80
1F00
ENDCHAR
STARTCHAR 062F
ENCODING 1583
SWIDTH 308 0
DWIDTH 6 0
BBX 5 8 1 3
BITMAP
20
30
18
08
08
08
F8
F8
ENDCHAR
STARTCHAR 0630
ENCODING 1584
SWIDTH 308 0
DWIDTH 6 0
BBX 5 12 1 3
BITMAP
40
60
00
00
20
30
18
08
08
08
F8
F8
ENDCHAR
STARTCHAR 0631
ENCODING 1585
SWIDTH 462 0
DWIDTH 9 0
BBX 8 10 1 -2
BITMAP
02
03
01
01
01
01
01
03
8E
78
ENDCHAR
STARTCHAR 0632
ENCODING 1586
SWIDTH 462 0
DWIDTH 9 0
BBX 8 14 1 -2
BITMAP
04
04
00
00
02
03
01
01
01
01
01
03
8E
78
ENDCHAR
STARTCHAR 0633
ENCODING 1587
SWIDTH 822 0
DWIDTH 16 0
BBX 15 9 1 -1
BITMAP
0104
0182
0092
80FE
80FE
8080
8180
FF00
7C00
ENDCHAR
STARTCHAR 0634
ENCODING 1588
SWIDTH 822 0
DWIDTH 16 0
BBX 15 14 1 -1
BITMAP
0030
0038
0028
0020
0000
0104
0182
0092
80FE
80FE
8080
8180
FF00
7C00
ENDCHAR
STARTCHAR 0635
ENCODING 1589
SWIDTH 1080 0
DWIDTH 21 0
BBX 20 9 1 -1
BITMAP
0101E0
0187F0
008C30
80FFF0
80FFF0
808000
810000
FF0000
7C0000
ENDCHAR
STARTCHAR 0636
ENCODING 1590
SWIDTH 1080 0
DWIDTH 21 0
BBX 20 12 1 -1
BITMAP
000800
000800
000000
0101E0
0187F0
008C30
80FFF0
80FFF0
808000
810000
FF0000
7C0000
ENDCHAR
STARTCHAR 0637
ENCODING 1591
SWIDTH 565 0
DWIDTH 11 0
BBX 12 11 -1 4
BITMAP
1800
1800
0800
0800
0800
08E0
0BF0
0630
0830
FFF0
FFF0
ENDCHAR
STARTCHAR 0638
ENCODING 1592
SWIDTH 565 0
DWIDTH 11 0
BBX 12 11 -1 4
BITMAP
1800
1880
0880
0800
0800
08E0
0BF0
0630
0830
FFF0
FFF0
ENDCHAR
STARTCHAR 0639
ENCODING 1593
SWIDTH 514 0
DWIDTH 10 0
BBX 9 16 0 -4
BITMAP
3800
7C00
6000
8000
8100
6700
7C00
3000
2000
4000
8000
8000
C000
6000
7F80
1F00
ENDCHAR
STARTCHAR 063A
ENCODING 1594
SWIDTH 514 0
DWIDTH 10 0
BBX 9 20 0 -4
BITMAP
1000
1000
0000
0000
3800
7C00
6000
8000
8100
6700
7C00
3000
2000
4000
8000
8000
C000
6000
7F80
1F00
ENDCHAR
STARTCHAR 0640
ENCODING 1600
SWIDTH 205 0
DWIDTH 4 0
BBX 5 2 -1 3
BITMAP
F8
F8
ENDCHAR
STARTCHAR 0641
ENCODING 1601
SWIDTH 771 0
DWIDTH 15 0
BBX 15 10 0 3
BITMAP
0018
0018
0000
0000
400C
800E
801A
C00E
7FFE
3FFE
ENDCHAR
STARTCHAR 0642
ENCODING 1602
SWIDTH 565 0
DWIDTH 11 0
BBX 10 14 1 -1
BITMAP
0100
0580
0400
0000
0000
0180
03C0
02C0
83C0
83C0
8040
80C0
FF80
7F00
ENDCHAR
STARTCHAR 0643
ENCODING 1603
SWIDTH 565 0
DWIDTH 11 0
BBX 11 12 0 3
BITMAP
0040
0060
0060
0240
0420
0720
0120
0120
9E20
C020
7FE0
7FE0
ENDCHAR
STARTCHAR 0644
ENCODING 1604
SWIDTH 514 0
DWIDTH 10 0
BBX 9 15 1 0
BITMAP
0200
0300
0100
0100
0100
0100
0100
0100
8100
8080
8080
8080
8300
FF00
7E00
ENDCHAR
STARTCHAR 0645
ENCODING 1605
SWIDTH 308 0
DWIDTH 6 0
BBX 6 11 0 -4
BITMAP
38
3C
0C
3C
7C
C0
80
80
40
40
40
ENDCHAR
STARTCHAR 0646
ENCODING 1606
SWIDTH 514 0
DWIDTH 10 0
BBX 9 12 1 -1
BITMAP
0800
0800
0000
0000
0080
0080
8080
8080
8080
8180
FF00
7E00
ENDCHAR
STARTCHAR 0647
ENCODING 1607
SWIDTH 257 0
DWIDTH 5 0
BBX 4 7 1 3
BITMAP
40
E0
F0
90
90
F0
E0
ENDCHAR
STARTCHAR 0648
ENCODING 1608
SWIDTH 411 0
DWIDTH 8 0
BBX 8 11 0 -2
BITMAP
03
07
05
05
07
03
01
01
02
86
7C
ENDCHAR
STARTCHAR 0649
ENCODING 1609
SWIDTH 617 0
DWIDTH 12 0
BBX 12 10 0 -1
BITMAP
0060
00F0
0100
0200
43E0
81E0
8020
C1C0
7F80
3E00
ENDCHAR
STARTCHAR 064A
ENCODING 1610
SWIDTH 617 0
DWIDTH 12 0
BBX 12 13 0 -4
BITMAP
0060
00F0
0100
0200
43E0
81E0
8020
C1C0
7F80
3E00
0300
0B00
0800
ENDCHAR
STARTCHAR 064B
ENCODING 1611
SWIDTH 205 0
DWIDTH 4 0
BBX 3 4 1 12
BITMAP
60
80
60
80
ENDCHAR
STARTCHAR 064C
ENCODING 1612
SWIDTH 257 0
DWIDTH 5 0
BBX 3 5 1 12
BITMAP
20
60
A0
E0
C0
ENDCHAR
STARTCHAR 064D
ENCODING 1613
SWIDTH 205 0
DWIDTH 4 0
BBX 3 4 1 -3
BITMAP
60
80
60
80
ENDCHAR
STARTCHAR 064E
ENCODING 1614
SWIDTH 205 0
DWIDTH 4 0
BBX 3 2 1 12
BITMAP
60
80
ENDCHAR
STARTCHAR 064F
ENCODING 1615
SWIDTH 205 0
DWIDTH 4 0
BBX 3 5 1 12
BITMAP
60
60
60
60
80
ENDCHAR
STARTCHAR 0650
ENCODING 1616
SWIDTH 205 0
DWIDTH 4 0
BBX 3 2 1 0
BITMAP
60
80
ENDCHAR
STARTCHAR 0651
ENCODING 1617
SWIDTH 205 0
DWIDTH 4 0
BBX 3 3 1 12
BITMAP
40
60
80
ENDCHAR
STARTCHAR 0652
ENCODING 1618
SWIDTH 154 0
DWIDTH 3 0
BBX 2 3 1 12
BITMAP
C0
C0
C0
ENDCHAR
STARTCHAR 0653
ENCODING 1619
SWIDTH 205 0
DWIDTH 4 0
BBX 4 2 0 13
BITMAP
C0
70
ENDCHAR
STARTCHAR 0654
ENCODING 1620
SWIDTH 205 0
DWIDTH 4 0
BBX 2 4 1 13
BITMAP
40
80
C0
80
ENDCHAR
STARTCHAR 0655
ENCODING 1621
SWIDTH 205 0
DWIDTH 4 0
BBX 2 4 1 -3
BITMAP
40
80
C0
80
ENDCHAR
STARTCHAR 0660
ENCODING 1632
SWIDTH 514 0
DWIDTH 10 0
BBX 3 4 4 4
BITMAP
80
E0
C0
40
ENDCHAR
STARTCHAR 0661
ENCODING 1633
SWIDTH 514 0
DWIDTH 10 0
BBX 3 10 3 3
BITMAP
80
C0
C0
60
60
20
20
20
20
20
ENDCHAR
STARTCHAR 0662
ENCODING 1634
SWIDTH 514 0
DWIDTH 10 0
BBX 5 11 2 3
BITMAP
80
C8
F8
78
60
20
30
10
10
10
10
ENDCHAR
STARTCHAR 0663
ENCODING 1635
SWIDTH 514 0
DWIDTH 10 0
BBX 8 10 1 4
BITMAP
CD
7F
76
20
20
10
10
10
10
10
ENDCHAR
STARTCHAR 0664
ENCODING 1636
SWIDTH 514 0
DWIDTH 10 0
BBX 4 11 3 3
BITMAP
10
20
40
80
F0
60
40
40
C0
F0
70
ENDCHAR
STARTCHAR 0665
ENCODING 1637
SWIDTH 514 0
DWIDTH 10 0
BBX 6 8 2 5
BITMAP
30
78
9C
84
84
84
F8
F0
ENDCHAR
STARTCHAR 0666
ENCODING 1638
SWIDTH 514 0
DWIDTH 10 0
BBX 6 11 2 3
BITMAP
80
F0
F0
10
10
10
10
18
08
0C
04
ENDCHAR
STARTCHAR 0667
ENCODING 1639
SWIDTH 514 0
DWIDTH 10 0
BBX 8 10 1 3
BITMAP
81
C1
C3
62
24
24
18
18
18
08
ENDCHAR
STARTCHAR 0668
ENCODING 1640
SWIDTH 514 0
DWIDTH 10 0
BBX 8 10 1 4
BITMAP
10
18
28
28
24
26
46
C3
81
81
ENDCHAR
STARTCHAR 0669
ENCODING 1641
SWIDTH 514 0
DWIDTH 10 0
BBX 6 11 2 3
BITMAP
30
70
98
88
F8
78
08
08
08
0C
08
ENDCHAR
STARTCHAR 066A
ENCODING 1642
SWIDTH 514 0
DWIDTH 10 0
BBX 8 13 1 2
BITMAP
63
62
06
04
0C
08
18
10
30
20
60
46
C6
ENDCHAR
STARTCHAR 066B
ENCODING 1643
SWIDTH 308 0
DWIDTH 6 0
BBX 2 5 2 1
BITMAP
C0
C0
C0
40
80
ENDCHAR
STARTCHAR 066C
ENCODING 1644
SWIDTH 308 0
DWIDTH 6 0
BBX 3 6 2 3
BITMAP
40
80
80
C0
E0
C0
ENDCHAR
STARTCHAR 066D
ENCODING 1645
SWIDTH 514 0
DWIDTH 10 0
BBX 6 7 2 7
BITMAP
20
E8
50
FC
70
E8
20
ENDCHAR
STARTCHAR 066E
ENCODING 1646
SWIDTH 720 0
DWIDTH 14 0
BBX 13 6 1 3
BITMAP
8010
8010
8010
8008
FFF8
7FF8
ENDCHAR
STARTCHAR 066F
ENCODING 1647
SWIDTH 565 0
DWIDTH 11 0
BBX 10 9 1 -1
BITMAP
0180
03C0
02C0
83C0
83C0
8040
80C0
FF80
7F00
ENDCHAR
STARTCHAR 0670
ENCODING 1648
SWIDTH 0 0
DWIDTH 0 0
BBX 1 4 0 11
BITMAP
80
80
80
80
ENDCHAR
STARTCHAR 0671
ENCODING 1649
SWIDTH 205 0
DWIDTH 4 0
BBX 4 15 0 2
BITMAP
30
F0
80
00
40
60
20
20
20
20
20
20
20
20
20
ENDCHAR
STARTCHAR 0672
ENCODING 1650
SWIDTH 205 0
DWIDTH 4 0
BBX 3 15 0 2
BITMAP
20
40
E0
00
40
60
20
20
20
20
20
20
20
20
20
ENDCHAR
STARTCHAR 0673
ENCODING 1651
SWIDTH 205 0
DWIDTH 4 0
BBX 3 15 0 -1
BITMAP
40
60
20
20
20
20
20
20
20
20
20
00
20
40
E0
ENDCHAR
STARTCHAR 0674
ENCODING 1652
SWIDTH 205 0
DWIDTH 4 0
BBX 2 4 1 13
BITMAP
40
80
C0
80
ENDCHAR
STARTCHAR 0675
ENCODING 1653
SWIDTH 205 0
DWIDTH 4 0
BBX 4 12 1 2
BITMAP
10
A0
D0
60
40
40
40
40
40
40
40
40
ENDCHAR
STARTCHAR 0676
ENCODING 1654
SWIDTH 411 0
DWIDTH 8 0
BBX 9 16 0 -2
BITMAP
0080
0100
0080
0100
0000
0300
0700
0500
0500
0700
0300
0100
0100
0200
8600
7C00
ENDCHAR
STARTCHAR 0677
ENCODING 1655
SWIDTH 411 0
DWIDTH 8 0
BBX 9 16 0 -2
BITMAP
0C80
0D00
0C80
0D00
1000
0300
0700
0500
0500
0700
0300
0100
0100
0200
8600
7C00
ENDCHAR
STARTCHAR 0678
ENCODING 1656
SWIDTH 617 0
DWIDTH 12 0
BBX 12 15 0 -1
BITMAP
0010
0020
0010
0020
0000
0060
00F0
0100
0200
43E0
81E0
8020
C1C0
7F80
3E00
ENDCHAR
STARTCHAR 0679
ENCODING 1657
SWIDTH 720 0
DWIDTH 14 0
BBX 13 13 1 3
BITMAP
0400
0800
0400
0780
0480
1F80
0000
8010
8010
8010
8008
FFF8
7FF8
ENDCHAR
STARTCHAR 067A
ENCODING 1658
SWIDTH 720 0
DWIDTH 14 0
BBX 13 11 1 3
BITMAP
0400
0400
0600
0200
0000
8010
8010
8010
8008
FFF8
7FF8
ENDCHAR
STARTCHAR 067B
ENCODING 1659
SWIDTH 720 0
DWIDTH 14 0
BBX 13 11 1 -2
BITMAP
8010
8010
8010
8008
FFF8
7FF8
0000
0200
0200
0200
0200
ENDCHAR
STARTCHAR 067C
ENCODING 1660
SWIDTH 720 0
DWIDTH 14 0
BBX 13 11 1 1
BITMAP
0300
0F00
0C00
8010
8010
8010
8008
FFF8
7FF8
0500
0600
ENDCHAR
STARTCHAR 067D
ENCODING 1661
SWIDTH 720 0
DWIDTH 14 0
BBX 13 11 1 3
BITMAP
0300
0F00
0E00
0200
0000
8010
8010
8010
8008
FFF8
7FF8
ENDCHAR
STARTCHAR 067E
ENCODING 1662
SWIDTH 720 0
DWIDTH 14 0
BBX 13 11 1 -2
BITMAP
8010
8010
8010
8008
FFF8
7FF8
0000
0100
0500
0700
0300
ENDCHAR
STARTCHAR 067F
ENCODING 1663
SWIDTH 720 0
DWIDTH 14 0
BBX 13 11 1 3
BITMAP
0200
0A00
0900
0D00
0C00
8010
8010
8010
8008
FFF8
7FF8
ENDCHAR
STARTCHAR 0680
ENCODING 1664
SWIDTH 720 0
DWIDTH 14 0
BBX 13 12 1 -3
BITMAP
8010
8010
8010
8008
FFF8
7FF8
0000
0300
0D00
0D00
0500
0400
ENDCHAR
STARTCHAR 0681
ENCODING 1665
SWIDTH 565 0
DWIDTH 11 0
BBX 9 17 0 -4
BITMAP
0600
0800
0600
0800
0000
3F80
7F80
0C00
3000
4000
8000
8000
8000
4000
7000
3F80
1F00
ENDCHAR
STARTCHAR 0682
ENCODING 1666
SWIDTH 565 0
DWIDTH 11 0
BBX 9 18 0 -4
BITMAP
0C00
0C00
0400
0400
0000
0000
3F80
7F80
0C00
3000
4000
8000
8000
8000
4000
7000
3F80
1F00
ENDCHAR
STARTCHAR 0683
ENCODING 1667
SWIDTH 565 0
DWIDTH 11 0
BBX 9 12 0 -4
BITMAP
3F80
7F80
0C00
3000
4000
8300
8B00
8800
4000
7000
3F80
1F00
ENDCHAR
STARTCHAR 0684
ENCODING 1668
SWIDTH 565 0
DWIDTH 11 0
BBX 9 12 0 -4
BITMAP
3F80
7F80
0C00
3000
4000
8400
8400
8600
4600
7000
3F80
1F00
ENDCHAR
STARTCHAR 0685
ENCODING 1669
SWIDTH 565 0
DWIDTH 11 0
BBX 9 18 0 -4
BITMAP
0800
0A00
0A00
0800
0000
0000
3F80
7F80
0C00
3000
4000
8000
8000
8000
4000
7000
3F80
1F00
ENDCHAR
STARTCHAR 0686
ENCODING 1670
SWIDTH 565 0
DWIDTH 11 0
BBX 9 12 0 -4
BITMAP
3F80
7F80
0C00
3000
4200
8B00
8A00
8200
4000
7000
3F80
1F00
ENDCHAR
STARTCHAR 0687
ENCODING 1671
SWIDTH 565 0
DWIDTH 11 0
BBX 9 12 0 -4
BITMAP
3F80
7F80
0C00
3000
4300
8B00
8D00
8500
4400
7000
3F80
1F00
ENDCHAR
STARTCHAR 0688
ENCODING 1672
SWIDTH 308 0
DWIDTH 6 0
BBX 6 15 0 3
BITMAP
20
20
20
2C
34
FC
00
10
18
0C
04
04
04
7C
7C
ENDCHAR
STARTCHAR 0689
ENCODING 1673
SWIDTH 308 0
DWIDTH 6 0
BBX 5 10 1 1
BITMAP
20
30
18
08
08
08
F8
F8
50
30
ENDCHAR
STARTCHAR 068A
ENCODING 1674
SWIDTH 308 0
DWIDTH 6 0
BBX 5 11 1 0
BITMAP
20
30
18
08
08
08
F8
F8
00
20
30
ENDCHAR
STARTCHAR 068B
ENCODING 1675
SWIDTH 308 0
DWIDTH 6 0
BBX 6 18 0 0
BITMAP
20
20
20
2C
34
FC
00
10
18
0C
04
04
04
7C
7C
00
10
18
ENDCHAR
STARTCHAR 068C
ENCODING 1676
SWIDTH 308 0
DWIDTH 6 0
BBX 5 12 1 3
BITMAP
30
D0
C0
00
20
30
18
08
08
08
F8
F8
ENDCHAR
STARTCHAR 068D
ENCODING 1677
SWIDTH 308 0
DWIDTH 6 0
BBX 5 12 1 -1
BITMAP
20
30
18
08
08
08
F8
F8
00
10
50
40
ENDCHAR
STARTCHAR 068E
ENCODING 1678
SWIDTH 308 0
DWIDTH 6 0
BBX 5 13 1 3
BITMAP
40
50
50
40
00
20
30
18
08
08
08
F8
F8
ENDCHAR
STARTCHAR 068F
ENCODING 1679
SWIDTH 308 0
DWIDTH 6 0
BBX 5 13 1 3
BITMAP
20
A0
A0
20
00
20
30
18
08
08
08
F8
F8
ENDCHAR
STARTCHAR 0690
ENCODING 1680
SWIDTH 308 0
DWIDTH 6 0
BBX 5 14 1 3
BITMAP
30
B0
90
50
40
00
20
30
18
08
08
08
F8
F8
ENDCHAR
STARTCHAR 0691
ENCODING 1681
SWIDTH 462 0
DWIDTH 9 0
BBX 8 17 1 -2
BITMAP
08
10
08
0F
09
3F
00
02
03
01
01
01
01
01
03
8E
78
ENDCHAR
STARTCHAR 0692
ENCODING 1682
SWIDTH 462 0
DWIDTH 9 0
BBX 8 13 1 -2
BITMAP
0A
04
00
02
03
01
01
01
01
01
03
8E
78
ENDCHAR
STARTCHAR 0693
ENCODING 1683
SWIDTH 462 0
DWIDTH 9 0
BBX 8 11 1 -3
BITMAP
02
03
01
01
01
01
01
03
8F
7D
03
ENDCHAR
STARTCHAR 0694
ENCODING 1684
SWIDTH 462 0
DWIDTH 9 0
BBX 8 11 1 -3
BITMAP
02
03
01
01
01
01
01
03
8E
79
01
ENDCHAR
STARTCHAR 0695
ENCODING 1685
SWIDTH 462 0
DWIDTH 9 0
BBX 8 12 1 -4
BITMAP
02
03
01
01
01
01
01
03
8E
78
05
02
ENDCHAR
STARTCHAR 0696
ENCODING 1686
SWIDTH 462 0
DWIDTH 9 0
BBX 8 11 1 -3
BITMAP
02
03
01
01
11
11
01
03
8E
79
01
ENDCHAR
STARTCHAR 0697
ENCODING 1687
SWIDTH 462 0
DWIDTH 9 0
BBX 8 14 1 -2
BITMAP
06
1E
18
00
02
03
01
01
01
01
01
03
8E
78
ENDCHAR
STARTCHAR 0698
ENCODING 1688
SWIDTH 462 0
DWIDTH 9 0
BBX 8 15 1 -2
BITMAP
0C
0F
0B
08
00
02
03
01
01
01
01
01
03
8E
78
ENDCHAR
STARTCHAR 0699
ENCODING 1689
SWIDTH 462 0
DWIDTH 9 0
BBX 8 16 1 -2
BITMAP
04
14
16
1A
18
00
02
03
01
01
01
01
01
03
8E
78
ENDCHAR
STARTCHAR 069A
ENCODING 1690
SWIDTH 822 0
DWIDTH 16 0
BBX 15 12 1 -1
BITMAP
0020
0030
0000
0104
0182
0092
80FE
80FE
8080
8188
FF08
7C00
ENDCHAR
STARTCHAR 069B
ENCODING 1691
SWIDTH 822 0
DWIDTH 16 0
BBX 15 10 1 -2
BITMAP
0104
0182
0092
80FE
80FE
8080
8184
FF14
7C14
0004
ENDCHAR
STARTCHAR 069C
ENCODING 1692
SWIDTH 822 0
DWIDTH 16 0
BBX 15 15 1 -2
BITMAP
0060
0070
0050
0040
0000
0104
0182
0092
80FE
80FE
8080
8184
FF14
7C14
0004
ENDCHAR
STARTCHAR 069D
ENCODING 1693
SWIDTH 1080 0
DWIDTH 21 0
BBX 20 9 1 -1
BITMAP
0101E0
0187F0
008C30
80FFF0
80FFF0
808000
810100
FF0500
7C0400
ENDCHAR
STARTCHAR 069E
ENCODING 1694
SWIDTH 1080 0
DWIDTH 21 0
BBX 20 14 1 -1
BITMAP
000400
000500
000500
000400
000000
0101E0
0187F0
008C30
80FFF0
80FFF0
808000
810000
FF0000
7C0000
ENDCHAR
STARTCHAR 069F
ENCODING 1695
SWIDTH 565 0
DWIDTH 11 0
BBX 12 11 -1 4
BITMAP
1880
18E0
09E0
0980
0800
08E0
0BF0
0630
0830
FFF0
FFF0
ENDCHAR
STARTCHAR 06A0
ENCODING 1696
SWIDTH 514 0
DWIDTH 10 0
BBX 9 21 0 -4
BITMAP
2000
2800
2800
2000
0000
3800
7C00
6000
8000
8100
6700
7C00
3000
2000
4000
8000
8000
C000
6000
7F80
1F00
ENDCHAR
STARTCHAR 06A1
ENCODING 1697
SWIDTH 771 0
DWIDTH 15 0
BBX 15 6 0 3
BITMAP
400C
800E
801A
C00E
7FFE
3FFE
ENDCHAR
STARTCHAR 06A2
ENCODING 1698
SWIDTH 771 0
DWIDTH 15 0
BBX 15 9 0 0
BITMAP
400C
800E
801A
C00E
7FFE
3FFE
0000
0004
0004
ENDCHAR
STARTCHAR 06A3
ENCODING 1699
SWIDTH 771 0
DWIDTH 15 0
BBX 15 12 0 0
BITMAP
0008
0008
0000
400C
800E
801A
C00E
7FFE
3FFE
0000
0180
0080
ENDCHAR
STARTCHAR 06A4
ENCODING 1700
SWIDTH 771 0
DWIDTH 15 0
BBX 15 11 0 3
BITMAP
0010
001C
0014
0010
0000
400C
800E
801A
C00E
7FFE
3FFE
ENDCHAR
STARTCHAR 06A5
ENCODING 1701
SWIDTH 771 0
DWIDTH 15 0
BBX 15 11 0 -2
BITMAP
400C
800E
801A
C00E
7FFE
3FFE
0000
0002
000A
000A
0002
ENDCHAR
STARTCHAR 06A6
ENCODING 1702
SWIDTH 771 0
DWIDTH 15 0
BBX 15 12 0 3
BITMAP
0004
0014
0014
0014
0010
0000
400C
800E
801A
C00E
7FFE
3FFE
ENDCHAR
STARTCHAR 06A7
ENCODING 1703
SWIDTH 565 0
DWIDTH 11 0
BBX 10 13 1 -1
BITMAP
0300
0300
0000
0000
0180
03C0
02C0
83C0
83C0
8040
80C0
FF80
7F00
ENDCHAR
STARTCHAR 06A8
ENCODING 1704
SWIDTH 565 0
DWIDTH 11 0
BBX 10 14 1 -1
BITMAP
0400
0700
0500
0400
0000
0180
03C0
02C0
83C0
83C0
8040
80C0
FF80
7F00
ENDCHAR
STARTCHAR 06A9
ENCODING 1705
SWIDTH 771 0
DWIDTH 15 0
BBX 15 11 0 3
BITMAP
0006
001E
0078
0040
0060
0070
0018
8004
8002
FFFE
7FFE
ENDCHAR
STARTCHAR 06AA
ENCODING 1706
SWIDTH 771 0
DWIDTH 15 0
BBX 15 10 0 3
BITMAP
0080
0380
0E00
1000
1F00
8FF8
80FE
C002
FFFE
7FFE
ENDCHAR
STARTCHAR 06AB
ENCODING 1707
SWIDTH 771 0
DWIDTH 15 0
BBX 15 11 0 3
BITMAP
0006
001E
007A
004C
0060
0070
0018
8004
8002
FFFE
7FFE
ENDCHAR
STARTCHAR 06AC
ENCODING 1708
SWIDTH 565 0
DWIDTH 11 0
BBX 11 12 0 3
BITMAP
0640
0660
0060
0240
0420
0720
0120
0120
9E20
C020
7FE0
7FE0
ENDCHAR
STARTCHAR 06AD
ENCODING 1709
SWIDTH 565 0
DWIDTH 11 0
BBX 11 13 0 3
BITMAP
0C00
0E40
0B60
0860
0240
0420
0720
0120
0120
9E20
C020
7FE0
7FE0
ENDCHAR
STARTCHAR 06AE
ENCODING 1710
SWIDTH 565 0
DWIDTH 11 0
BBX 11 17 0 -2
BITMAP
0040
0060
0060
0240
0420
0720
0120
0120
9E20
C020
7FE0
7FE0
0000
0300
0F00
0E00
0200
ENDCHAR
STARTCHAR 06AF
ENCODING 1711
SWIDTH 771 0
DWIDTH 15 0
BBX 15 14 0 3
BITMAP
0002
000E
0038
0066
009E
0078
0040
0060
0070
0018
8004
8002
FFFE
7FFE
ENDCHAR
STARTCHAR 06B0
ENCODING 1712
SWIDTH 771 0
DWIDTH 15 0
BBX 15 14 0 3
BITMAP
0002
000E
0038
0066
009E
007A
004C
0060
0070
0018
8004
8002
FFFE
7FFE
ENDCHAR
STARTCHAR 06B1
ENCODING 1713
SWIDTH 771 0
DWIDTH 15 0
BBX 15 14 0 3
BITMAP
0012
004E
0038
0066
009E
0078
0040
0060
0070
0018
8004
8002
FFFE
7FFE
ENDCHAR
STARTCHAR 06B2
ENCODING 1714
SWIDTH 771 0
DWIDTH 15 0
BBX 15 18 0 -1
BITMAP
0002
000E
0038
0066
009E
0078
0040
0060
0070
0018
8004
8002
FFFE
7FFE
0000
0040
0140
0100
ENDCHAR
STARTCHAR 06B3
ENCODING 1715
SWIDTH 771 0
DWIDTH 15 0
BBX 15 19 0 -2
BITMAP
0002
000E
0038
0066
009E
0078
0040
0060
0070
0018
8004
8002
FFFE
7FFE
0000
0080
0080
0080
0080
ENDCHAR
STARTCHAR 06B4
ENCODING 1716
SWIDTH 771 0
DWIDTH 15 0
BBX 15 14 0 3
BITMAP
0042
001E
0078
0066
009E
0078
0040
0060
0070
0018
8004
8002
FFFE
7FFE
ENDCHAR
STARTCHAR 06B5
ENCODING 1717
SWIDTH 514 0
DWIDTH 10 0
BBX 9 17 1 0
BITMAP
0500
0200
0000
0300
0100
0100
0100
0100
0100
0100
8100
8080
8080
8080
8300
FF00
7E00
ENDCHAR
STARTCHAR 06B6
ENCODING 1718
SWIDTH 514 0
DWIDTH 10 0
BBX 9 17 1 0
BITMAP
0300
0300
0000
0300
0100
0100
0100
0100
0100
0100
8100
8080
8080
8080
8300
FF00
7E00
ENDCHAR
STARTCHAR 06B7
ENCODING 1719
SWIDTH 514 0
DWIDTH 10 0
BBX 9 17 1 0
BITMAP
0600
0100
0400
0300
0100
0100
0100
0100
0100
0100
8100
8080
8080
8080
8300
FF00
7E00
ENDCHAR
STARTCHAR 06B8
ENCODING 1720
SWIDTH 514 0
DWIDTH 10 0
BBX 9 19 1 -4
BITMAP
0200
0300
0100
0100
0100
0100
0100
0100
8100
8080
8080
8080
8300
FF00
7E00
0400
2C00
3C00
0C00
ENDCHAR
STARTCHAR 06B9
ENCODING 1721
SWIDTH 514 0
DWIDTH 10 0
BBX 9 15 1 -4
BITMAP
0800
0800
0000
0000
0080
0080
8080
8080
8080
8180
FF00
7E00
0000
0800
0800
ENDCHAR
STARTCHAR 06BA
ENCODING 1722
SWIDTH 514 0
DWIDTH 10 0
BBX 9 8 1 0
BITMAP
0080
0080
8080
8080
8080
8180
FF00
7E00
ENDCHAR
STARTCHAR 06BB
ENCODING 1723
SWIDTH 514 0
DWIDTH 10 0
BBX 9 16 1 -1
BITMAP
1000
1000
1000
1600
1A00
3E00
0000
0000
0080
0080
8080
8080
8080
8180
FF00
7E00
ENDCHAR
STARTCHAR 06BC
ENCODING 1724
SWIDTH 514 0
DWIDTH 10 0
BBX 9 14 1 -3
BITMAP
0800
0800
0000
0000
0080
0080
8080
8080
8080
8180
FF00
7E00
2800
1800
ENDCHAR
STARTCHAR 06BD
ENCODING 1725
SWIDTH 514 0
DWIDTH 10 0
BBX 9 14 1 -1
BITMAP
1000
1400
3400
1000
0000
0000
0080
0080
8080
8080
8080
8180
FF00
7E00
ENDCHAR
STARTCHAR 06BE
ENCODING 1726
SWIDTH 462 0
DWIDTH 9 0
BBX 8 8 -1 3
BITMAP
08
1C
1C
26
27
19
FF
E7
ENDCHAR
STARTCHAR 06BF
ENCODING 1727
SWIDTH 565 0
DWIDTH 11 0
BBX 9 16 0 -4
BITMAP
0C00
0400
0000
0000
3F80
7F80
0C00
3000
4200
8B00
8A00
8200
4000
7000
3F80
1F00
ENDCHAR
STARTCHAR 06C0
ENCODING 1728
SWIDTH 257 0
DWIDTH 5 0
BBX 4 12 1 3
BITMAP
60
80
60
80
00
40
E0
F0
90
90
F0
E0
ENDCHAR
STARTCHAR 06C1
ENCODING 1729
SWIDTH 360 0
DWIDTH 7 0
BBX 7 5 0 2
BITMAP
18
3C
6E
46
80
ENDCHAR
STARTCHAR 06C2
ENCODING 1730
SWIDTH 360 0
DWIDTH 7 0
BBX 7 10 0 2
BITMAP
10
20
10
20
00
18
3C
6E
46
80
ENDCHAR
STARTCHAR 06C3
ENCODING 1731
SWIDTH 360 0
DWIDTH 7 0
BBX 7 9 0 2
BITMAP
08
28
20
00
18
3C
6E
46
80
ENDCHAR
STARTCHAR 06C4
ENCODING 1732
SWIDTH 411 0
DWIDTH 8 0
BBX 8 11 0 -2
BITMAP
03
07
05
05
07
03
01
0D
16
8E
7C
ENDCHAR
STARTCHAR 06C5
ENCODING 1733
SWIDTH 411 0
DWIDTH 8 0
BBX 8 11 0 -2
BITMAP
03
07
05
05
07
03
19
07
02
86
7C
ENDCHAR
STARTCHAR 06C6
ENCODING 1734
SWIDTH 411 0
DWIDTH 8 0
BBX 8 14 0 -2
BITMAP
05
02
00
03
07
05
05
07
03
01
01
02
86
7C
ENDCHAR
STARTCHAR 06C7
ENCODING 1735
SWIDTH 411 0
DWIDTH 8 0
BBX 8 17 0 -2
BITMAP
03
03
03
03
04
00
03
07
05
05
07
03
01
01
02
86
7C
ENDCHAR
STARTCHAR 06C8
ENCODING 1736
SWIDTH 411 0
DWIDTH 8 0
BBX 8 17 0 -1
BITMAP
02
02
02
02
02
00
03
07
05
05
07
03
01
01
02
86
7C
ENDCHAR
STARTCHAR 06C9
ENCODING 1737
SWIDTH 411 0
DWIDTH 8 0
BBX 8 14 0 -2
BITMAP
02
05
00
03
07
05
05
07
03
01
01
02
86
7C
ENDCHAR
STARTCHAR 06CA
ENCODING 1738
SWIDTH 411 0
DWIDTH 8 0
BBX 8 15 0 -2
BITMAP
03
0F
0C
00
03
07
05
05
07
03
01
01
02
86
7C
ENDCHAR
STARTCHAR 06CB
ENCODING 1739
SWIDTH 411 0
DWIDTH 8 0
BBX 8 16 0 -2
BITMAP
04
07
0D
0C
00
03
07
05
05
07
03
01
01
02
86
7C
ENDCHAR
STARTCHAR 06CC
ENCODING 1740
SWIDTH 617 0
DWIDTH 12 0
BBX 12 10 0 -1
BITMAP
0060
00F0
0100
0200
43E0
81E0
8020
C1C0
7F80
3E00
ENDCHAR
STARTCHAR 06CD
ENCODING 1741
SWIDTH 617 0
DWIDTH 12 0
BBX 13 10 -1 -1
BITMAP
0030
0078
0080
2100
E1F0
40F0
4010
60E0
3FC0
1F00
ENDCHAR
STARTCHAR 06CE
ENCODING 1742
SWIDTH 617 0
DWIDTH 12 0
BBX 12 11 0 -1
BITMAP
0C00
0860
00F0
0100
0200
43E0
81E0
8020
C1C0
7F80
3E00
ENDCHAR
STARTCHAR 06CF
ENCODING 1743
SWIDTH 411 0
DWIDTH 8 0
BBX 8 14 0 -2
BITMAP
04
04
00
03
07
05
05
07
03
01
01
02
86
7C
ENDCHAR
STARTCHAR 06D0
ENCODING 1744
SWIDTH 617 0
DWIDTH 12 0
BBX 12 13 0 -4
BITMAP
0060
00F0
0100
0200
43E0
81E0
8020
C1C0
7F80
3E00
0000
0400
0400
ENDCHAR
STARTCHAR 06D1
ENCODING 1745
SWIDTH 617 0
DWIDTH 12 0
BBX 12 13 0 -4
BITMAP
0060
00F0
0100
0200
43E0
81E0
8020
C1C0
7F80
3E00
0000
0A00
0600
ENDCHAR
STARTCHAR 06D2
ENCODING 1746
SWIDTH 771 0
DWIDTH 15 0
BBX 14 7 1 0
BITMAP
0600
0E00
3800
7000
8000
FFFC
FFF8
ENDCHAR
STARTCHAR 06D3
ENCODING 1747
SWIDTH 771 0
DWIDTH 15 0
BBX 14 10 1 0
BITMAP
0800
3000
1800
2600
0E00
3800
7000
8000
FFFC
FFF8
ENDCHAR
STARTCHAR 06D4
ENCODING 1748
SWIDTH 205 0
DWIDTH 4 0
BBX 4 2 0 3
BITMAP
F0
F0
ENDCHAR
STARTCHAR 06D5
ENCODING 1749
SWIDTH 257 0
DWIDTH 5 0
BBX 4 7 1 3
BITMAP
40
E0
F0
90
90
F0
E0
ENDCHAR
STARTCHAR 06D6
ENCODING 1750
SWIDTH 0 0
DWIDTH 0 0
BBX 8 7 -4 10
BITMAP
20
20
20
23
7F
80
FE
ENDCHAR
STARTCHAR 06D7
ENCODING 1751
SWIDTH 0 0
DWIDTH 0 0
BBX 7 7 -3 10
BITMAP
28
30
38
24
7C
80
FE
ENDCHAR
STARTCHAR 06D8
ENCODING 1752
SWIDTH 0 0
DWIDTH 0 0
BBX 4 3 -2 10
BITMAP
20
50
F0
ENDCHAR
STARTCHAR 06D9
ENCODING 1753
SWIDTH 0 0
DWIDTH 0 0
BBX 4 6 -2 10
BITMAP
90
D0
50
20
60
60
ENDCHAR
STARTCHAR 06DA
ENCODING 1754
SWIDTH 0 0
DWIDTH 0 0
BBX 4 5 -2 10
BITMAP
F0
80
A0
80
F0
ENDCHAR
STARTCHAR 06DB
ENCODING 1755
SWIDTH 0 0
DWIDTH 0 0
BBX 2 2 -1 10
BITMAP
80
C0
ENDCHAR
STARTCHAR 06DC
ENCODING 1756
SWIDTH 0 0
DWIDTH 0 0
BBX 8 5 -4 10
BITMAP
08
09
87
88
70
ENDCHAR
STARTCHAR 06DD
ENCODING 1757
SWIDTH 1080 0
DWIDTH 21 0
BBX 21 21 0 -4
BITMAP
00FC00
0F0380
13FE80
1C01C0
100060
200020
400010
400010
400008
400008
800008
400008
400008
400010
400010
200020
100060
1C01C0
13FE80
0F0380
00FC00
ENDCHAR
STARTCHAR 06DE
ENCODING 1758
SWIDTH 1080 0
DWIDTH 21 0
BBX 20 21 0 -4
BITMAP
002000
005000
008800
1FFF80
120480
140280
180180
100080
307040
5090A0
909090
5090A0
307040
100080
180180
140280
120480
1FFF80
008800
005000
002000
ENDCHAR
STARTCHAR 06DF
ENCODING 1759
SWIDTH 0 0
DWIDTH 0 0
BBX 2 1 -1 10
BITMAP
C0
ENDCHAR
STARTCHAR 06E0
ENCODING 1760
SWIDTH 0 0
DWIDTH 0 0
BBX 2 1 -1 10
BITMAP
C0
ENDCHAR
STARTCHAR 06E1
ENCODING 1761
SWIDTH 0 0
DWIDTH 0 0
BBX 6 3 -3 10
BITMAP
30
18
FC
ENDCHAR
STARTCHAR 06E2
ENCODING 1762
SWIDTH 0 0
DWIDTH 0 0
BBX 2 5 -1 10
BITMAP
40
C0
C0
80
80
ENDCHAR
STARTCHAR 06E3
ENCODING 1763
SWIDTH 0 0
DWIDTH 0 0
BBX 8 5 -4 -4
BITMAP
08
09
87
88
70
ENDCHAR
STARTCHAR 06E4
ENCODING 1764
SWIDTH 0 0
DWIDTH 0 0
BBX 2 1 -1 10
BITMAP
C0
ENDCHAR
STARTCHAR 06E5
ENCODING 1765
SWIDTH 205 0
DWIDTH 4 0
BBX 3 4 1 10
BITMAP
60
60
40
C0
ENDCHAR
STARTCHAR 06E6
ENCODING 1766
SWIDTH 360 0
DWIDTH 7 0
BBX 7 4 0 10
BITMAP
10
70
80
FE
ENDCHAR
STARTCHAR 06E7
ENCODING 1767
SWIDTH 0 0
DWIDTH 0 0
BBX 7 4 -4 10
BITMAP
10
20
C0
FE
ENDCHAR
STARTCHAR 06E8
ENCODING 1768
SWIDTH 0 0
DWIDTH 0 0
BBX 4 6 -2 10
BITMAP
20
00
10
90
90
F0
ENDCHAR
STARTCHAR 06E9
ENCODING 1769
SWIDTH 565 0
DWIDTH 11 0
BBX 10 16 1 0
BITMAP
0800
1400
2A00
5580
AA40
D780
7700
5300
5300
5300
5300
5F00
6300
9E80
8080
FFC0
ENDCHAR
STARTCHAR 06EA
ENCODING 1770
SWIDTH 0 0
DWIDTH 0 0
BBX 4 3 -2 -3
BITMAP
60
90
60
ENDCHAR
STARTCHAR 06EB
ENCODING 1771
SWIDTH 0 0
DWIDTH 0 0
BBX 4 3 -2 10
BITMAP
60
90
60
ENDCHAR
STARTCHAR 06EC
ENCODING 1772
SWIDTH 0 0
DWIDTH 0 0
BBX 2 1 -1 10
BITMAP
C0
ENDCHAR
STARTCHAR 06ED
ENCODING 1773
SWIDTH 0 0
DWIDTH 0 0
BBX 2 5 -1 -4
BITMAP
40
C0
C0
80
80
ENDCHAR
STARTCHAR 06F0
ENCODING 1776
SWIDTH 514 0
DWIDTH 10 0
BBX 3 4 4 4
BITMAP
80
E0
C0
40
ENDCHAR
STARTCHAR 06F1
ENCODING 1777
SWIDTH 514 0
DWIDTH 10 0
BBX 3 10 3 3
BITMAP
80
C0
C0
60
60
20
20
20
20
20
ENDCHAR
STARTCHAR 06F2
ENCODING 1778
SWIDTH 514 0
DWIDTH 10 0
BBX 5 11 2 3
BITMAP
80
C8
F8
78
60
20
30
10
10
10
10
ENDCHAR
STARTCHAR 06F3
ENCODING 1779
SWIDTH 514 0
DWIDTH 10 0
BBX 8 10 1 4
BITMAP
CD
7F
76
20
20
10
10
10
10
10
ENDCHAR
STARTCHAR 06F4
ENCODING 1780
SWIDTH 514 0
DWIDTH 10 0
BBX 7 10 2 3
BITMAP
1C
A0
E2
FC
78
60
20
20
20
20
ENDCHAR
STARTCHAR 06F5
ENCODING 1781
SWIDTH 514 0
DWIDTH 10 0
BBX 7 11 1 3
BITMAP
10
18
1C
1C
26
42
42
42
CA
FE
7C
ENDCHAR
STARTCHAR 06F6
ENCODING 1782
SWIDTH 514 0
DWIDTH 10 0
BBX 6 11 2 3
BITMAP
30
78
80
84
FC
F8
30
20
40
40
40
ENDCHAR
STARTCHAR 06F7
ENCODING 1783
SWIDTH 514 0
DWIDTH 10 0
BBX 8 10 1 3
BITMAP
81
C1
C3
62
24
24
18
18
18
08
ENDCHAR
STARTCHAR 06F8
ENCODING 1784
SWIDTH 514 0
DWIDTH 10 0
BBX 8 10 1 4
BITMAP
10
18
28
28
24
26
46
C3
81
81
ENDCHAR
STARTCHAR 06F9
ENCODING 1785
SWIDTH 514 0
DWIDTH 10 0
BBX 6 11 2 3
BITMAP
30
70
98
88
F8
78
08
08
08
0C
08
ENDCHAR
STARTCHAR 06FA
ENCODING 1786
SWIDTH 822 0
DWIDTH 16 0
BBX 15 14 1 -1
BITMAP
0060
0070
0050
0040
0000
0104
0182
0092
80FE
80FE
8080
8188
FF08
7C00
ENDCHAR
STARTCHAR 06FB
ENCODING 1787
SWIDTH 1080 0
DWIDTH 21 0
BBX 20 12 1 -1
BITMAP
000800
000800
000000
0101E0
0187F0
008C30
80FFF0
80FFF0
808000
810200
FF0200
7C0000
ENDCHAR
STARTCHAR 06FC
ENCODING 1788
SWIDTH 514 0
DWIDTH 10 0
BBX 9 20 0 -4
BITMAP
1000
1000
0000
0000
3800
7C00
6000
8000
8100
6700
7C00
3000
2000
4000
8200
8200
C000
6000
7F80
1F00
ENDCHAR
STARTCHAR 06FD
ENCODING 1789
SWIDTH 411 0
DWIDTH 8 0
BBX 6 12 1 -3
BITMAP
30
70
40
CC
FC
70
60
40
28
28
28
28
ENDCHAR
STARTCHAR 06FE
ENCODING 1790
SWIDTH 308 0
DWIDTH 6 0
BBX 6 11 0 -4
BITMAP
38
3C
0C
3C
7C
C0
80
94
54
54
54
ENDCHAR
STARTCHAR 1E80
ENCODING 7808
SWIDTH 925 0
DWIDTH 18 0
BBX 18 18 0 0
BITMAP
018000
00C000
004000
000000
C0C0C0
40C080
61E180
61E180
612180
233100
333300
323300
321200
161A00
161E00
1C0E00
1C0C00
0C0C00
ENDCHAR
STARTCHAR 1E81
ENCODING 7809
SWIDTH 720 0
DWIDTH 14 0
BBX 13 14 0 0
BITMAP
0600
0600
0200
0000
C308
4308
4718
6798
6590
24B0
3CB0
3CE0
18E0
1860
ENDCHAR
STARTCHAR 1E82
ENCODING 7810
SWIDTH 925 0
DWIDTH 18 0
BBX 18 18 0 0
BITMAP
006000
004000
00C000
000000
C0C0C0
40C080
61E180
61E180
612180
233100
333300
323300
321200
161A00
161E00
1C0E00
1C0C00
0C0C00
ENDCHAR
STARTCHAR 1E83
ENCODING 7811
SWIDTH 720 0
DWIDTH 14 0
BBX 13 14 0 0
BITMAP
0300
0300
0200
0000
C308
4308
4718
6798
6590
24B0
3CB0
3CE0
18E0
1860
ENDCHAR
STARTCHAR 1E84
ENCODING 7812
SWIDTH 925 0
DWIDTH 18 0
BBX 18 17 0 0
BITMAP
033000
033000
000000
C0C0C0
40C080
61E180
61E180
612180
233100
333300
323300
321200
161A00
161E00
1C0E00
1C0C00
0C0C00
ENDCHAR
STARTCHAR 1E85
ENCODING 7813
SWIDTH 720 0
DWIDTH 14 0
BBX 13 13 0 0
BITMAP
0CC0
0CC0
0000
C308
4308
4718
6798
6590
24B0
3CB0
3CE0
18E0
1860
ENDCHAR
STARTCHAR 1EA0
ENCODING 7840
SWIDTH 668 0
DWIDTH 13 0
BBX 13 17 0 -3
BITMAP
0600
0700
0F00
0D80
0980
1980
18C0
30C0
3FE0
3FE0
6060
6030
4030
C038
0000
0600
0600
ENDCHAR
STARTCHAR 1EA1
ENCODING 7841
SWIDTH 565 0
DWIDTH 11 0
BBX 9 13 1 -3
BITMAP
3E00
7F00
C300
0F00
7F00
F100
C300
C700
FF00
7D80
0000
1800
1800
ENDCHAR
STARTCHAR 1EA2
ENCODING 7842
SWIDTH 668 0
DWIDTH 13 0
BBX 13 18 0 0
BITMAP
0F00
0100
0300
0000
0600
0700
0F00
0D80
0980
1980
18C0
30C0
3FE0
3FE0
6060
6030
4030
C038
ENDCHAR
STARTCHAR 1EA3
ENCODING 7843
SWIDTH 565 0
DWIDTH 11 0
BBX 9 14 1 0
BITMAP
1C00
0600
0C00
0000
3E00
7F00
C300
0F00
7F00
F100
C300
C700
FF00
7D80
ENDCHAR
STARTCHAR 1EA4
ENCODING 7844
SWIDTH 668 0
DWIDTH 13 0
BBX 13 18 0 0
BITMAP
0300
0200
0700
0900
0600
0700
0F00
0D80
0980
1980
18C0
30C0
3FE0
3FE0
6060
6030
4030
C038
ENDCHAR
STARTCHAR 1EA5
ENCODING 7845
SWIDTH 565 0
DWIDTH 11 0
BBX 9 18 1 0
BITMAP
0C00
0C00
0800
0000
1800
3400
2600
0000
3E00
7F00
C300
0F00
7F00
F100
C300
C700
FF00
7D80
ENDCHAR
STARTCHAR 1EA6
ENCODING 7846
SWIDTH 668 0
DWIDTH 13 0
BBX 13 18 0 0
BITMAP
0C00
0600
0700
0900
0600
0700
0F00
0D80
0980
1980
18C0
30C0
3FE0
3FE0
6060
6030
4030
C038
ENDCHAR
STARTCHAR 1EA7
ENCODING 7847
SWIDTH 565 0
DWIDTH 11 0
BBX 9 18 1 0
BITMAP
3000
1000
1800
0000
1800
3400
2600
0000
3E00
7F00
C300
0F00
7F00
F100
C300
C700
FF00
7D80
ENDCHAR
STARTCHAR 1EA8
ENCODING 7848
SWIDTH 668 0
DWIDTH 13 0
BBX 13 18 0 0
BITMAP
0700
0300
0700
0900
0600
0700
0F00
0D80
0980
1980
18C0
30C0
3FE0
3FE0
6060
6030
4030
C038
ENDCHAR
STARTCHAR 1EA9
ENCODING 7849
SWIDTH 565 0
DWIDTH 11 0
BBX 9 18 1 0
BITMAP
3C00
0400
0C00
0000
1800
3400
2600
0000
3E00
7F00
C300
0F00
7F00
F100
C300
C700
FF00
7D80
ENDCHAR
STARTCHAR 1EAA
ENCODING 7850
SWIDTH 668 0
DWIDTH 13 0
BBX 13 18 0 0
BITMAP
0C80
1380
0700
0900
0600
0700
0F00
0D80
0980
1980
18C0
30C0
3FE0
3FE0
6060
6030
4030
C038
ENDCHAR
STARTCHAR 1EAB
ENCODING 7851
SWIDTH 565 0
DWIDTH 11 0
BBX 9 17 1 0
BITMAP
3200
4E00
0000
1800
3400
2600
0000
3E00
7F00
C300
0F00
7F00
F100
C300
C700
FF00
7D80
ENDCHAR
STARTCHAR 1EAC
ENCODING 7852
SWIDTH 668 0
DWIDTH 13 0
BBX 13 20 0 -3
BITMAP
0700
0900
0000
0600
0700
0F00
0D80
0980
1980
18C0
30C0
3FE0
3FE0
6060
6030
4030
C038
0000
0600
0600
ENDCHAR
STARTCHAR 1EAD
ENCODING 7853
SWIDTH 565 0
DWIDTH 11 0
BBX 9 17 1 -3
BITMAP
1800
3400
2600
0000
3E00
7F00
C300
0F00
7F00
F100
C300
C700
FF00
7D80
0000
1800
1800
ENDCHAR
STARTCHAR 1EAE
ENCODING 7854
SWIDTH 668 0
DWIDTH 13 0
BBX 13 18 0 0
BITMAP
0300
0200
0880
0700
0600
0700
0F00
0D80
0980
1980
18C0
30C0
3FE0
3FE0
6060
6030
4030
C038
ENDCHAR
STARTCHAR 1EAF
ENCODING 7855
SWIDTH 565 0
DWIDTH 11 0
BBX 9 18 1 0
BITMAP
0C00
0C00
1800
0000
2200
2200
1C00
0000
3E00
7F00
C300
0F00
7F00
F100
C300
C700
FF00
7D80
ENDCHAR
STARTCHAR 1EB0
ENCODING 7856
SWIDTH 668 0
DWIDTH 13 0
BBX 13 18 0 0
BITMAP
0C00
0600
0880
0700
0600
0700
0F00
0D80
0980
1980
18C0
30C0
3FE0
3FE0
6060
6030
4030
C038
ENDCHAR
STARTCHAR 1EB1
ENCODING 7857
SWIDTH 565 0
DWIDTH 11 0
BBX 9 18 1 0
BITMAP
3000
1800
0800
0000
2200
2200
1C00
0000
3E00
7F00
C300
0F00
7F00
F100
C300
C700
FF00
7D80
ENDCHAR
STARTCHAR 1EB2
ENCODING 7858
SWIDTH 668 0
DWIDTH 13 0
BBX 13 18 0 0
BITMAP
0700
0300
0880
0700
0600
0700
0F00
0D80
0980
1980
18C0
30C0
3FE0
3FE0
6060
6030
4030
C038
ENDCHAR
STARTCHAR 1EB3
ENCODING 7859
SWIDTH 565 0
DWIDTH 11 0
BBX 9 18 1 0
BITMAP
1C00
0600
0C00
0000
2200
2200
1C00
0000
3E00
7F00
C300
0F00
7F00
F100
C300
C700
FF00
7D80
ENDCHAR
STARTCHAR 1EB4
ENCODING 7860
SWIDTH 668 0
DWIDTH 13 0
BBX 13 18 0 0
BITMAP
0E80
1380
0880
0700
0600
0700
0F00
0D80
0980
1980
18C0
30C0
3FE0
3FE0
6060
6030
4030
C038
ENDCHAR
STARTCHAR 1EB5
ENCODING 7861
SWIDTH 565 0
DWIDTH 11 0
BBX 9 17 1 0
BITMAP
3B00
2600
0000
2200
2200
1C00
0000
3E00
7F00
C300
0F00
7F00
F100
C300
C700
FF00
7D80
ENDCHAR
STARTCHAR 1EB6
ENCODING 7862
SWIDTH 668 0
DWIDTH 13 0
BBX 13 20 0 -3
BITMAP
0880
0700
0000
0600
0700
0F00
0D80
0980
1980
18C0
30C0
3FE0
3FE0
6060
6030
4030
C038
0000
0600
0600
ENDCHAR
STARTCHAR 1EB7
ENCODING 7863
SWIDTH 565 0
DWIDTH 11 0
BBX 9 17 1 -3
BITMAP
2200
2200
1C00
0000
3E00
7F00
C300
0F00
7F00
F100
C300
C700
FF00
7D80
0000
1800
1800
ENDCHAR
STARTCHAR 1EB8
ENCODING 7864
SWIDTH 668 0
DWIDTH 13 0
BBX 11 17 1 -3
BITMAP
FFC0
FFC0
C000
C000
C000
C000
FFC0
FFC0
C000
C000
C000
C000
FFE0
FFE0
0000
0600
0600
ENDCHAR
STARTCHAR 1EB9
ENCODING 7865
SWIDTH 565 0
DWIDTH 11 0
BBX 9 13 1 -3
BITMAP
3C00
7F00
C300
C180
FF80
FF80
C000
C380
7F00
3E00
0000
1800
1800
ENDCHAR
STARTCHAR 1EBA
ENCODING 7866
SWIDTH 668 0
DWIDTH 13 0
BBX 11 18 1 0
BITMAP
0E00
0300
0600
0000
FFC0
FFC0
C000
C000
C000
C000
FFC0
FFC0
C000
C000
C000
C000
FFE0
FFE0
ENDCHAR
STARTCHAR 1EBB
ENCODING 7867
SWIDTH 565 0
DWIDTH 11 0
BBX 9 14 1 0
BITMAP
1C00
0600
0C00
0000
3C00
7F00
C300
C180
FF80
FF80
C000
C380
7F00
3E00
ENDCHAR
STARTCHAR 1EBC
ENCODING 7868
SWIDTH 668 0
DWIDTH 13 0
BBX 11 18 1 0
BITMAP
1C80
1F80
1300
0000
FFC0
FFC0
C000
C000
C000
C000
FFC0
FFC0
C000
C000
C000
C000
FFE0
FFE0
ENDCHAR
STARTCHAR 1EBD
ENCODING 7869
SWIDTH 565 0
DWIDTH 11 0
BBX 9 14 1 0
BITMAP
3A00
3E00
6E00
0000
3C00
7F00
C300
C180
FF80
FF80
C000
C380
7F00
3E00
ENDCHAR
STARTCHAR 1EBE
ENCODING 7870
SWIDTH 668 0
DWIDTH 13 0
BBX 11 18 1 0
BITMAP
0600
0400
0E00
1B00
FFC0
FFC0
C000
C000
C000
C000
FFC0
FFC0
C000
C000
C000
C000
FFE0
FFE0
ENDCHAR
STARTCHAR 1EBF
ENCODING 7871
SWIDTH 565 0
DWIDTH 11 0
BBX 9 18 1 0
BITMAP
0C00
0C00
0800
0000
1800
3400
2600
0000
3C00
7F00
C300
C180
FF80
FF80
C000
C380
7F00
3E00
ENDCHAR
STARTCHAR 1EC0
ENCODING 7872
SWIDTH 668 0
DWIDTH 13 0
BBX 11 18 1 0
BITMAP
0800
0400
0E00
1B00
FFC0
FFC0
C000
C000
C000
C000
FFC0
FFC0
C000
C000
C000
C000
FFE0
FFE0
ENDCHAR
STARTCHAR 1EC1
ENCODING 7873
SWIDTH 565 0
DWIDTH 11 0
BBX 9 18 1 0
BITMAP
3000
1000
1800
0000
1800
3400
2600
0000
3C00
7F00
C300
C180
FF80
FF80
C000
C380
7F00
3E00
ENDCHAR
STARTCHAR 1EC2
ENCODING 7874
SWIDTH 668 0
DWIDTH 13 0
BBX 11 18 1 0
BITMAP
0E00
0600
0E00
1B00
FFC0
FFC0
C000
C000
C000
C000
FFC0
FFC0
C000
C000
C000
C000
FFE0
FFE0
ENDCHAR
STARTCHAR 1EC3
ENCODING 7875
SWIDTH 565 0
DWIDTH 11 0
BBX 9 18 1 0
BITMAP
3C00
0400
0C00
0000
1800
3400
2600
0000
3C00
7F00
C300
C180
FF80
FF80
C000
C380
7F00
3E00
ENDCHAR
STARTCHAR 1EC4
ENCODING 7876
SWIDTH 668 0
DWIDTH 13 0
BBX 11 18 1 0
BITMAP
1D00
2700
0E00
1B00
FFC0
FFC0
C000
C000
C000
C000
FFC0
FFC0
C000
C000
C000
C000
FFE0
FFE0
ENDCHAR
STARTCHAR 1EC5
ENCODING 7877
SWIDTH 565 0
DWIDTH 11 0
BBX 9 17 1 0
BITMAP
3200
4E00
0000
1800
3400
2600
0000
3C00
7F00
C300
C180
FF80
FF80
C000
C380
7F00
3E00
ENDCHAR
STARTCHAR 1EC6
ENCODING 7878
SWIDTH 668 0
DWIDTH 13 0
BBX 11 20 1 -3
BITMAP
0E00
1B00
0000
FFC0
FFC0
C000
C000
C000
C000
FFC0
FFC0
C000
C000
C000
C000
FFE0
FFE0
0000
0600
0600
ENDCHAR
STARTCHAR 1EC7
ENCODING 7879
SWIDTH 565 0
DWIDTH 11 0
BBX 9 17 1 -3
BITMAP
1800
3400
2600
0000
3C00
7F00
C300
C180
FF80
FF80
C000
C380
7F00
3E00
0000
1800
1800
ENDCHAR
STARTCHAR 1EC8
ENCODING 7880
SWIDTH 257 0
DWIDTH 5 0
BBX 4 18 1 0
BITMAP
E0
30
70
00
60
60
60
60
60
60
60
60
60
60
60
60
60
60
ENDCHAR
STARTCHAR 1EC9
ENCODING 7881
SWIDTH 205 0
DWIDTH 4 0
BBX 4 14 0 0
BITMAP
F0
10
30
00
60
60
60
60
60
60
60
60
60
60
ENDCHAR
STARTCHAR 1ECA
ENCODING 7882
SWIDTH 257 0
DWIDTH 5 0
BBX 2 17 2 -3
BITMAP
C0
C0
C0
C0
C0
C0
C0
C0
C0
C0
C0
C0
C0
C0
00
C0
C0
ENDCHAR
STARTCHAR 1ECB
ENCODING 7883
SWIDTH 205 0
DWIDTH 4 0
BBX 2 17 1 -3
BITMAP
C0
C0
00
00
C0
C0
C0
C0
C0
C0
C0
C0
C0
C0
00
C0
C0
ENDCHAR
STARTCHAR 1ECC
ENCODING 7884
SWIDTH 771 0
DWIDTH 15 0
BBX 13 17 1 -3
BITMAP
0F80
3FE0
7070
6030
C018
C018
C018
C018
C018
C018
6030
7070
3FE0
0F80
0000
0600
0600
ENDCHAR
STARTCHAR 1ECD
ENCODING 7885
SWIDTH 565 0
DWIDTH 11 0
BBX 9 13 1 -3
BITMAP
3C00
7F00
C300
C180
8180
8180
C180
C300
7F00
3C00
0000
1800
1800
ENDCHAR
STARTCHAR 1ECE
ENCODING 7886
SWIDTH 771 0
DWIDTH 15 0
BBX 13 18 1 0
BITMAP
0700
0180
0300
0000
0F80
3FE0
7070
6030
C018
C018
C018
C018
C018
C018
6030
7070
3FE0
0F80
ENDCHAR
STARTCHAR 1ECF
ENCODING 7887
SWIDTH 565 0
DWIDTH 11 0
BBX 9 14 1 0
BITMAP
1C00
0600
0C00
0000
3C00
7F00
C300
C180
8180
8180
C180
C300
7F00
3C00
ENDCHAR
STARTCHAR 1ED0
ENCODING 7888
SWIDTH 771 0
DWIDTH 15 0
BBX 13 18 1 0
BITMAP
0300
0200
0700
0D80
0F80
3FE0
7070
6030
C018
C018
C018
C018
C018
C018
6030
7070
3FE0
0F80
ENDCHAR
STARTCHAR 1ED1
ENCODING 7889
SWIDTH 565 0
DWIDTH 11 0
BBX 9 18 1 0
BITMAP
0C00
0C00
0800
0000
1800
3400
2600
0000
3C00
7F00
C300
C180
8180
8180
C180
C300
7F00
3C00
ENDCHAR
STARTCHAR 1ED2
ENCODING 7890
SWIDTH 771 0
DWIDTH 15 0
BBX 13 18 1 0
BITMAP
0400
0200
0700
0D80
0F80
3FE0
7070
6030
C018
C018
C018
C018
C018
C018
6030
7070
3FE0
0F80
ENDCHAR
STARTCHAR 1ED3
ENCODING 7891
SWIDTH 565 0
DWIDTH 11 0
BBX 9 18 1 0
BITMAP
3000
1000
1800
0000
1800
3400
2600
0000
3C00
7F00
C300
C180
8180
8180
C180
C300
7F00
3C00
ENDCHAR
STARTCHAR 1ED4
ENCODING 7892
SWIDTH 771 0
DWIDTH 15 0
BBX 13 18 1 0
BITMAP
0700
0300
0700
0D80
0F80
3FE0
7070
6030
C018
C018
C018
C018
C018
C018
6030
7070
3FE0
0F80
ENDCHAR
STARTCHAR 1ED5
ENCODING 7893
SWIDTH 565 0
DWIDTH 11 0
BBX 9 18 1 0
BITMAP
3C00
0400
0C00
0000
1800
3400
2600
0000
3C00
7F00
C300
C180
8180
8180
C180
C300
7F00
3C00
ENDCHAR
STARTCHAR 1ED6
ENCODING 7894
SWIDTH 771 0
DWIDTH 15 0
BBX 13 18 1 0
BITMAP
0E40
1380
0700
0D80
0F80
3FE0
7070
6030
C018
C018
C018
C018
C018
C018
6030
7070
3FE0
0F80
ENDCHAR
STARTCHAR 1ED7
ENCODING 7895
SWIDTH 565 0
DWIDTH 11 0
BBX 9 17 1 0
BITMAP
3200
4E00
0000
1800
3400
2600
0000
3C00
7F00
C300
C180
8180
8180
C180
C300
7F00
3C00
ENDCHAR
STARTCHAR 1ED8
ENCODING 7896
SWIDTH 771 0
DWIDTH 15 0
BBX 13 20 1 -3
BITMAP
0700
0D80
0000
0F80
3FE0
7070
6030
C018
C018
C018
C018
C018
C018
6030
7070
3FE0
0F80
0000
0600
0600
ENDCHAR
STARTCHAR 1ED9
ENCODING 7897
SWIDTH 565 0
DWIDTH 11 0
BBX 9 17 1 -3
BITMAP
1800
3400
2600
0000
3C00
7F00
C300
C180
8180
8180
C180
C300
7F00
3C00
0000
1800
1800
ENDCHAR
STARTCHAR 1EDA
ENCODING 7898
SWIDTH 822 0
DWIDTH 16 0
BBX 15 18 1 0
BITMAP
0300
0300
0600
0000
0F86
3FE6
7072
6034
C018
C018
C018
C018
C018
C018
6030
7070
3FE0
0F80
ENDCHAR
STARTCHAR 1EDB
ENCODING 7899
SWIDTH 617 0
DWIDTH 12 0
BBX 11 14 1 0
BITMAP
0C00
0C00
0800
0000
3C60
7F60
C320
C1C0
81C0
8180
C180
C300
7F00
3E00
ENDCHAR
STARTCHAR 1EDC
ENCODING 7900
SWIDTH 822 0
DWIDTH 16 0
BBX 15 18 1 0
BITMAP
0C00
0600
0200
0000
0F86
3FE6
7072
6034
C018
C018
C018
C018
C018
C018
6030
7070
3FE0
0F80
ENDCHAR
STARTCHAR 1EDD
ENCODING 7901
SWIDTH 617 0
DWIDTH 12 0
BBX 11 14 1 0
BITMAP
3000
1800
0800
0000
3C60
7F60
C320
C1C0
81C0
8180
C180
C300
7F00
3E00
ENDCHAR
STARTCHAR 1EDE
ENCODING 7902
SWIDTH 822 0
DWIDTH 16 0
BBX 15 18 1 0
BITMAP
0700
0180
0300
0000
0F86
3FE6
7072
6034
C018
C018
C018
C018
C018
C018
6030
7070
3FE0
0F80
ENDCHAR
STARTCHAR 1EDF
ENCODING 7903
SWIDTH 617 0
DWIDTH 12 0
BBX 11 14 1 0
BITMAP
1C00
0600
0C00
0000
3C60
7F60
C320
C1C0
81C0
8180
C180
C300
7F00
3E00
ENDCHAR
STARTCHAR 1EE0
ENCODING 7904
SWIDTH 822 0
DWIDTH 16 0
BBX 15 18 1 0
BITMAP
0EC0
0F80
1B80
0000
0F86
3FE6
7072
6034
C018
C018
C018
C018
C018
C018
6030
7070
3FE0
0F80
ENDCHAR
STARTCHAR 1EE1
ENCODING 7905
SWIDTH 617 0
DWIDTH 12 0
BBX 11 14 1 0
BITMAP
3200
7E00
4E00
0000
3C60
7F60
C320
C1C0
81C0
8180
C180
C300
7F00
3E00
ENDCHAR
STARTCHAR 1EE2
ENCODING 7906
SWIDTH 822 0
DWIDTH 16 0
BBX 15 17 1 -3
BITMAP
0F86
3FE6
7072
6034
C018
C018
C018
C018
C018
C018
6030
7070
3FE0
0F80
0000
0600
0600
ENDCHAR
STARTCHAR 1EE3
ENCODING 7907
SWIDTH 617 0
DWIDTH 12 0
BBX 11 13 1 -3
BITMAP
3C60
7F60
C320
C1C0
81C0
8180
C180
C300
7F00
3E00
0000
1800
1800
ENDCHAR
STARTCHAR 1EE4
ENCODING 7908
SWIDTH 720 0
DWIDTH 14 0
BBX 11 17 1 -3
BITMAP
C060
C060
C060
C060
C060
C060
C060
C060
4060
4060
6060
70E0
3FC0
1F80
0000
0600
0600
ENDCHAR
STARTCHAR 1EE5
ENCODING 7909
SWIDTH 565 0
DWIDTH 11 0
BBX 8 13 1 -3
BITMAP
C1
C1
C1
C1
C1
C1
C3
C3
7D
39
00
18
18
ENDCHAR
STARTCHAR 1EE6
ENCODING 7910
SWIDTH 720 0
DWIDTH 14 0
BBX 11 18 1 0
BITMAP
0E00
0300
0700
0000
C060
C060
C060
C060
C060
C060
C060
C060
4060
4060
6060
70E0
3FC0
1F80
ENDCHAR
STARTCHAR 1EE7
ENCODING 7911
SWIDTH 565 0
DWIDTH 11 0
BBX 8 14 1 0
BITMAP
3C
04
0C
00
C1
C1
C1
C1
C1
C1
C3
C3
7D
39
ENDCHAR
STARTCHAR 1EE8
ENCODING 7912
SWIDTH 822 0
DWIDTH 16 0
BBX 14 18 1 0
BITMAP
0300
0600
0400
0000
C064
C064
C064
C064
C078
C060
C060
C060
4060
4060
6060
70E0
3FC0
1F80
ENDCHAR
STARTCHAR 1EE9
ENCODING 7913
SWIDTH 668 0
DWIDTH 13 0
BBX 11 14 1 0
BITMAP
0C00
0C00
1800
0000
C160
C160
C120
C120
C1C0
C100
C300
C300
7D00
3900
ENDCHAR
STARTCHAR 1EEA
ENCODING 7914
SWIDTH 822 0
DWIDTH 16 0
BBX 14 18 1 0
BITMAP
0C00
0400
0600
0000
C064
C064
C064
C064
C078
C060
C060
C060
4060
4060
6060
70E0
3FC0
1F80
ENDCHAR
STARTCHAR 1EEB
ENCODING 7915
SWIDTH 668 0
DWIDTH 13 0
BBX 11 14 1 0
BITMAP
3000
1800
0800
0000
C160
C160
C120
C120
C1C0
C100
C300
C300
7D00
3900
ENDCHAR
STARTCHAR 1EEC
ENCODING 7916
SWIDTH 822 0
DWIDTH 16 0
BBX 14 18 1 0
BITMAP
0E00
0300
0700
0000
C064
C064
C064
C064
C078
C060
C060
C060
4060
4060
6060
70E0
3FC0
1F80
ENDCHAR
STARTCHAR 1EED
ENCODING 7917
SWIDTH 668 0
DWIDTH 13 0
BBX 11 14 1 0
BITMAP
3C00
0400
0C00
0000
C160
C160
C120
C120
C1C0
C100
C300
C300
7D00
3900
ENDCHAR
STARTCHAR 1EEE
ENCODING 7918
SWIDTH 822 0
DWIDTH 16 0
BBX 14 18 1 0
BITMAP
0C80
1F80
1300
0000
C064
C064
C064
C064
C078
C060
C060
C060
4060
4060
6060
70E0
3FC0
1F80
ENDCHAR
STARTCHAR 1EEF
ENCODING 7919
SWIDTH 668 0
DWIDTH 13 0
BBX 11 14 1 0
BITMAP
3200
7E00
6E00
0000
C160
C160
C120
C120
C1C0
C100
C300
C300
7D00
3900
ENDCHAR
STARTCHAR 1EF0
ENCODING 7920
SWIDTH 822 0
DWIDTH 16 0
BBX 14 17 1 -3
BITMAP
C064
C064
C064
C064
C078
C060
C060
C060
4060
4060
6060
70E0
3FC0
1F80
0000
0600
0600
ENDCHAR
STARTCHAR 1EF1
ENCODING 7921
SWIDTH 668 0
DWIDTH 13 0
BBX 11 13 1 -3
BITMAP
C160
C160
C120
C120
C1C0
C100
C300
C300
7D00
3900
0000
1800
1800
ENDCHAR
STARTCHAR 1EF2
ENCODING 7922
SWIDTH 668 0
DWIDTH 13 0
BBX 12 18 0 0
BITMAP
0C00
0600
0200
0000
E030
6070
3060
30C0
1880
0D80
0F00
0600
0600
0600
0600
0600
0600
0600
ENDCHAR
STARTCHAR 1EF3
ENCODING 7923
SWIDTH 514 0
DWIDTH 10 0
BBX 8 18 1 -4
BITMAP
30
10
18
00
83
C3
C2
46
66
64
3C
3C
18
18
10
30
F0
E0
ENDCHAR
STARTCHAR 1EF4
ENCODING 7924
SWIDTH 668 0
DWIDTH 13 0
BBX 12 17 0 -3
BITMAP
E030
6070
3060
30C0
1880
0D80
0F00
0600
0600
0600
0600
0600
0600
0600
0000
0600
0600
ENDCHAR
STARTCHAR 1EF5
ENCODING 7925
SWIDTH 514 0
DWIDTH 10 0
BBX 8 14 1 -4
BITMAP
83
C3
C2
46
66
64
3C
3C
18
18
10
36
F6
E0
ENDCHAR
STARTCHAR 1EF6
ENCODING 7926
SWIDTH 668 0
DWIDTH 13 0
BBX 12 18 0 0
BITMAP
0F00
0100
0300
0000
E030
6070
3060
30C0
1880
0D80
0F00
0600
0600
0600
0600
0600
0600
0600
ENDCHAR
STARTCHAR 1EF7
ENCODING 7927
SWIDTH 514 0
DWIDTH 10 0
BBX 8 18 1 -4
BITMAP
38
04
1C
00
83
C3
C2
46
66
64
3C
3C
18
18
10
30
F0
E0
ENDCHAR
STARTCHAR 1EF8
ENCODING 7928
SWIDTH 668 0
DWIDTH 13 0
BBX 12 18 0 0
BITMAP
0EC0
0F80
1B80
0000
E030
6070
3060
30C0
1880
0D80
0F00
0600
0600
0600
0600
0600
0600
0600
ENDCHAR
STARTCHAR 1EF9
ENCODING 7929
SWIDTH 514 0
DWIDTH 10 0
BBX 8 18 1 -4
BITMAP
32
7E
4C
00
83
C3
C2
46
66
64
3C
3C
18
18
10
30
F0
E0
ENDCHAR
STARTCHAR 200C
ENCODING 8204
SWIDTH 0 0
DWIDTH 0 0
BBX 1 15 0 -3
BITMAP
80
80
80
80
80
80
80
80
80
80
80
80
80
80
80
ENDCHAR
STARTCHAR 200D
ENCODING 8205
SWIDTH 0 0
DWIDTH 0 0
BBX 4 16 -2 -2
BITMAP
90
E0
D0
40
40
40
40
40
40
40
40
40
40
40
40
40
ENDCHAR
STARTCHAR 200E
ENCODING 8206
SWIDTH 0 0
DWIDTH 0 0
BBX 4 15 0 -3
BITMAP
20
F0
A0
80
80
80
80
80
80
80
80
80
80
80
80
ENDCHAR
STARTCHAR 200F
ENCODING 8207
SWIDTH 0 0
DWIDTH 0 0
BBX 4 15 -4 -3
BITMAP
40
F0
50
10
10
10
10
10
10
10
10
10
10
10
10
ENDCHAR
STARTCHAR 2013
ENCODING 8211
SWIDTH 565 0
DWIDTH 11 0
BBX 11 2 0 4
BITMAP
FFE0
FFE0
ENDCHAR
STARTCHAR 2014
ENCODING 8212
SWIDTH 977 0
DWIDTH 19 0
BBX 19 2 0 4
BITMAP
FFFFE0
FFFFE0
ENDCHAR
STARTCHAR 2015
ENCODING 8213
SWIDTH 977 0
DWIDTH 19 0
BBX 17 2 1 4
BITMAP
FFFF80
FFFF80
ENDCHAR
STARTCHAR 2017
ENCODING 8215
SWIDTH 565 0
DWIDTH 11 0
BBX 11 5 0 -6
BITMAP
FFE0
FFE0
0000
FFE0
FFE0
ENDCHAR
STARTCHAR 2018
ENCODING 8216
SWIDTH 205 0
DWIDTH 4 0
BBX 2 5 1 9
BITMAP
40
C0
80
C0
C0
ENDCHAR
STARTCHAR 2019
ENCODING 8217
SWIDTH 205 0
DWIDTH 4 0
BBX 2 5 1 9
BITMAP
C0
C0
40
40
80
ENDCHAR
STARTCHAR 201A
ENCODING 8218
SWIDTH 205 0
DWIDTH 4 0
BBX 2 5 1 -3
BITMAP
C0
C0
40
40
80
ENDCHAR
STARTCHAR 201B
ENCODING 8219
SWIDTH 205 0
DWIDTH 4 0
BBX 2 5 1 9
BITMAP
C0
C0
80
C0
40
ENDCHAR
STARTCHAR 201C
ENCODING 8220
SWIDTH 308 0
DWIDTH 6 0
BBX 4 5 1 9
BITMAP
50
90
90
D0
D0
ENDCHAR
STARTCHAR 201D
ENCODING 8221
SWIDTH 308 0
DWIDTH 6 0
BBX 4 5 1 9
BITMAP
D0
D0
50
90
90
ENDCHAR
STARTCHAR 201E
ENCODING 8222
SWIDTH 308 0
DWIDTH 6 0
BBX 4 5 1 -3
BITMAP
D0
D0
50
90
90
ENDCHAR
STARTCHAR 2020
ENCODING 8224
SWIDTH 565 0
DWIDTH 11 0
BBX 9 17 1 -3
BITMAP
1800
1800
1800
1800
FF80
FF80
1800
1800
1800
1800
1800
1800
1800
1800
1800
1800
1800
ENDCHAR
STARTCHAR 2021
ENCODING 8225
SWIDTH 565 0
DWIDTH 11 0
BBX 9 17 1 -3
BITMAP
1800
1800
1800
1800
FF80
FF80
1800
1800
1800
1800
1800
FF80
FF80
1800
1800
1800
1800
ENDCHAR
STARTCHAR 2022
ENCODING 8226
SWIDTH 360 0
DWIDTH 7 0
BBX 5 5 1 4
BITMAP
70
F8
F8
F8
70
ENDCHAR
STARTCHAR 2026
ENCODING 8230
SWIDTH 977 0
DWIDTH 19 0
BBX 15 2 2 0
BITMAP
C106
C106
ENDCHAR
STARTCHAR 202A
ENCODING 8234
SWIDTH 0 0
DWIDTH 0 0
BBX 4 14 0 -3
BITMAP
F0
80
80
80
80
80
80
80
80
80
80
80
80
80
ENDCHAR
STARTCHAR 202B
ENCODING 8235
SWIDTH 0 0
DWIDTH 0 0
BBX 4 14 -4 -3
BITMAP
F0
10
10
10
10
10
10
10
10
10
10
10
10
10
ENDCHAR
STARTCHAR 202C
ENCODING 8236
SWIDTH 0 0
DWIDTH 0 0
BBX 4 16 -2 -3
BITMAP
F0
F0
F0
F0
40
40
40
40
40
40
40
40
40
40
40
40
ENDCHAR
STARTCHAR 202D
ENCODING 8237
SWIDTH 0 0
DWIDTH 0 0
BBX 4 17 -2 -3
BITMAP
F0
80
80
80
F0
40
40
40
40
40
40
40
40
40
40
40
40
ENDCHAR
STARTCHAR 202E
ENCODING 8238
SWIDTH 0 0
DWIDTH 0 0
BBX 4 17 -2 -3
BITMAP
F0
10
10
10
F0
40
40
40
40
40
40
40
40
40
40
40
40
ENDCHAR
STARTCHAR 2030
ENCODING 8240
SWIDTH 977 0
DWIDTH 19 0
BBX 19 14 0 0
BITMAP
78C000
488000
CC8000
CD0000
CD0000
4B0000
7A0000
02E3C0
059240
059660
0D1660
099660
099240
10E3C0
ENDCHAR
STARTCHAR 2032
ENCODING 8242
SWIDTH 205 0
DWIDTH 4 0
BBX 3 5 1 9
BITMAP
60
C0
C0
C0
80
ENDCHAR
STARTCHAR 2033
ENCODING 8243
SWIDTH 360 0
DWIDTH 7 0
BBX 5 5 1 9
BITMAP
78
58
D8
D0
90
ENDCHAR
STARTCHAR 2039
ENCODING 8249
SWIDTH 308 0
DWIDTH 6 0
BBX 4 9 1 1
BITMAP
30
20
60
40
C0
40
60
20
30
ENDCHAR
STARTCHAR 203A
ENCODING 8250
SWIDTH 308 0
DWIDTH 6 0
BBX 4 9 1 1
BITMAP
C0
40
60
20
30
20
60
40
C0
ENDCHAR
STARTCHAR 203C
ENCODING 8252
SWIDTH 514 0
DWIDTH 10 0
BBX 6 14 2 0
BITMAP
CC
CC
CC
CC
CC
CC
CC
8C
8C
88
88
00
CC
CC
ENDCHAR
STARTCHAR 203E
ENCODING 8254
SWIDTH 308 0
DWIDTH 6 0
BBX 7 2 0 11
BITMAP
FE
FE
ENDCHAR
STARTCHAR 2044
ENCODING 8260
SWIDTH 154 0
DWIDTH 3 0
BBX 11 14 -4 0
BITMAP
0020
0040
00C0
0180
0100
0200
0600
0400
0800
1800
3000
2000
4000
C000
ENDCHAR
STARTCHAR 206A
ENCODING 8298
SWIDTH 0 0
DWIDTH 0 0
BBX 4 17 -2 -3
BITMAP
F0
40
40
40
F0
40
40
40
40
40
40
40
40
40
40
40
40
ENDCHAR
STARTCHAR 206B
ENCODING 8299
SWIDTH 0 0
DWIDTH 0 0
BBX 4 17 -2 -3
BITMAP
F0
90
90
90
F0
40
40
40
40
40
40
40
40
40
40
40
40
ENDCHAR
STARTCHAR 206C
ENCODING 8300
SWIDTH 0 0
DWIDTH 0 0
BBX 4 16 -2 -3
BITMAP
F0
60
60
40
40
40
40
40
40
40
40
40
40
40
40
40
ENDCHAR
STARTCHAR 206D
ENCODING 8301
SWIDTH 0 0
DWIDTH 0 0
BBX 4 16 -2 -3
BITMAP
40
60
60
F0
40
40
40
40
40
40
40
40
40
40
40
40
ENDCHAR
STARTCHAR 206E
ENCODING 8302
SWIDTH 0 0
DWIDTH 0 0
BBX 4 17 -2 -3
BITMAP
40
60
90
60
60
40
40
40
40
40
40
40
40
40
40
40
40
ENDCHAR
STARTCHAR 206F
ENCODING 8303
SWIDTH 0 0
DWIDTH 0 0
BBX 4 17 -2 -3
BITMAP
C0
40
40
40
F0
40
40
40
40
40
40
40
40
40
40
40
40
ENDCHAR
STARTCHAR 207F
ENCODING 8319
SWIDTH 360 0
DWIDTH 7 0
BBX 5 7 1 5
BITMAP
B0
F8
88
88
88
88
88
ENDCHAR
STARTCHAR 20A3
ENCODING 8355
SWIDTH 565 0
DWIDTH 11 0
BBX 10 14 0 0
BITMAP
3FC0
3FC0
2000
2000
2000
2000
3F80
3F80
2000
2000
FC00
FC00
2000
2000
ENDCHAR
STARTCHAR 20A4
ENCODING 8356
SWIDTH 565 0
DWIDTH 11 0
BBX 10 14 0 0
BITMAP
1F00
3F80
3180
60C0
6000
FE00
FE00
3000
FE00
FE00
3000
7C40
FFC0
4380
ENDCHAR
STARTCHAR 20A7
ENCODING 8359
SWIDTH 1080 0
DWIDTH 21 0
BBX 20 14 0 0
BITMAP
FE0000
FF3000
C3B000
C1B000
C1FFC0
C3FFF0
FFB430
FE3700
C037E0
C031F0
C03030
C03630
C03FF0
C03BE0
ENDCHAR
STARTCHAR 20AA
ENCODING 8362
SWIDTH 822 0
DWIDTH 16 0
BBX 13 10 1 0
BITMAP
FF18
FF98
C098
CC98
CC98
CC98
CC98
CC18
CFF8
CFF0
ENDCHAR
STARTCHAR 20AB
ENCODING 8363
SWIDTH 514 0
DWIDTH 10 0
BBX 7 11 1 3
BITMAP
0E
04
3C
44
44
C4
44
44
3C
00
FE
ENDCHAR
STARTCHAR 20AC
ENCODING 8364
SWIDTH 565 0
DWIDTH 11 0
BBX 10 14 0 0
BITMAP
0780
1FC0
3840
3000
6000
6000
FF80
6000
FF80
6000
3000
3840
1FC0
0780
ENDCHAR
STARTCHAR 2105
ENCODING 8453
SWIDTH 874 0
DWIDTH 17 0
BBX 15 14 1 0
BITMAP
7820
CC60
8040
80C0
8480
C980
7900
033C
0244
0642
04C2
0842
0844
103C
ENDCHAR
STARTCHAR 2113
ENCODING 8467
SWIDTH 308 0
DWIDTH 6 0
BBX 5 14 1 0
BITMAP
30
78
48
48
50
50
60
60
C0
C0
40
40
78
78
ENDCHAR
STARTCHAR 2116
ENCODING 8470
SWIDTH 1028 0
DWIDTH 20 0
BBX 19 14 1 0
BITMAP
E06000
E06000
F06000
F06780
D86FC0
CC6C40
CC6C60
C66C40
C76FC0
C36780
C1E000
C1EFC0
C0EFC0
C06000
ENDCHAR
STARTCHAR 2122
ENCODING 8482
SWIDTH 977 0
DWIDTH 19 0
BBX 15 8 2 6
BITMAP
FD86
118E
114E
114E
1156
1136
1136
1136
ENDCHAR
STARTCHAR 2126
ENCODING 8486
SWIDTH 771 0
DWIDTH 15 0
BBX 13 14 1 0
BITMAP
0F80
3FE0
7060
6030
6030
C030
C010
C010
6030
6030
3060
18C0
FDF8
FDF8
ENDCHAR
STARTCHAR 212E
ENCODING 8494
SWIDTH 565 0
DWIDTH 11 0
BBX 10 10 1 0
BITMAP
3E00
6100
C180
C180
FFC0
C000
C000
C080
6100
3E00
ENDCHAR
STARTCHAR 2153
ENCODING 8531
SWIDTH 822 0
DWIDTH 16 0
BBX 15 14 1 0
BITMAP
2010
6030
E020
A040
20C0
2180
2100
023C
0664
0C04
0818
1006
3066
603C
ENDCHAR
STARTCHAR 2154
ENCODING 8532
SWIDTH 822 0
DWIDTH 16 0
BBX 15 14 0 0
BITMAP
7808
4C18
0C10
1820
3060
60C0
FC80
011E
0332
0602
040C
0802
1822
301E
ENDCHAR
STARTCHAR 215B
ENCODING 8539
SWIDTH 822 0
DWIDTH 16 0
BBX 14 14 1 0
BITMAP
2010
6030
A020
2040
20C0
2180
2100
0238
0664
0C64
0838
1044
3044
603C
ENDCHAR
STARTCHAR 215C
ENCODING 8540
SWIDTH 822 0
DWIDTH 16 0
BBX 15 14 0 0
BITMAP
7808
4C18
0C10
1020
0C60
CCC0
7880
011E
0332
0632
041C
0822
1822
301E
ENDCHAR
STARTCHAR 215D
ENCODING 8541
SWIDTH 822 0
DWIDTH 16 0
BBX 15 14 0 0
BITMAP
7C08
4018
7810
4C20
0460
CCC0
7880
011E
0332
0632
041C
0822
1822
301E
ENDCHAR
STARTCHAR 215E
ENCODING 8542
SWIDTH 822 0
DWIDTH 16 0
BBX 14 14 1 0
BITMAP
F810
1020
3060
2040
6080
4180
4300
0238
0464
0C64
1838
1044
2044
603C
ENDCHAR
STARTCHAR 2190
ENCODING 8592
SWIDTH 977 0
DWIDTH 19 0
BBX 17 6 1 1
BITMAP
100000
200000
600000
FFFF80
600000
100000
ENDCHAR
STARTCHAR 2191
ENCODING 8593
SWIDTH 514 0
DWIDTH 10 0
BBX 7 16 1 -4
BITMAP
10
38
7C
D2
10
10
10
10
10
10
10
10
10
10
10
10
ENDCHAR
STARTCHAR 2192
ENCODING 8594
SWIDTH 977 0
DWIDTH 19 0
BBX 17 6 1 1
BITMAP
000400
000200
000300
FFFF80
000200
000400
ENDCHAR
STARTCHAR 2193
ENCODING 8595
SWIDTH 514 0
DWIDTH 10 0
BBX 7 16 1 -4
BITMAP
10
10
10
10
10
10
10
10
10
10
10
90
56
3C
18
10
ENDCHAR
STARTCHAR 2194
ENCODING 8596
SWIDTH 977 0
DWIDTH 19 0
BBX 17 7 1 1
BITMAP
100400
200200
600300
FFFF80
600300
100400
100400
ENDCHAR
STARTCHAR 2195
ENCODING 8597
SWIDTH 514 0
DWIDTH 10 0
BBX 7 18 1 -4
BITMAP
10
18
38
74
92
10
10
10
10
10
10
10
10
90
56
3C
18
10
ENDCHAR
STARTCHAR 21A8
ENCODING 8616
SWIDTH 514 0
DWIDTH 10 0
BBX 7 20 1 -6
BITMAP
10
18
38
74
92
10
10
10
10
10
10
10
10
90
56
3C
18
10
00
FE
ENDCHAR
STARTCHAR 2202
ENCODING 8706
SWIDTH 462 0
DWIDTH 9 0
BBX 8 14 1 0
BITMAP
0E
1E
33
21
01
0F
3D
61
C3
82
86
CC
FC
70
ENDCHAR
STARTCHAR 2206
ENCODING 8710
SWIDTH 617 0
DWIDTH 12 0
BBX 11 12 0 1
BITMAP
0600
0600
0A00
0B00
1100
1180
2180
20C0
20C0
4040
4060
FFE0
ENDCHAR
STARTCHAR 220F
ENCODING 8719
SWIDTH 822 0
DWIDTH 16 0
BBX 13 18 1 -4
BITMAP
FFF8
FFF8
C018
C018
C018
C018
C018
C018
C018
C018
C018
C018
C018
C018
C018
C018
C018
C018
ENDCHAR
STARTCHAR 2211
ENCODING 8721
SWIDTH 720 0
DWIDTH 14 0
BBX 12 18 1 -4
BITMAP
FFF0
FFF0
6000
3000
3800
1800
0C00
0600
0300
0700
0600
0C00
1800
3000
6000
6000
FFF0
FFF0
ENDCHAR
STARTCHAR 2212
ENCODING 8722
SWIDTH 565 0
DWIDTH 11 0
BBX 9 2 1 6
BITMAP
FF80
FF80
ENDCHAR
STARTCHAR 2215
ENCODING 8725
SWIDTH 154 0
DWIDTH 3 0
BBX 11 14 -4 0
BITMAP
0020
0040
00C0
0180
0100
0200
0600
0400
0800
1800
3000
2000
4000
C000
ENDCHAR
STARTCHAR 2219
ENCODING 8729
SWIDTH 257 0
DWIDTH 5 0
BBX 2 2 2 6
BITMAP
C0
C0
ENDCHAR
STARTCHAR 221A
ENCODING 8730
SWIDTH 514 0
DWIDTH 10 0
BBX 9 18 1 -1
BITMAP
0080
0080
0080
0080
0080
0080
0100
2100
E100
3100
1900
1900
0E00
0E00
0600
0600
0200
0200
ENDCHAR
STARTCHAR 221E
ENCODING 8734
SWIDTH 720 0
DWIDTH 14 0
BBX 11 6 1 4
BITMAP
71C0
7BE0
CE20
CE20
7BE0
71C0
ENDCHAR
STARTCHAR 221F
ENCODING 8735
SWIDTH 977 0
DWIDTH 19 0
BBX 12 12 3 0
BITMAP
8000
8000
8000
8000
8000
8000
8000
8000
8000
8000
8000
FFF0
ENDCHAR
STARTCHAR 2229
ENCODING 8745
SWIDTH 720 0
DWIDTH 14 0
BBX 11 14 1 0
BITMAP
0F00
3FC0
70C0
6060
4020
4020
C020
C020
C020
C020
C020
C020
C020
C020
ENDCHAR
STARTCHAR 222B
ENCODING 8747
SWIDTH 257 0
DWIDTH 5 0
BBX 5 19 0 -2
BITMAP
18
38
20
20
20
20
20
20
20
20
20
20
20
20
20
20
20
E0
C0
ENDCHAR
STARTCHAR 2248
ENCODING 8776
SWIDTH 514 0
DWIDTH 10 0
BBX 10 7 0 3
BITMAP
7C40
FFC0
8780
0000
7C40
FFC0
8780
ENDCHAR
STARTCHAR 2260
ENCODING 8800
SWIDTH 514 0
DWIDTH 10 0
BBX 9 14 1 0
BITMAP
0300
0200
0200
0400
FF80
FF80
0800
1800
FF80
FF80
2000
2000
4000
4000
ENDCHAR
STARTCHAR 2261
ENCODING 8801
SWIDTH 565 0
DWIDTH 11 0
BBX 9 10 1 2
BITMAP
FF80
FF80
0000
0000
FF80
FF80
0000
0000
FF80
FF80
ENDCHAR
STARTCHAR 2264
ENCODING 8804
SWIDTH 514 0
DWIDTH 10 0
BBX 9 12 1 0
BITMAP
0080
0780
1E00
7000
C000
7000
1E00
0780
0080
0000
FF80
FF80
ENDCHAR
STARTCHAR 2265
ENCODING 8805
SWIDTH 514 0
DWIDTH 10 0
BBX 9 12 1 0
BITMAP
8000
E000
7800
0F00
0180
0F00
7800
E000
8000
0000
FF80
FF80
ENDCHAR
STARTCHAR 2302
ENCODING 8962
SWIDTH 565 0
DWIDTH 11 0
BBX 9 10 1 1
BITMAP
0C00
1200
2100
4100
8080
8080
8080
8080
8080
FF80
ENDCHAR
STARTCHAR 2310
ENCODING 8976
SWIDTH 565 0
DWIDTH 11 0
BBX 9 6 1 4
BITMAP
FF80
FF80
C000
C000
C000
C000
ENDCHAR
STARTCHAR 2320
ENCODING 8992
SWIDTH 565 0
DWIDTH 11 0
BBX 4 21 5 -5
BITMAP
70
10
80
80
80
80
80
80
80
80
80
80
80
80
80
80
80
80
80
80
80
ENDCHAR
STARTCHAR 2321
ENCODING 8993
SWIDTH 565 0
DWIDTH 11 0
BBX 4 21 2 -5
BITMAP
10
10
10
10
10
10
10
10
10
10
10
10
10
10
10
10
10
10
10
D0
60
ENDCHAR
STARTCHAR 2500
ENCODING 9472
SWIDTH 668 0
DWIDTH 13 0
BBX 14 2 0 5
BITMAP
FFFC
FFFC
ENDCHAR
STARTCHAR 2502
ENCODING 9474
SWIDTH 617 0
DWIDTH 12 0
BBX 2 23 4 -6
BITMAP
C0
C0
C0
C0
C0
C0
C0
C0
C0
C0
C0
C0
C0
C0
C0
C0
C0
C0
C0
C0
C0
C0
C0
ENDCHAR
STARTCHAR 250C
ENCODING 9484
SWIDTH 668 0
DWIDTH 13 0
BBX 8 13 6 -6
BITMAP
FF
FF
C0
C0
C0
C0
C0
C0
C0
C0
C0
C0
C0
ENDCHAR
STARTCHAR 2510
ENCODING 9488
SWIDTH 668 0
DWIDTH 13 0
BBX 8 13 0 -6
BITMAP
FF
FF
03
03
03
03
03
03
03
03
03
03
03
ENDCHAR
STARTCHAR 2514
ENCODING 9492
SWIDTH 668 0
DWIDTH 13 0
BBX 8 12 6 5
BITMAP
C0
C0
C0
C0
C0
C0
C0
C0
C0
C0
FF
FF
ENDCHAR
STARTCHAR 2518
ENCODING 9496
SWIDTH 668 0
DWIDTH 13 0
BBX 8 12 0 5
BITMAP
03
03
03
03
03
03
03
03
03
03
FF
FF
ENDCHAR
STARTCHAR 251C
ENCODING 9500
SWIDTH 668 0
DWIDTH 13 0
BBX 8 23 6 -6
BITMAP
C0
C0
C0
C0
C0
C0
C0
C0
C0
C0
FF
FF
C0
C0
C0
C0
C0
C0
C0
C0
C0
C0
C0
ENDCHAR
STARTCHAR 2524
ENCODING 9508
SWIDTH 668 0
DWIDTH 13 0
BBX 8 23 0 -6
BITMAP
03
03
03
03
03
03
03
03
03
03
FF
FF
03
03
03
03
03
03
03
03
03
03
03
ENDCHAR
STARTCHAR 252C
ENCODING 9516
SWIDTH 668 0
DWIDTH 13 0
BBX 14 13 0 -6
BITMAP
FFFC
FFFC
0300
0300
0300
0300
0300
0300
0300
0300
0300
0300
0300
ENDCHAR
STARTCHAR 2534
ENCODING 9524
SWIDTH 668 0
DWIDTH 13 0
BBX 14 12 0 5
BITMAP
0300
0300
0300
0300
0300
0300
0300
0300
0300
0300
FFFC
FFFC
ENDCHAR
STARTCHAR 253C
ENCODING 9532
SWIDTH 668 0
DWIDTH 13 0
BBX 14 23 0 -6
BITMAP
0300
0300
0300
0300
0300
0300
0300
0300
0300
0300
FFFC
FFFC
0300
0300
0300
0300
0300
0300
0300
0300
0300
0300
0300
ENDCHAR
STARTCHAR 2550
ENCODING 9552
SWIDTH 668 0
DWIDTH 13 0
BBX 14 5 0 3
BITMAP
FFFC
0000
0000
FFFC
FFFC
ENDCHAR
STARTCHAR 2551
ENCODING 9553
SWIDTH 668 0
DWIDTH 13 0
BBX 5 23 4 -6
BITMAP
C8
C8
C8
C8
C8
C8
C8
C8
C8
C8
C8
C8
C8
C8
C8
C8
C8
C8
C8
C8
C8
C8
C8
ENDCHAR
STARTCHAR 2552
ENCODING 9554
SWIDTH 668 0
DWIDTH 13 0
BBX 8 14 6 -6
BITMAP
FF
C0
C0
FF
FF
C0
C0
C0
C0
C0
C0
C0
C0
C0
ENDCHAR
STARTCHAR 2553
ENCODING 9555
SWIDTH 668 0
DWIDTH 13 0
BBX 10 13 4 -6
BITMAP
FFC0
FFC0
C800
C800
C800
C800
C800
C800
C800
C800
C800
C800
C800
ENDCHAR
STARTCHAR 2554
ENCODING 9556
SWIDTH 668 0
DWIDTH 13 0
BBX 10 14 4 -6
BITMAP
FFC0
C000
C000
CFC0
CFC0
C800
C800
C800
C800
C800
C800
C800
C800
C800
ENDCHAR
STARTCHAR 2555
ENCODING 9557
SWIDTH 668 0
DWIDTH 13 0
BBX 8 14 0 -6
BITMAP
FF
03
03
FF
FF
03
03
03
03
03
03
03
03
03
ENDCHAR
STARTCHAR 2556
ENCODING 9558
SWIDTH 668 0
DWIDTH 13 0
BBX 9 13 0 -6
BITMAP
FF80
FF80
0C80
0C80
0C80
0C80
0C80
0C80
0C80
0C80
0C80
0C80
0C80
ENDCHAR
STARTCHAR 2557
ENCODING 9559
SWIDTH 668 0
DWIDTH 13 0
BBX 9 14 0 -6
BITMAP
FF80
0080
0080
FC80
FC80
0C80
0C80
0C80
0C80
0C80
0C80
0C80
0C80
0C80
ENDCHAR
STARTCHAR 2558
ENCODING 9560
SWIDTH 668 0
DWIDTH 13 0
BBX 8 14 6 3
BITMAP
C0
C0
C0
C0
C0
C0
C0
C0
C0
FF
C0
C0
FF
FF
ENDCHAR
STARTCHAR 2559
ENCODING 9561
SWIDTH 668 0
DWIDTH 13 0
BBX 10 12 4 5
BITMAP
C800
C800
C800
C800
C800
C800
C800
C800
C800
C800
FFC0
FFC0
ENDCHAR
STARTCHAR 255A
ENCODING 9562
SWIDTH 668 0
DWIDTH 13 0
BBX 10 14 4 3
BITMAP
C800
C800
C800
C800
C800
C800
C800
C800
C800
CFC0
C000
C000
FFC0
FFC0
ENDCHAR
STARTCHAR 255B
ENCODING 9563
SWIDTH 668 0
DWIDTH 13 0
BBX 8 14 0 3
BITMAP
03
03
03
03
03
03
03
03
03
FF
03
03
FF
FF
ENDCHAR
STARTCHAR 255C
ENCODING 9564
SWIDTH 668 0
DWIDTH 13 0
BBX 9 12 0 5
BITMAP
0C80
0C80
0C80
0C80
0C80
0C80
0C80
0C80
0C80
0C80
FF80
FF80
ENDCHAR
STARTCHAR 255D
ENCODING 9565
SWIDTH 668 0
DWIDTH 13 0
BBX 9 14 0 3
BITMAP
0C80
0C80
0C80
0C80
0C80
0C80
0C80
0C80
0C80
FC80
0080
0080
FF80
FF80
ENDCHAR
STARTCHAR 255E
ENCODING 9566
SWIDTH 668 0
DWIDTH 13 0
BBX 8 23 6 -6
BITMAP
C0
C0
C0
C0
C0
C0
C0
C0
C0
FF
C0
C0
FF
FF
C0
C0
C0
C0
C0
C0
C0
C0
C0
ENDCHAR
STARTCHAR 255F
ENCODING 9567
SWIDTH 668 0
DWIDTH 13 0
BBX 10 23 4 -6
BITMAP
C800
C800
C800
C800
C800
C800
C800
C800
C800
C800
CFC0
CFC0
C800
C800
C800
C800
C800
C800
C800
C800
C800
C800
C800
ENDCHAR
STARTCHAR 2560
ENCODING 9568
SWIDTH 668 0
DWIDTH 13 0
BBX 10 23 4 -6
BITMAP
C800
C800
C800
C800
C800
C800
C800
C800
C800
CFC0
C000
C000
CFC0
CFC0
C800
C800
C800
C800
C800
C800
C800
C800
C800
ENDCHAR
STARTCHAR 2561
ENCODING 9569
SWIDTH 668 0
DWIDTH 13 0
BBX 8 23 0 -6
BITMAP
03
03
03
03
03
03
03
03
03
FF
03
03
FF
FF
03
03
03
03
03
03
03
03
03
ENDCHAR
STARTCHAR 2562
ENCODING 9570
SWIDTH 668 0
DWIDTH 13 0
BBX 9 23 0 -6
BITMAP
0C80
0C80
0C80
0C80
0C80
0C80
0C80
0C80
0C80
0C80
FC80
FC80
0C80
0C80
0C80
0C80
0C80
0C80
0C80
0C80
0C80
0C80
0C80
ENDCHAR
STARTCHAR 2563
ENCODING 9571
SWIDTH 668 0
DWIDTH 13 0
BBX 9 23 0 -6
BITMAP
0C80
0C80
0C80
0C80
0C80
0C80
0C80
0C80
0C80
FC80
0080
0080
FC80
FC80
0C80
0C80
0C80
0C80
0C80
0C80
0C80
0C80
0C80
ENDCHAR
STARTCHAR 2564
ENCODING 9572
SWIDTH 668 0
DWIDTH 13 0
BBX 14 14 0 -6
BITMAP
FFFC
0000
0000
FFFC
FFFC
0300
0300
0300
0300
0300
0300
0300
0300
0300
ENDCHAR
STARTCHAR 2565
ENCODING 9573
SWIDTH 668 0
DWIDTH 13 0
BBX 14 13 0 -6
BITMAP
FFFC
FFFC
0C80
0C80
0C80
0C80
0C80
0C80
0C80
0C80
0C80
0C80
0C80
ENDCHAR
STARTCHAR 2566
ENCODING 9574
SWIDTH 668 0
DWIDTH 13 0
BBX 14 14 0 -6
BITMAP
FFFC
0000
0000
FCFC
FCFC
0C80
0C80
0C80
0C80
0C80
0C80
0C80
0C80
0C80
ENDCHAR
STARTCHAR 2567
ENCODING 9575
SWIDTH 668 0
DWIDTH 13 0
BBX 14 14 0 3
BITMAP
0300
0300
0300
0300
0300
0300
0300
0300
0300
FFFC
0000
0000
FFFC
FFFC
ENDCHAR
STARTCHAR 2568
ENCODING 9576
SWIDTH 668 0
DWIDTH 13 0
BBX 14 12 0 5
BITMAP
0C80
0C80
0C80
0C80
0C80
0C80
0C80
0C80
0C80
0C80
FFFC
FFFC
ENDCHAR
STARTCHAR 2569
ENCODING 9577
SWIDTH 668 0
DWIDTH 13 0
BBX 14 14 0 3
BITMAP
0C80
0C80
0C80
0C80
0C80
0C80
0C80
0C80
0C80
FCFC
0000
0000
FFFC
FFFC
ENDCHAR
STARTCHAR 256A
ENCODING 9578
SWIDTH 668 0
DWIDTH 13 0
BBX 14 23 0 -6
BITMAP
0300
0300
0300
0300
0300
0300
0300
0300
0300
FFFC
0300
0300
FFFC
FFFC
0300
0300
0300
0300
0300
0300
0300
0300
0300
ENDCHAR
STARTCHAR 256B
ENCODING 9579
SWIDTH 668 0
DWIDTH 13 0
BBX 14 23 0 -6
BITMAP
0C80
0C80
0C80
0C80
0C80
0C80
0C80
0C80
0C80
0C80
FFFC
FFFC
0C80
0C80
0C80
0C80
0C80
0C80
0C80
0C80
0C80
0C80
0C80
ENDCHAR
STARTCHAR 256C
ENCODING 9580
SWIDTH 668 0
DWIDTH 13 0
BBX 14 23 0 -6
BITMAP
0C80
0C80
0C80
0C80
0C80
0C80
0C80
0C80
0C80
FCFC
0000
0000
FCFC
FCFC
0C80
0C80
0C80
0C80
0C80
0C80
0C80
0C80
0C80
ENDCHAR
STARTCHAR 2580
ENCODING 9600
SWIDTH 668 0
DWIDTH 13 0
BBX 14 11 0 6
BITMAP
FFFC
FFFC
FFFC
FFFC
FFFC
FFFC
FFFC
FFFC
FFFC
FFFC
FFFC
ENDCHAR
STARTCHAR 2584
ENCODING 9604
SWIDTH 668 0
DWIDTH 13 0
BBX 14 12 0 -6
BITMAP
FFFC
FFFC
FFFC
FFFC
FFFC
FFFC
FFFC
FFFC
FFFC
FFFC
FFFC
FFFC
ENDCHAR
STARTCHAR 2588
ENCODING 9608
SWIDTH 668 0
DWIDTH 13 0
BBX 14 23 0 -6
BITMAP
FFFC
FFFC
FFFC
FFFC
FFFC
FFFC
FFFC
FFFC
FFFC
FFFC
FFFC
FFFC
FFFC
FFFC
FFFC
FFFC
FFFC
FFFC
FFFC
FFFC
FFFC
FFFC
FFFC
ENDCHAR
STARTCHAR 258C
ENCODING 9612
SWIDTH 668 0
DWIDTH 13 0
BBX 7 23 0 -6
BITMAP
FE
FE
FE
FE
FE
FE
FE
FE
FE
FE
FE
FE
FE
FE
FE
FE
FE
FE
FE
FE
FE
FE
FE
ENDCHAR
STARTCHAR 2590
ENCODING 9616
SWIDTH 668 0
DWIDTH 13 0
BBX 7 23 7 -6
BITMAP
FE
FE
FE
FE
FE
FE
FE
FE
FE
FE
FE
FE
FE
FE
FE
FE
FE
FE
FE
FE
FE
FE
FE
ENDCHAR
STARTCHAR 2591
ENCODING 9617
SWIDTH 668 0
DWIDTH 13 0
BBX 13 22 1 -5
BITMAP
8440
0000
2118
0000
8440
0000
0000
2118
0000
8440
0000
2118
0000
0000
8440
0000
2118
0000
8440
0000
0000
2118
ENDCHAR
STARTCHAR 2592
ENCODING 9618
SWIDTH 668 0
DWIDTH 13 0
BBX 14 22 0 -5
BITMAP
52A4
0000
AD58
0000
52A4
0000
0000
AD58
0000
52A4
0000
AD58
0000
0000
52A4
0000
AD58
0000
52A4
0000
0000
AD58
ENDCHAR
STARTCHAR 2593
ENCODING 9619
SWIDTH 720 0
DWIDTH 14 0
BBX 14 23 0 -6
BITMAP
5AB4
FFFC
A548
FFFC
5AB4
FFFC
FFFC
A548
FFFC
5AB4
FFFC
A548
FFFC
FFFC
5AB4
FFFC
A548
FFFC
5AB4
FFFC
FFFC
A548
FFFC
ENDCHAR
STARTCHAR 25A0
ENCODING 9632
SWIDTH 565 0
DWIDTH 11 0
BBX 9 9 1 0
BITMAP
FF80
FF80
FF80
FF80
FF80
FF80
FF80
FF80
FF80
ENDCHAR
STARTCHAR 25A1
ENCODING 9633
SWIDTH 565 0
DWIDTH 11 0
BBX 9 9 1 0
BITMAP
FF80
8080
8080
8080
8080
8080
8080
8080
FF80
ENDCHAR
STARTCHAR 25AA
ENCODING 9642
SWIDTH 360 0
DWIDTH 7 0
BBX 5 4 1 4
BITMAP
F8
F8
F8
F8
ENDCHAR
STARTCHAR 25AB
ENCODING 9643
SWIDTH 360 0
DWIDTH 7 0
BBX 5 4 1 4
BITMAP
88
88
88
F8
ENDCHAR
STARTCHAR 25AC
ENCODING 9644
SWIDTH 977 0
DWIDTH 19 0
BBX 19 4 0 3
BITMAP
FFFFE0
FFFFE0
FFFFE0
FFFFE0
ENDCHAR
STARTCHAR 25B2
ENCODING 9650
SWIDTH 977 0
DWIDTH 19 0
BBX 13 13 3 0
BITMAP
0200
0200
0700
0700
0F80
0F80
1FC0
1FC0
3FE0
3FE0
7FF0
7FF0
FFF8
ENDCHAR
STARTCHAR 25BA
ENCODING 9658
SWIDTH 977 0
DWIDTH 19 0
BBX 13 13 3 0
BITMAP
8000
E000
F800
FE00
FF80
FFE0
FFF8
FFE0
FF80
FE00
F800
E000
8000
ENDCHAR
STARTCHAR 25BC
ENCODING 9660
SWIDTH 977 0
DWIDTH 19 0
BBX 13 13 3 0
BITMAP
FFF8
7FF0
7FF0
3FE0
3FE0
1FC0
1FC0
0F80
0F80
0700
0700
0200
0200
ENDCHAR
STARTCHAR 25C4
ENCODING 9668
SWIDTH 977 0
DWIDTH 19 0
BBX 13 13 3 0
BITMAP
0008
0038
00F8
03F8
0FF8
3FF8
FFF8
3FF8
0FF8
03F8
00F8
0038
0008
ENDCHAR
STARTCHAR 25CA
ENCODING 9674
SWIDTH 462 0
DWIDTH 9 0
BBX 8 14 1 0
BITMAP
10
28
28
44
42
82
81
81
82
42
44
28
28
10
ENDCHAR
STARTCHAR 25CB
ENCODING 9675
SWIDTH 565 0
DWIDTH 11 0
BBX 8 8 2 1
BITMAP
44
82
81
01
01
80
42
38
ENDCHAR
STARTCHAR 25CF
ENCODING 9679
SWIDTH 565 0
DWIDTH 11 0
BBX 8 8 2 1
BITMAP
7C
FE
FF
FF
FF
FE
7E
38
ENDCHAR
STARTCHAR 25D8
ENCODING 9688
SWIDTH 565 0
DWIDTH 11 0
BBX 9 9 1 0
BITMAP
FF80
FF80
FF80
E380
E180
E380
FF80
FF80
FF80
ENDCHAR
STARTCHAR 25D9
ENCODING 9689
SWIDTH 565 0
DWIDTH 11 0
BBX 11 11 0 0
BITMAP
FFE0
FFE0
E6E0
DF60
DFA0
FFA0
FFA0
DFE0
EF60
F1E0
FFE0
ENDCHAR
STARTCHAR 25E6
ENCODING 9702
SWIDTH 360 0
DWIDTH 7 0
BBX 5 5 1 4
BITMAP
20
90
88
88
70
ENDCHAR
STARTCHAR 263A
ENCODING 9786
SWIDTH 977 0
DWIDTH 19 0
BBX 12 12 4 -1
BITMAP
0E00
3080
4040
8020
91A0
9190
8010
8000
9120
4E20
20C0
1F00
ENDCHAR
STARTCHAR 263B
ENCODING 9787
SWIDTH 1028 0
DWIDTH 20 0
BBX 12 12 4 -1
BITMAP
0F00
3FC0
7FE0
7FE0
EF70
EF70
FFF0
FFF0
7FE0
70E0
3FC0
1F80
ENDCHAR
STARTCHAR 263C
ENCODING 9788
SWIDTH 874 0
DWIDTH 17 0
BBX 17 17 0 -2
BITMAP
008000
008000
208200
11E400
0C1800
080800
000400
100400
F00780
100400
000400
080800
0C1800
11E400
208200
008000
008000
ENDCHAR
STARTCHAR 2640
ENCODING 9792
SWIDTH 720 0
DWIDTH 14 0
BBX 10 14 2 -4
BITMAP
1E00
0080
0000
8040
8040
8040
0040
4000
2000
0E00
0000
0000
0000
7FC0
ENDCHAR
STARTCHAR 2642
ENCODING 9794
SWIDTH 720 0
DWIDTH 14 0
BBX 12 17 1 -2
BITMAP
0060
0160
0440
0000
0090
0010
0100
0000
2300
4080
8000
8040
8040
8040
8000
4080
2100
ENDCHAR
STARTCHAR 2660
ENCODING 9824
SWIDTH 514 0
DWIDTH 10 0
BBX 9 10 1 1
BITMAP
1800
3C00
7E00
FF00
FF00
FF80
E700
0000
1800
3E00
ENDCHAR
STARTCHAR 2663
ENCODING 9827
SWIDTH 617 0
DWIDTH 12 0
BBX 11 11 1 0
BITMAP
1E00
1F00
1F00
7EC0
FFE0
FFE0
FFE0
F3C0
0400
0C00
3F00
ENDCHAR
STARTCHAR 2665
ENCODING 9829
SWIDTH 565 0
DWIDTH 11 0
BBX 10 11 1 0
BITMAP
F780
FFC0
FFC0
FF80
7F80
7F00
3E00
1E00
1C00
0800
0800
ENDCHAR
STARTCHAR 2666
ENCODING 9830
SWIDTH 514 0
DWIDTH 10 0
BBX 8 11 1 0
BITMAP
10
18
3C
7E
FE
FF
FE
7C
3C
18
10
ENDCHAR
STARTCHAR 266A
ENCODING 9834
SWIDTH 514 0
DWIDTH 10 0
BBX 9 13 0 0
BITMAP
0600
0780
0380
0080
0080
0000
0000
0000
0000
7800
F800
F800
7800
ENDCHAR
STARTCHAR 266B
ENCODING 9835
SWIDTH 720 0
DWIDTH 14 0
BBX 11 15 1 -1
BITMAP
0060
03E0
0FE0
0E20
0820
0820
0820
0820
0820
09E0
0BE0
FBE0
F9E0
F800
F000
ENDCHAR
STARTCHAR E801
ENCODING 59393
SWIDTH 257 0
DWIDTH 5 0
BBX 4 12 -1 0
BITMAP
C0
00
30
30
30
30
30
30
30
30
30
30
ENDCHAR
STARTCHAR E802
ENCODING 59394
SWIDTH 514 0
DWIDTH 10 0
BBX 8 14 0 -4
BITMAP
FC
FE
07
03
01
01
01
31
01
31
01
01
01
01
ENDCHAR
STARTCHAR E803
ENCODING 59395
SWIDTH 514 0
DWIDTH 10 0
BBX 8 14 0 -4
BITMAP
FC
FE
07
03
01
01
01
79
11
11
01
01
01
01
ENDCHAR
STARTCHAR E804
ENCODING 59396
SWIDTH 462 0
DWIDTH 9 0
BBX 10 14 -2 0
BITMAP
1000
D000
1000
1000
1FC0
1FC0
00C0
00C0
0080
0180
0300
0300
0300
0300
ENDCHAR
STARTCHAR E805
ENCODING 59397
SWIDTH 462 0
DWIDTH 9 0
BBX 10 14 -2 0
BITMAP
1000
D000
1000
1000
1FC0
1FC0
00C0
0CC0
0080
0180
0300
0300
0300
0300
ENDCHAR
STARTCHAR E818
ENCODING 59416
SWIDTH 205 0
DWIDTH 4 0
BBX 3 7 1 12
BITMAP
60
80
60
80
40
60
80
ENDCHAR
STARTCHAR E83A
ENCODING 59450
SWIDTH 617 0
DWIDTH 12 0
BBX 13 2 -1 3
BITMAP
FFF8
FFF8
ENDCHAR
STARTCHAR F001
ENCODING 61441
SWIDTH 514 0
DWIDTH 10 0
BBX 8 14 0 0
BITMAP
1D
3D
30
20
F9
F9
21
21
21
21
21
21
21
21
ENDCHAR
STARTCHAR F002
ENCODING 61442
SWIDTH 514 0
DWIDTH 10 0
BBX 8 14 0 0
BITMAP
1D
3D
31
21
F9
F9
21
21
21
21
21
21
21
21
ENDCHAR
STARTCHAR F004
ENCODING 61444
SWIDTH 308 0
DWIDTH 6 0
BBX 2 4 2 -5
BITMAP
C0
C0
40
80
ENDCHAR
STARTCHAR F005
ENCODING 61445
SWIDTH 308 0
DWIDTH 6 0
BBX 4 3 1 -4
BITMAP
70
30
E0
ENDCHAR
STARTCHAR F006
ENCODING 61446
SWIDTH 0 0
DWIDTH 0 0
BBX 3 2 -4 16
BITMAP
60
C0
ENDCHAR
STARTCHAR F007
ENCODING 61447
SWIDTH 0 0
DWIDTH 0 0
BBX 2 2 -7 16
BITMAP
C0
80
ENDCHAR
STARTCHAR F008
ENCODING 61448
SWIDTH 0 0
DWIDTH 0 0
BBX 3 3 -3 11
BITMAP
60
40
C0
ENDCHAR
STARTCHAR F009
ENCODING 61449
SWIDTH 0 0
DWIDTH 0 0
BBX 3 3 -6 15
BITMAP
60
40
C0
ENDCHAR
STARTCHAR F00A
ENCODING 61450
SWIDTH 0 0
DWIDTH 0 0
BBX 1 21 0 -4
BITMAP
80
80
80
80
80
80
80
80
80
00
00
00
80
80
80
80
80
80
80
80
80
ENDCHAR
STARTCHAR F00B
ENCODING 61451
SWIDTH 0 0
DWIDTH 0 0
BBX 4 21 -2 -4
BITMAP
F0
40
40
40
40
40
40
40
40
40
40
40
40
40
40
40
40
40
40
40
F0
ENDCHAR
STARTCHAR F00C
ENCODING 61452
SWIDTH 0 0
DWIDTH 0 0
BBX 2 21 0 -4
BITMAP
80
C0
80
80
80
80
80
80
80
80
80
80
80
80
80
80
80
80
80
80
80
ENDCHAR
STARTCHAR F00D
ENCODING 61453
SWIDTH 0 0
DWIDTH 0 0
BBX 2 21 -2 -4
BITMAP
40
C0
40
40
40
40
40
40
40
40
40
40
40
40
40
40
40
40
40
40
40
ENDCHAR
STARTCHAR F00E
ENCODING 61454
SWIDTH 0 0
DWIDTH 0 0
BBX 2 21 0 -4
BITMAP
80
80
80
80
80
80
80
80
80
80
80
80
80
80
80
80
80
80
80
80
C0
ENDCHAR
STARTCHAR F00F
ENCODING 61455
SWIDTH 0 0
DWIDTH 0 0
BBX 3 3 -8 11
BITMAP
C0
60
20
ENDCHAR
STARTCHAR F010
ENCODING 61456
SWIDTH 0 0
DWIDTH 0 0
BBX 4 2 -5 16
BITMAP
F0
30
ENDCHAR
STARTCHAR F011
ENCODING 61457
SWIDTH 0 0
DWIDTH 0 0
BBX 3 2 -8 16
BITMAP
E0
60
ENDCHAR
STARTCHAR F012
ENCODING 61458
SWIDTH 0 0
DWIDTH 0 0
BBX 4 3 -4 11
BITMAP
E0
30
70
ENDCHAR
STARTCHAR F013
ENCODING 61459
SWIDTH 0 0
DWIDTH 0 0
BBX 4 3 -7 15
BITMAP
E0
30
70
ENDCHAR
STARTCHAR F014
ENCODING 61460
SWIDTH 0 0
DWIDTH 0 0
BBX 4 3 -7 11
BITMAP
E0
30
70
ENDCHAR
STARTCHAR F015
ENCODING 61461
SWIDTH 0 0
DWIDTH 0 0
BBX 7 2 -10 16
BITMAP
72
9C
ENDCHAR
STARTCHAR F016
ENCODING 61462
SWIDTH 0 0
DWIDTH 0 0
BBX 6 2 -10 15
BITMAP
64
9C
ENDCHAR
STARTCHAR F017
ENCODING 61463
SWIDTH 0 0
DWIDTH 0 0
BBX 6 2 -12 15
BITMAP
64
9C
ENDCHAR
STARTCHAR F018
ENCODING 61464
SWIDTH 0 0
DWIDTH 0 0
BBX 7 2 -13 15
BITMAP
76
DC
ENDCHAR
STARTCHAR F019
ENCODING 61465
SWIDTH 0 0
DWIDTH 0 0
BBX 6 2 -8 11
BITMAP
EC
98
ENDCHAR
STARTCHAR F01A
ENCODING 61466
SWIDTH 0 0
DWIDTH 0 0
BBX 6 2 -10 11
BITMAP
E4
98
ENDCHAR
STARTCHAR F01B
ENCODING 61467
SWIDTH 0 0
DWIDTH 0 0
BBX 6 2 -11 11
BITMAP
64
9C
ENDCHAR
STARTCHAR F01C
ENCODING 61468
SWIDTH 0 0
DWIDTH 0 0
BBX 6 2 -6 15
BITMAP
74
DC
ENDCHAR
STARTCHAR F01D
ENCODING 61469
SWIDTH 0 0
DWIDTH 0 0
BBX 6 2 -5 11
BITMAP
E4
98
ENDCHAR
STARTCHAR F01E
ENCODING 61470
SWIDTH 0 0
DWIDTH 0 0
BBX 2 2 -7 -3
BITMAP
C0
C0
ENDCHAR
STARTCHAR F01F
ENCODING 61471
SWIDTH 0 0
DWIDTH 0 0
BBX 2 2 -8 -3
BITMAP
C0
C0
ENDCHAR
STARTCHAR F020
ENCODING 61472
SWIDTH 0 0
DWIDTH 0 0
BBX 2 2 -10 -3
BITMAP
C0
C0
ENDCHAR
STARTCHAR F021
ENCODING 61473
SWIDTH 0 0
DWIDTH 0 0
BBX 2 2 -8 -3
BITMAP
C0
C0
ENDCHAR
STARTCHAR F022
ENCODING 61474
SWIDTH 0 0
DWIDTH 0 0
BBX 1 2 -10 -3
BITMAP
80
80
ENDCHAR
STARTCHAR F023
ENCODING 61475
SWIDTH 0 0
DWIDTH 0 0
BBX 2 2 -6 -3
BITMAP
C0
C0
ENDCHAR
STARTCHAR F024
ENCODING 61476
SWIDTH 0 0
DWIDTH 0 0
BBX 2 2 -6 -3
BITMAP
C0
C0
ENDCHAR
STARTCHAR F025
ENCODING 61477
SWIDTH 0 0
DWIDTH 0 0
BBX 2 2 -6 -3
BITMAP
C0
C0
ENDCHAR
STARTCHAR F026
ENCODING 61478
SWIDTH 0 0
DWIDTH 0 0
BBX 2 2 -8 -3
BITMAP
C0
C0
ENDCHAR
STARTCHAR F027
ENCODING 61479
SWIDTH 0 0
DWIDTH 0 0
BBX 2 2 -7 -3
BITMAP
C0
C0
ENDCHAR
STARTCHAR F028
ENCODING 61480
SWIDTH 0 0
DWIDTH 0 0
BBX 2 2 -9 -3
BITMAP
C0
C0
ENDCHAR
STARTCHAR F029
ENCODING 61481
SWIDTH 0 0
DWIDTH 0 0
BBX 2 2 -4 -3
BITMAP
C0
C0
ENDCHAR
STARTCHAR F02A
ENCODING 61482
SWIDTH 0 0
DWIDTH 0 0
BBX 2 2 -3 -3
BITMAP
C0
C0
ENDCHAR
STARTCHAR F02B
ENCODING 61483
SWIDTH 0 0
DWIDTH 0 0
BBX 2 2 -7 -3
BITMAP
C0
C0
ENDCHAR
STARTCHAR F02C
ENCODING 61484
SWIDTH 0 0
DWIDTH 0 0
BBX 2 2 -2 -3
BITMAP
C0
C0
ENDCHAR
STARTCHAR F02D
ENCODING 61485
SWIDTH 0 0
DWIDTH 0 0
BBX 6 2 -9 16
BITMAP
E4
98
ENDCHAR
STARTCHAR F02E
ENCODING 61486
SWIDTH 0 0
DWIDTH 0 0
BBX 6 2 -9 15
BITMAP
E4
98
ENDCHAR
STARTCHAR F02F
ENCODING 61487
SWIDTH 0 0
DWIDTH 0 0
BBX 6 2 -10 16
BITMAP
E4
98
ENDCHAR
STARTCHAR F030
ENCODING 61488
SWIDTH 0 0
DWIDTH 0 0
BBX 6 2 -10 15
BITMAP
EC
98
ENDCHAR
STARTCHAR F031
ENCODING 61489
SWIDTH 205 0
DWIDTH 4 0
BBX 2 10 1 0
BITMAP
C0
C0
C0
C0
C0
C0
C0
C0
C0
C0
ENDCHAR
STARTCHAR FB01
ENCODING 64257
SWIDTH 514 0
DWIDTH 10 0
BBX 8 14 0 0
BITMAP
1D
3D
30
20
F9
F9
21
21
21
21
21
21
21
21
ENDCHAR
STARTCHAR FB02
ENCODING 64258
SWIDTH 514 0
DWIDTH 10 0
BBX 8 14 0 0
BITMAP
1D
3D
31
21
F9
F9
21
21
21
21
21
21
21
21
ENDCHAR
STARTCHAR FB1D
ENCODING 64285
SWIDTH 257 0
DWIDTH 5 0
BBX 2 8 1 2
BITMAP
C0
C0
C0
C0
C0
00
00
40
ENDCHAR
STARTCHAR FB1E
ENCODING 64286
SWIDTH 0 0
DWIDTH 0 0
BBX 6 2 -3 12
BITMAP
CC
78
ENDCHAR
STARTCHAR FB1F
ENCODING 64287
SWIDTH 462 0
DWIDTH 9 0
BBX 7 7 1 3
BITMAP
C6
C6
C6
C6
C6
00
FE
ENDCHAR
STARTCHAR FB20
ENCODING 64288
SWIDTH 514 0
DWIDTH 10 0
BBX 9 10 0 0
BITMAP
6180
2180
3180
3180
3180
3180
1300
1B00
FE00
FC00
ENDCHAR
STARTCHAR FB2A
ENCODING 64298
SWIDTH 668 0
DWIDTH 13 0
BBX 11 13 1 0
BITMAP
0020
0000
0000
C460
C460
C460
CC60
CC60
F860
40C0
61C0
3F80
1F00
ENDCHAR
STARTCHAR FB2B
ENCODING 64299
SWIDTH 668 0
DWIDTH 13 0
BBX 11 13 1 0
BITMAP
C000
0000
0000
C460
C460
C460
CC60
CC60
F860
40C0
61C0
3F80
1F00
ENDCHAR
STARTCHAR FB2C
ENCODING 64300
SWIDTH 668 0
DWIDTH 13 0
BBX 11 13 1 0
BITMAP
0020
0000
0000
C460
C460
C460
CC60
CC60
FB60
40C0
61C0
3F80
1F00
ENDCHAR
STARTCHAR FB2D
ENCODING 64301
SWIDTH 668 0
DWIDTH 13 0
BBX 11 13 1 0
BITMAP
C000
0000
0000
C460
C460
C460
CC60
CC60
FB60
40C0
61C0
3F80
1F00
ENDCHAR
STARTCHAR FB2E
ENCODING 64302
SWIDTH 565 0
DWIDTH 11 0
BBX 9 13 1 -3
BITMAP
E180
6100
3300
3B00
7F00
4E00
C600
C600
C300
C180
0000
0000
3C00
ENDCHAR
STARTCHAR FB2F
ENCODING 64303
SWIDTH 565 0
DWIDTH 11 0
BBX 9 15 1 -5
BITMAP
E180
6100
3300
3B00
7F00
4E00
C600
C600
C300
C180
0000
0000
3C00
0800
0800
ENDCHAR
STARTCHAR FB30
ENCODING 64304
SWIDTH 565 0
DWIDTH 11 0
BBX 9 10 1 0
BITMAP
E180
6100
3300
3B00
7F00
4E00
C600
C600
DB00
C180
ENDCHAR
STARTCHAR FB31
ENCODING 64305
SWIDTH 514 0
DWIDTH 10 0
BBX 10 10 0 0
BITMAP
7C00
7E00
0700
0300
3100
0100
0100
0100
FFC0
FFC0
ENDCHAR
STARTCHAR FB32
ENCODING 64306
SWIDTH 411 0
DWIDTH 8 0
BBX 7 10 0 0
BITMAP
78
7C
0C
3C
0C
1C
3C
64
66
C6
ENDCHAR
STARTCHAR FB33
ENCODING 64307
SWIDTH 514 0
DWIDTH 10 0
BBX 9 10 0 0
BITMAP
FF80
FF80
0300
1B00
0300
0300
0300
0300
0300
0300
ENDCHAR
STARTCHAR FB34
ENCODING 64308
SWIDTH 565 0
DWIDTH 11 0
BBX 9 10 1 0
BITMAP
FE00
7F00
0380
0180
C980
C180
C180
C180
C180
C180
ENDCHAR
STARTCHAR FB35
ENCODING 64309
SWIDTH 257 0
DWIDTH 5 0
BBX 4 10 0 0
BITMAP
30
30
30
30
F0
30
30
30
30
30
ENDCHAR
STARTCHAR FB36
ENCODING 64310
SWIDTH 411 0
DWIDTH 8 0
BBX 8 10 0 0
BITMAP
3F
3F
0C
D8
18
18
18
18
18
18
ENDCHAR
STARTCHAR FB38
ENCODING 64312
SWIDTH 565 0
DWIDTH 11 0
BBX 9 10 1 0
BITMAP
C700
CF80
C980
C180
CD80
C180
C180
6380
7F00
1E00
ENDCHAR
STARTCHAR FB39
ENCODING 64313
SWIDTH 257 0
DWIDTH 5 0
BBX 4 5 0 5
BITMAP
30
30
F0
30
30
ENDCHAR
STARTCHAR FB3A
ENCODING 64314
SWIDTH 514 0
DWIDTH 10 0
BBX 8 14 0 -4
BITMAP
FC
FE
07
03
11
01
01
01
01
01
01
01
01
01
ENDCHAR
STARTCHAR FB3B
ENCODING 64315
SWIDTH 462 0
DWIDTH 9 0
BBX 7 10 1 0
BITMAP
F0
FC
0C
06
66
06
06
0C
FC
F0
ENDCHAR
STARTCHAR FB3C
ENCODING 64316
SWIDTH 462 0
DWIDTH 9 0
BBX 7 14 1 0
BITMAP
80
80
80
80
FE
FE
06
26
04
0C
18
18
18
18
ENDCHAR
STARTCHAR FB3E
ENCODING 64318
SWIDTH 565 0
DWIDTH 11 0
BBX 9 10 1 0
BITMAP
CE00
DF00
7180
6180
6D80
6180
4180
4180
CF80
CF80
ENDCHAR
STARTCHAR FB40
ENCODING 64320
SWIDTH 360 0
DWIDTH 7 0
BBX 4 10 1 0
BITMAP
E0
F0
30
10
90
10
10
10
F0
F0
ENDCHAR
STARTCHAR FB41
ENCODING 64321
SWIDTH 565 0
DWIDTH 11 0
BBX 9 10 1 0
BITMAP
3E00
7F00
E380
C180
C980
C180
C180
E380
7F00
3E00
ENDCHAR
STARTCHAR FB43
ENCODING 64323
SWIDTH 565 0
DWIDTH 11 0
BBX 8 14 1 -4
BITMAP
FC
FF
C3
C3
C1
CD
61
01
01
01
01
01
01
01
ENDCHAR
STARTCHAR FB44
ENCODING 64324
SWIDTH 514 0
DWIDTH 10 0
BBX 9 10 1 0
BITMAP
FC00
FE00
C700
C300
C180
6D80
0300
8700
FE00
7C00
ENDCHAR
STARTCHAR FB46
ENCODING 64326
SWIDTH 462 0
DWIDTH 9 0
BBX 8 10 0 0
BITMAP
C3
63
33
33
7E
0C
04
06
7F
7F
ENDCHAR
STARTCHAR FB47
ENCODING 64327
SWIDTH 514 0
DWIDTH 10 0
BBX 8 14 1 -4
BITMAP
FF
FF
01
19
43
43
46
44
44
44
40
40
40
40
ENDCHAR
STARTCHAR FB48
ENCODING 64328
SWIDTH 514 0
DWIDTH 10 0
BBX 8 10 0 0
BITMAP
FC
FE
07
03
11
01
01
01
01
01
ENDCHAR
STARTCHAR FB49
ENCODING 64329
SWIDTH 668 0
DWIDTH 13 0
BBX 11 10 1 0
BITMAP
C460
C460
C460
CC60
CC60
FB60
40C0
61C0
3F80
1F00
ENDCHAR
STARTCHAR FB4A
ENCODING 64330
SWIDTH 617 0
DWIDTH 12 0
BBX 11 10 0 0
BITMAP
7F80
7FC0
18E0
1860
1B60
1860
1860
1860
7860
F060
ENDCHAR
STARTCHAR FB4B
ENCODING 64331
SWIDTH 257 0
DWIDTH 5 0
BBX 2 13 1 0
BITMAP
40
00
00
C0
C0
C0
C0
C0
C0
C0
C0
C0
C0
ENDCHAR
STARTCHAR FB4C
ENCODING 64332
SWIDTH 514 0
DWIDTH 10 0
BBX 10 13 0 0
BITMAP
1C00
0000
0000
7C00
7E00
0700
0300
0100
0100
0100
0100
FFC0
FFC0
ENDCHAR
STARTCHAR FB4D
ENCODING 64333
SWIDTH 462 0
DWIDTH 9 0
BBX 7 13 1 0
BITMAP
78
00
00
F0
FC
0C
06
06
06
06
0C
FC
F0
ENDCHAR
STARTCHAR FB4E
ENCODING 64334
SWIDTH 514 0
DWIDTH 10 0
BBX 9 13 1 0
BITMAP
3C00
0000
0000
FC00
FE00
C700
C300
C180
7180
0300
8700
FE00
7C00
ENDCHAR
STARTCHAR FB4F
ENCODING 64335
SWIDTH 565 0
DWIDTH 11 0
BBX 9 14 1 0
BITMAP
8000
8000
8000
8000
E180
E180
3180
3B00
7F00
6E00
4600
4700
C300
C180
ENDCHAR
STARTCHAR FB50
ENCODING 64336
SWIDTH 205 0
DWIDTH 4 0
BBX 4 15 0 2
BITMAP
30
F0
80
00
40
60
20
20
20
20
20
20
20
20
20
ENDCHAR
STARTCHAR FB51
ENCODING 64337
SWIDTH 205 0
DWIDTH 4 0
BBX 5 14 -1 3
BITMAP
30
F0
00
00
60
20
20
20
20
20
20
20
18
18
ENDCHAR
STARTCHAR FB52
ENCODING 64338
SWIDTH 720 0
DWIDTH 14 0
BBX 13 11 1 -2
BITMAP
8010
8010
8010
8008
FFF8
7FF8
0000
0200
0200
0200
0200
ENDCHAR
STARTCHAR FB53
ENCODING 64339
SWIDTH 720 0
DWIDTH 14 0
BBX 13 11 1 -2
BITMAP
8010
8010
8010
8008
FFF8
7FF8
0000
0200
0200
0200
0200
ENDCHAR
STARTCHAR FB54
ENCODING 64340
SWIDTH 257 0
DWIDTH 5 0
BBX 6 11 -1 -2
BITMAP
08
08
0C
04
FC
FC
00
30
30
10
10
ENDCHAR
STARTCHAR FB55
ENCODING 64341
SWIDTH 257 0
DWIDTH 5 0
BBX 6 11 -1 -2
BITMAP
08
08
0C
04
FC
FC
00
30
30
10
10
ENDCHAR
STARTCHAR FB56
ENCODING 64342
SWIDTH 720 0
DWIDTH 14 0
BBX 13 11 1 -2
BITMAP
8010
8010
8010
8008
FFF8
7FF8
0000
0100
0500
0700
0300
ENDCHAR
STARTCHAR FB57
ENCODING 64343
SWIDTH 720 0
DWIDTH 14 0
BBX 13 11 1 -2
BITMAP
8010
8010
8010
8008
FFF8
7FF8
0000
0100
0500
0700
0300
ENDCHAR
STARTCHAR FB58
ENCODING 64344
SWIDTH 257 0
DWIDTH 5 0
BBX 6 11 -1 -2
BITMAP
08
08
0C
04
FC
FC
00
08
28
38
18
ENDCHAR
STARTCHAR FB59
ENCODING 64345
SWIDTH 257 0
DWIDTH 5 0
BBX 6 11 -1 -2
BITMAP
08
08
0C
04
FC
FC
00
08
28
38
18
ENDCHAR
STARTCHAR FB5A
ENCODING 64346
SWIDTH 720 0
DWIDTH 14 0
BBX 13 12 1 -3
BITMAP
8010
8010
8010
8008
FFF8
7FF8
0000
0300
0D00
0D00
0500
0400
ENDCHAR
STARTCHAR FB5B
ENCODING 64347
SWIDTH 720 0
DWIDTH 14 0
BBX 13 12 1 -3
BITMAP
8010
8010
8010
8008
FFF8
7FF8
0000
0300
0D00
0D00
0500
0400
ENDCHAR
STARTCHAR FB5C
ENCODING 64348
SWIDTH 257 0
DWIDTH 5 0
BBX 6 12 -1 -3
BITMAP
08
08
0C
04
FC
FC
00
18
68
68
28
20
ENDCHAR
STARTCHAR FB5D
ENCODING 64349
SWIDTH 257 0
DWIDTH 5 0
BBX 6 12 -1 -3
BITMAP
08
08
0C
04
FC
FC
00
18
68
68
28
20
ENDCHAR
STARTCHAR FB5E
ENCODING 64350
SWIDTH 720 0
DWIDTH 14 0
BBX 13 11 1 3
BITMAP
0400
0400
0600
0200
0000
8010
8010
8010
8008
FFF8
7FF8
ENDCHAR
STARTCHAR FB5F
ENCODING 64351
SWIDTH 720 0
DWIDTH 14 0
BBX 13 11 1 3
BITMAP
0400
0400
0600
0200
0000
8010
8010
8010
8008
FFF8
7FF8
ENDCHAR
STARTCHAR FB60
ENCODING 64352
SWIDTH 257 0
DWIDTH 5 0
BBX 6 11 -1 3
BITMAP
20
20
30
10
00
08
08
0C
04
FC
FC
ENDCHAR
STARTCHAR FB61
ENCODING 64353
SWIDTH 257 0
DWIDTH 5 0
BBX 6 11 -1 3
BITMAP
20
20
30
10
00
08
08
0C
04
FC
FC
ENDCHAR
STARTCHAR FB62
ENCODING 64354
SWIDTH 720 0
DWIDTH 14 0
BBX 13 11 1 3
BITMAP
0200
0A00
0900
0D00
0C00
8010
8010
8010
8008
FFF8
7FF8
ENDCHAR
STARTCHAR FB63
ENCODING 64355
SWIDTH 720 0
DWIDTH 14 0
BBX 13 11 1 3
BITMAP
0200
0A00
0900
0D00
0C00
8010
8010
8010
8008
FFF8
7FF8
ENDCHAR
STARTCHAR FB64
ENCODING 64356
SWIDTH 257 0
DWIDTH 5 0
BBX 6 11 -1 3
BITMAP
10
50
48
68
60
08
08
0C
04
FC
FC
ENDCHAR
STARTCHAR FB65
ENCODING 64357
SWIDTH 257 0
DWIDTH 5 0
BBX 6 11 -1 3
BITMAP
10
50
48
68
60
08
08
0C
04
FC
FC
ENDCHAR
STARTCHAR FB66
ENCODING 64358
SWIDTH 720 0
DWIDTH 14 0
BBX 13 13 1 3
BITMAP
0400
0800
0400
0780
0480
1F80
0000
8010
8010
8010
8008
FFF8
7FF8
ENDCHAR
STARTCHAR FB67
ENCODING 64359
SWIDTH 720 0
DWIDTH 14 0
BBX 13 13 1 3
BITMAP
0400
0800
0400
0780
0480
1F80
0000
8010
8010
8010
8008
FFF8
7FF8
ENDCHAR
STARTCHAR FB68
ENCODING 64360
SWIDTH 257 0
DWIDTH 5 0
BBX 6 13 -1 3
BITMAP
20
20
20
2C
34
7C
00
08
08
0C
04
FC
FC
ENDCHAR
STARTCHAR FB69
ENCODING 64361
SWIDTH 257 0
DWIDTH 5 0
BBX 6 13 -1 3
BITMAP
20
20
20
2C
34
7C
00
08
08
0C
04
FC
FC
ENDCHAR
STARTCHAR FB6A
ENCODING 64362
SWIDTH 771 0
DWIDTH 15 0
BBX 15 11 0 3
BITMAP
0010
001C
0014
0010
0000
400C
800E
801A
C00E
7FFE
3FFE
ENDCHAR
STARTCHAR FB6B
ENCODING 64363
SWIDTH 771 0
DWIDTH 15 0
BBX 15 11 0 3
BITMAP
0010
001C
0014
0010
0000
400C
800E
801A
C00E
7FFE
3FFE
ENDCHAR
STARTCHAR FB6C
ENCODING 64364
SWIDTH 257 0
DWIDTH 5 0
BBX 6 12 -1 3
BITMAP
20
38
78
60
18
38
2C
3C
3C
04
FC
FC
ENDCHAR
STARTCHAR FB6D
ENCODING 64365
SWIDTH 257 0
DWIDTH 5 0
BBX 6 12 -1 3
BITMAP
20
28
68
20
18
1C
24
24
1C
0C
FC
FC
ENDCHAR
STARTCHAR FB6E
ENCODING 64366
SWIDTH 771 0
DWIDTH 15 0
BBX 15 12 0 3
BITMAP
0004
0014
0014
0014
0010
0000
400C
800E
801A
C00E
7FFE
3FFE
ENDCHAR
STARTCHAR FB6F
ENCODING 64367
SWIDTH 771 0
DWIDTH 15 0
BBX 15 12 0 3
BITMAP
0004
0014
0014
0014
0010
0000
400C
800E
801A
C00E
7FFE
3FFE
ENDCHAR
STARTCHAR FB70
ENCODING 64368
SWIDTH 257 0
DWIDTH 5 0
BBX 6 14 -1 3
BITMAP
10
50
48
68
60
00
18
38
2C
3C
3C
04
FC
FC
ENDCHAR
STARTCHAR FB71
ENCODING 64369
SWIDTH 257 0
DWIDTH 5 0
BBX 6 14 -1 3
BITMAP
10
50
48
68
60
00
18
1C
24
24
1C
0C
FC
FC
ENDCHAR
STARTCHAR FB72
ENCODING 64370
SWIDTH 565 0
DWIDTH 11 0
BBX 9 12 0 -4
BITMAP
3F80
7F80
0C00
3000
4000
8400
8400
8600
4600
7000
3F80
1F00
ENDCHAR
STARTCHAR FB73
ENCODING 64371
SWIDTH 514 0
DWIDTH 10 0
BBX 10 12 0 -4
BITMAP
3F80
7F80
0E00
31C0
41C0
8800
8800
8C00
4C00
7000
3F80
1F00
ENDCHAR
STARTCHAR FB74
ENCODING 64372
SWIDTH 514 0
DWIDTH 10 0
BBX 11 11 -1 -2
BITMAP
1C00
1F00
0780
01C0
FFE0
FFE0
0000
0400
0400
0600
0600
ENDCHAR
STARTCHAR FB75
ENCODING 64373
SWIDTH 514 0
DWIDTH 10 0
BBX 11 11 -1 -2
BITMAP
1C00
1F00
0780
01C0
FFE0
FFE0
0000
0400
0400
0600
0600
ENDCHAR
STARTCHAR FB76
ENCODING 64374
SWIDTH 565 0
DWIDTH 11 0
BBX 9 12 0 -4
BITMAP
3F80
7F80
0C00
3000
4000
8300
8B00
8800
4000
7000
3F80
1F00
ENDCHAR
STARTCHAR FB77
ENCODING 64375
SWIDTH 514 0
DWIDTH 10 0
BBX 10 12 0 -4
BITMAP
3F80
7F80
0E00
31C0
41C0
8400
9400
9000
4000
7000
3F80
1F00
ENDCHAR
STARTCHAR FB78
ENCODING 64376
SWIDTH 514 0
DWIDTH 10 0
BBX 11 10 -1 -1
BITMAP
1C00
1F00
0780
01C0
FFE0
FFE0
0000
0200
0A00
0800
ENDCHAR
STARTCHAR FB79
ENCODING 64377
SWIDTH 514 0
DWIDTH 10 0
BBX 11 10 -1 -1
BITMAP
1C00
1F00
0780
01C0
FFE0
FFE0
0000
0200
0A00
0800
ENDCHAR
STARTCHAR FB7A
ENCODING 64378
SWIDTH 565 0
DWIDTH 11 0
BBX 9 12 0 -4
BITMAP
3F80
7F80
0C00
3000
4200
8B00
8A00
8200
4000
7000
3F80
1F00
ENDCHAR
STARTCHAR FB7B
ENCODING 64379
SWIDTH 514 0
DWIDTH 10 0
BBX 10 12 0 -4
BITMAP
3F80
7F80
0E00
31C0
41C0
8400
9400
9400
4400
7000
3F80
1F00
ENDCHAR
STARTCHAR FB7C
ENCODING 64380
SWIDTH 514 0
DWIDTH 10 0
BBX 11 11 -1 -2
BITMAP
1C00
1F00
0780
01C0
FFE0
FFE0
0000
0200
0A00
0E00
0200
ENDCHAR
STARTCHAR FB7D
ENCODING 64381
SWIDTH 514 0
DWIDTH 10 0
BBX 11 11 -1 -2
BITMAP
1C00
1F00
0780
01C0
FFE0
FFE0
0000
0200
0A00
0E00
0200
ENDCHAR
STARTCHAR FB7E
ENCODING 64382
SWIDTH 565 0
DWIDTH 11 0
BBX 9 12 0 -4
BITMAP
3F80
7F80
0C00
3000
4300
8B00
8D00
8500
4400
7000
3F80
1F00
ENDCHAR
STARTCHAR FB7F
ENCODING 64383
SWIDTH 514 0
DWIDTH 10 0
BBX 10 12 0 -4
BITMAP
3F80
7F80
0E00
31C0
45C0
9400
9600
9E00
5800
7000
3F80
1F00
ENDCHAR
STARTCHAR FB80
ENCODING 64384
SWIDTH 514 0
DWIDTH 10 0
BBX 11 12 -1 -3
BITMAP
1C00
1F00
0780
01C0
FFE0
FFE0
0000
0200
0A00
0B00
0D00
0C00
ENDCHAR
STARTCHAR FB81
ENCODING 64385
SWIDTH 514 0
DWIDTH 10 0
BBX 11 12 -1 -3
BITMAP
1C00
1F00
0780
01C0
FFE0
FFE0
0000
0200
0A00
0B00
0D00
0C00
ENDCHAR
STARTCHAR FB82
ENCODING 64386
SWIDTH 308 0
DWIDTH 6 0
BBX 5 12 1 -1
BITMAP
20
30
18
08
08
08
F8
F8
00
10
50
40
ENDCHAR
STARTCHAR FB83
ENCODING 64387
SWIDTH 308 0
DWIDTH 6 0
BBX 5 12 1 -1
BITMAP
20
30
18
08
08
08
F8
F8
00
10
50
40
ENDCHAR
STARTCHAR FB84
ENCODING 64388
SWIDTH 308 0
DWIDTH 6 0
BBX 5 12 1 3
BITMAP
30
D0
C0
00
20
30
18
08
08
08
F8
F8
ENDCHAR
STARTCHAR FB85
ENCODING 64389
SWIDTH 308 0
DWIDTH 6 0
BBX 5 12 1 3
BITMAP
30
D0
C0
00
20
30
18
08
08
08
F8
F8
ENDCHAR
STARTCHAR FB86
ENCODING 64390
SWIDTH 308 0
DWIDTH 6 0
BBX 5 13 1 3
BITMAP
40
50
50
40
00
20
30
18
08
08
08
F8
F8
ENDCHAR
STARTCHAR FB87
ENCODING 64391
SWIDTH 308 0
DWIDTH 6 0
BBX 5 13 1 3
BITMAP
40
50
50
40
00
20
30
18
08
08
08
F8
F8
ENDCHAR
STARTCHAR FB88
ENCODING 64392
SWIDTH 308 0
DWIDTH 6 0
BBX 6 15 0 3
BITMAP
20
20
20
2C
34
FC
00
10
18
0C
04
04
04
7C
7C
ENDCHAR
STARTCHAR FB89
ENCODING 64393
SWIDTH 308 0
DWIDTH 6 0
BBX 6 15 0 3
BITMAP
20
20
20
2C
34
FC
00
10
18
0C
04
04
04
7C
7C
ENDCHAR
STARTCHAR FB8A
ENCODING 64394
SWIDTH 462 0
DWIDTH 9 0
BBX 8 15 1 -2
BITMAP
0C
0F
0B
08
00
02
03
01
01
01
01
01
03
8E
78
ENDCHAR
STARTCHAR FB8B
ENCODING 64395
SWIDTH 462 0
DWIDTH 9 0
BBX 8 15 1 -2
BITMAP
0C
0F
0B
08
00
02
03
01
01
01
01
01
03
8E
78
ENDCHAR
STARTCHAR FB8C
ENCODING 64396
SWIDTH 462 0
DWIDTH 9 0
BBX 8 17 1 -2
BITMAP
08
10
08
0F
09
3F
00
02
03
01
01
01
01
01
03
8E
78
ENDCHAR
STARTCHAR FB8D
ENCODING 64397
SWIDTH 462 0
DWIDTH 9 0
BBX 8 17 1 -2
BITMAP
08
10
08
0F
09
3F
00
02
03
01
01
01
01
01
03
8E
78
ENDCHAR
STARTCHAR FB8E
ENCODING 64398
SWIDTH 771 0
DWIDTH 15 0
BBX 15 11 0 3
BITMAP
0006
001E
0078
0040
0060
0070
0018
8004
8002
FFFE
7FFE
ENDCHAR
STARTCHAR FB8F
ENCODING 64399
SWIDTH 925 0
DWIDTH 18 0
BBX 18 11 0 3
BITMAP
000600
001E00
007800
004000
006000
007000
001800
800C00
801200
FFF3C0
7FE1C0
ENDCHAR
STARTCHAR FB90
ENCODING 64400
SWIDTH 360 0
DWIDTH 7 0
BBX 8 11 -1 3
BITMAP
03
0F
3C
20
30
38
0C
02
01
FF
FF
ENDCHAR
STARTCHAR FB91
ENCODING 64401
SWIDTH 514 0
DWIDTH 10 0
BBX 11 11 -1 3
BITMAP
0300
0F00
3C00
2000
3000
3800
0C00
0600
0900
F9E0
F0E0
ENDCHAR
STARTCHAR FB92
ENCODING 64402
SWIDTH 771 0
DWIDTH 15 0
BBX 15 14 0 3
BITMAP
0002
000E
0038
0066
009E
0078
0040
0060
0070
0018
8004
8002
FFFE
7FFE
ENDCHAR
STARTCHAR FB93
ENCODING 64403
SWIDTH 925 0
DWIDTH 18 0
BBX 18 14 0 3
BITMAP
000200
000E00
003800
006600
009E00
007800
004000
006000
007000
001800
800C00
801200
FFF3C0
7FE1C0
ENDCHAR
STARTCHAR FB94
ENCODING 64404
SWIDTH 360 0
DWIDTH 7 0
BBX 8 14 -1 3
BITMAP
01
07
1C
33
4F
3C
20
30
38
0C
02
01
FF
FF
ENDCHAR
STARTCHAR FB95
ENCODING 64405
SWIDTH 514 0
DWIDTH 10 0
BBX 11 14 -1 3
BITMAP
0100
0700
1C00
3300
4F00
3C00
2000
3000
3800
0C00
0600
0900
F9E0
F0E0
ENDCHAR
STARTCHAR FB96
ENCODING 64406
SWIDTH 771 0
DWIDTH 15 0
BBX 15 19 0 -2
BITMAP
0002
000E
0038
0066
009E
0078
0040
0060
0070
0018
8004
8002
FFFE
7FFE
0000
0080
0080
0080
0080
ENDCHAR
STARTCHAR FB97
ENCODING 64407
SWIDTH 925 0
DWIDTH 18 0
BBX 18 19 0 -2
BITMAP
000200
000E00
003800
006600
009E00
007800
004000
006000
007000
001800
800C00
801200
FFF3C0
7FE1C0
000000
020000
020000
020000
020000
ENDCHAR
STARTCHAR FB98
ENCODING 64408
SWIDTH 360 0
DWIDTH 7 0
BBX 8 19 -1 -2
BITMAP
01
07
1C
33
4F
3C
20
30
38
0C
02
01
FF
FF
00
08
08
0C
0C
ENDCHAR
STARTCHAR FB99
ENCODING 64409
SWIDTH 514 0
DWIDTH 10 0
BBX 11 19 -1 -2
BITMAP
0100
0700
1C00
3300
4F00
3C00
2000
3000
3800
0C00
0600
0900
F9E0
F0E0
0000
3000
3000
1000
1000
ENDCHAR
STARTCHAR FB9A
ENCODING 64410
SWIDTH 771 0
DWIDTH 15 0
BBX 15 14 0 3
BITMAP
0012
004E
0038
0066
009E
0078
0040
0060
0070
0018
8004
8002
FFFE
7FFE
ENDCHAR
STARTCHAR FB9B
ENCODING 64411
SWIDTH 925 0
DWIDTH 18 0
BBX 18 14 0 3
BITMAP
001200
004E00
003800
006600
009E00
007800
004000
006000
007000
001800
800C00
801200
FFF3C0
7FE1C0
ENDCHAR
STARTCHAR FB9C
ENCODING 64412
SWIDTH 360 0
DWIDTH 7 0
BBX 8 14 -1 3
BITMAP
09
27
1C
33
4F
3C
20
30
38
0C
02
01
FF
FF
ENDCHAR
STARTCHAR FB9D
ENCODING 64413
SWIDTH 514 0
DWIDTH 10 0
BBX 11 14 -1 3
BITMAP
0900
2700
1C00
3300
4F00
3C00
2000
3000
3800
0C00
0600
0900
F9E0
F0E0
ENDCHAR
STARTCHAR FB9E
ENCODING 64414
SWIDTH 514 0
DWIDTH 10 0
BBX 9 8 1 0
BITMAP
0080
0080
8080
8080
8080
8180
FF00
7E00
ENDCHAR
STARTCHAR FB9F
ENCODING 64415
SWIDTH 514 0
DWIDTH 10 0
BBX 9 8 1 0
BITMAP
0080
0080
8080
8080
8080
8180
FF00
7E00
ENDCHAR
STARTCHAR FBA0
ENCODING 64416
SWIDTH 514 0
DWIDTH 10 0
BBX 9 16 1 -1
BITMAP
1000
1000
1000
1600
1A00
3E00
0000
0000
0080
0080
8080
8080
8080
8180
FF00
7E00
ENDCHAR
STARTCHAR FBA1
ENCODING 64417
SWIDTH 514 0
DWIDTH 10 0
BBX 9 16 1 -1
BITMAP
1000
1000
1000
1600
1A00
3E00
0000
0000
0080
0080
8080
8080
8080
8180
FF00
7E00
ENDCHAR
STARTCHAR FBA2
ENCODING 64418
SWIDTH 257 0
DWIDTH 5 0
BBX 6 13 -1 3
BITMAP
20
20
20
2C
34
7C
00
08
08
0C
04
FC
FC
ENDCHAR
STARTCHAR FBA3
ENCODING 64419
SWIDTH 257 0
DWIDTH 5 0
BBX 6 13 -1 3
BITMAP
20
20
20
2C
34
7C
00
08
08
0C
04
FC
FC
ENDCHAR
STARTCHAR FBA4
ENCODING 64420
SWIDTH 257 0
DWIDTH 5 0
BBX 4 12 1 3
BITMAP
60
80
60
80
00
40
E0
F0
90
90
F0
E0
ENDCHAR
STARTCHAR FBA5
ENCODING 64421
SWIDTH 360 0
DWIDTH 7 0
BBX 7 13 0 3
BITMAP
30
40
30
40
10
10
28
48
F8
E8
08
06
06
ENDCHAR
STARTCHAR FBA6
ENCODING 64422
SWIDTH 257 0
DWIDTH 5 0
BBX 4 7 1 3
BITMAP
40
E0
F0
90
90
F0
E0
ENDCHAR
STARTCHAR FBA7
ENCODING 64423
SWIDTH 360 0
DWIDTH 7 0
BBX 7 5 0 2
BITMAP
18
3C
6E
46
80
ENDCHAR
STARTCHAR FBA8
ENCODING 64424
SWIDTH 257 0
DWIDTH 5 0
BBX 6 11 -1 -2
BITMAP
08
08
0C
04
FC
FC
00
10
20
30
10
ENDCHAR
STARTCHAR FBA9
ENCODING 64425
SWIDTH 308 0
DWIDTH 6 0
BBX 7 12 -1 -4
BITMAP
10
10
10
F6
DE
18
10
00
08
10
08
08
ENDCHAR
STARTCHAR FBAA
ENCODING 64426
SWIDTH 462 0
DWIDTH 9 0
BBX 8 8 -1 3
BITMAP
08
1C
1C
26
27
19
FF
E7
ENDCHAR
STARTCHAR FBAB
ENCODING 64427
SWIDTH 360 0
DWIDTH 7 0
BBX 7 9 0 4
BITMAP
10
10
28
48
F8
E8
08
06
06
ENDCHAR
STARTCHAR FBAC
ENCODING 64428
SWIDTH 462 0
DWIDTH 9 0
BBX 8 8 -1 3
BITMAP
08
1C
1C
26
27
19
FF
E7
ENDCHAR
STARTCHAR FBAD
ENCODING 64429
SWIDTH 360 0
DWIDTH 7 0
BBX 8 10 -1 -1
BITMAP
04
0C
14
18
FF
FF
24
34
1E
0C
ENDCHAR
STARTCHAR FBAE
ENCODING 64430
SWIDTH 771 0
DWIDTH 15 0
BBX 14 7 1 0
BITMAP
0600
0E00
3800
7000
8000
FFFC
FFF8
ENDCHAR
STARTCHAR FBAF
ENCODING 64431
SWIDTH 771 0
DWIDTH 15 0
BBX 14 9 1 -4
BITMAP
00FC
07FC
1F00
3800
6000
8000
8000
FFFC
FFF8
ENDCHAR
STARTCHAR FBB0
ENCODING 64432
SWIDTH 771 0
DWIDTH 15 0
BBX 14 10 1 0
BITMAP
0800
3000
1800
2600
0E00
3800
7000
8000
FFFC
FFF8
ENDCHAR
STARTCHAR FBB1
ENCODING 64433
SWIDTH 771 0
DWIDTH 15 0
BBX 14 14 1 -4
BITMAP
0020
0040
0020
0040
0000
00FC
07FC
1F00
3800
6000
8000
8000
FFFC
FFF8
ENDCHAR
STARTCHAR FBD3
ENCODING 64467
SWIDTH 565 0
DWIDTH 11 0
BBX 11 13 0 3
BITMAP
0C00
0E40
0B60
0860
0240
0420
0720
0120
0120
9E20
C020
7FE0
7FE0
ENDCHAR
STARTCHAR FBD4
ENCODING 64468
SWIDTH 565 0
DWIDTH 11 0
BBX 11 13 0 3
BITMAP
0C00
0E40
0B60
0860
0240
0420
0720
0120
0120
9E20
C020
7FE0
7FE0
ENDCHAR
STARTCHAR FBD5
ENCODING 64469
SWIDTH 360 0
DWIDTH 7 0
BBX 8 13 -1 3
BITMAP
30
0C
23
0F
3C
20
30
38
0C
02
01
FF
FF
ENDCHAR
STARTCHAR FBD6
ENCODING 64470
SWIDTH 360 0
DWIDTH 7 0
BBX 8 13 -1 3
BITMAP
30
0C
23
0F
3C
20
30
38
0C
02
01
FF
FF
ENDCHAR
STARTCHAR FBD7
ENCODING 64471
SWIDTH 411 0
DWIDTH 8 0
BBX 8 17 0 -2
BITMAP
03
03
03
03
04
00
03
07
05
05
07
03
01
01
02
86
7C
ENDCHAR
STARTCHAR FBD8
ENCODING 64472
SWIDTH 411 0
DWIDTH 8 0
BBX 8 17 0 -2
BITMAP
03
03
03
03
04
00
03
07
05
05
07
03
01
01
02
86
7C
ENDCHAR
STARTCHAR FBD9
ENCODING 64473
SWIDTH 411 0
DWIDTH 8 0
BBX 8 14 0 -2
BITMAP
05
02
00
03
07
05
05
07
03
01
01
02
86
7C
ENDCHAR
STARTCHAR FBDA
ENCODING 64474
SWIDTH 411 0
DWIDTH 8 0
BBX 8 14 0 -2
BITMAP
05
02
00
03
07
05
05
07
03
01
01
02
86
7C
ENDCHAR
STARTCHAR FBDB
ENCODING 64475
SWIDTH 411 0
DWIDTH 8 0
BBX 8 17 0 -1
BITMAP
02
02
02
02
02
00
03
07
05
05
07
03
01
01
02
86
7C
ENDCHAR
STARTCHAR FBDC
ENCODING 64476
SWIDTH 411 0
DWIDTH 8 0
BBX 8 17 0 -1
BITMAP
02
02
02
02
02
00
03
07
05
05
07
03
01
01
02
86
7C
ENDCHAR
STARTCHAR FBDD
ENCODING 64477
SWIDTH 411 0
DWIDTH 8 0
BBX 9 16 0 -2
BITMAP
0C80
0D00
0C80
0D00
1000
0300
0700
0500
0500
0700
0300
0100
0100
0200
8600
7C00
ENDCHAR
STARTCHAR FBDE
ENCODING 64478
SWIDTH 411 0
DWIDTH 8 0
BBX 8 16 0 -2
BITMAP
04
07
0D
0C
00
03
07
05
05
07
03
01
01
02
86
7C
ENDCHAR
STARTCHAR FBDF
ENCODING 64479
SWIDTH 411 0
DWIDTH 8 0
BBX 8 16 0 -2
BITMAP
04
07
0D
0C
00
03
07
05
05
07
03
01
01
02
86
7C
ENDCHAR
STARTCHAR FBE0
ENCODING 64480
SWIDTH 411 0
DWIDTH 8 0
BBX 8 11 0 -2
BITMAP
03
07
05
05
07
03
19
07
02
86
7C
ENDCHAR
STARTCHAR FBE1
ENCODING 64481
SWIDTH 411 0
DWIDTH 8 0
BBX 8 11 0 -2
BITMAP
03
07
05
05
07
03
19
07
02
86
7C
ENDCHAR
STARTCHAR FBE2
ENCODING 64482
SWIDTH 411 0
DWIDTH 8 0
BBX 8 14 0 -2
BITMAP
02
05
00
03
07
05
05
07
03
01
01
02
86
7C
ENDCHAR
STARTCHAR FBE3
ENCODING 64483
SWIDTH 411 0
DWIDTH 8 0
BBX 8 14 0 -2
BITMAP
02
05
00
03
07
05
05
07
03
01
01
02
86
7C
ENDCHAR
STARTCHAR FBE4
ENCODING 64484
SWIDTH 617 0
DWIDTH 12 0
BBX 12 13 0 -4
BITMAP
0060
00F0
0100
0200
43E0
81E0
8020
C1C0
7F80
3E00
0000
0400
0400
ENDCHAR
STARTCHAR FBE5
ENCODING 64485
SWIDTH 565 0
DWIDTH 11 0
BBX 11 9 0 -4
BITMAP
01E0
43E0
8200
83C0
C040
7FC0
3F00
0400
0400
ENDCHAR
STARTCHAR FBE6
ENCODING 64486
SWIDTH 257 0
DWIDTH 5 0
BBX 6 11 -1 -2
BITMAP
08
08
0C
04
FC
FC
00
30
30
10
10
ENDCHAR
STARTCHAR FBE7
ENCODING 64487
SWIDTH 257 0
DWIDTH 5 0
BBX 6 11 -1 -2
BITMAP
08
08
0C
04
FC
FC
00
30
30
10
10
ENDCHAR
STARTCHAR FBFC
ENCODING 64508
SWIDTH 617 0
DWIDTH 12 0
BBX 12 10 0 -1
BITMAP
0060
00F0
0100
0200
43E0
81E0
8020
C1C0
7F80
3E00
ENDCHAR
STARTCHAR FBFD
ENCODING 64509
SWIDTH 565 0
DWIDTH 11 0
BBX 11 7 0 -2
BITMAP
01E0
43E0
8200
83C0
C040
7FC0
3F00
ENDCHAR
STARTCHAR FBFE
ENCODING 64510
SWIDTH 257 0
DWIDTH 5 0
BBX 6 10 -1 -1
BITMAP
08
08
0C
04
FC
FC
00
08
28
20
ENDCHAR
STARTCHAR FBFF
ENCODING 64511
SWIDTH 257 0
DWIDTH 5 0
BBX 6 10 -1 -1
BITMAP
08
08
0C
04
FC
FC
00
08
28
20
ENDCHAR
STARTCHAR FC5E
ENCODING 64606
SWIDTH 205 0
DWIDTH 4 0
BBX 4 8 0 12
BITMAP
10
30
50
F0
40
20
30
40
ENDCHAR
STARTCHAR FC5F
ENCODING 64607
SWIDTH 205 0
DWIDTH 4 0
BBX 3 7 1 12
BITMAP
40
60
80
60
80
60
80
ENDCHAR
STARTCHAR FC60
ENCODING 64608
SWIDTH 205 0
DWIDTH 4 0
BBX 3 5 1 12
BITMAP
60
80
40
60
80
ENDCHAR
STARTCHAR FC61
ENCODING 64609
SWIDTH 205 0
DWIDTH 4 0
BBX 3 7 1 12
BITMAP
60
60
60
80
40
60
80
ENDCHAR
STARTCHAR FC62
ENCODING 64610
SWIDTH 205 0
DWIDTH 4 0
BBX 3 5 1 12
BITMAP
40
60
80
60
80
ENDCHAR
STARTCHAR FD3E
ENCODING 64830
SWIDTH 308 0
DWIDTH 6 0
BBX 4 19 1 -4
BITMAP
10
10
20
60
60
60
C0
C0
C0
C0
C0
C0
C0
40
60
60
20
10
10
ENDCHAR
STARTCHAR FD3F
ENCODING 64831
SWIDTH 308 0
DWIDTH 6 0
BBX 4 19 1 -4
BITMAP
80
80
40
60
60
20
30
30
30
30
30
30
30
20
60
60
40
80
80
ENDCHAR
STARTCHAR FDF2
ENCODING 65010
SWIDTH 617 0
DWIDTH 12 0
BBX 11 13 0 3
BITMAP
0200
0000
0080
0580
0600
0100
0120
0920
1920
2920
49A0
FFE0
E760
ENDCHAR
STARTCHAR FE80
ENCODING 65152
SWIDTH 411 0
DWIDTH 8 0
BBX 6 8 1 1
BITMAP
30
70
40
CC
FC
70
60
40
ENDCHAR
STARTCHAR FE81
ENCODING 65153
SWIDTH 205 0
DWIDTH 4 0
BBX 4 14 0 2
BITMAP
F0
00
00
40
60
20
20
20
20
20
20
20
20
20
ENDCHAR
STARTCHAR FE82
ENCODING 65154
SWIDTH 205 0
DWIDTH 4 0
BBX 4 13 0 3
BITMAP
E0
00
00
C0
40
40
40
40
40
40
40
30
30
ENDCHAR
STARTCHAR FE83
ENCODING 65155
SWIDTH 205 0
DWIDTH 4 0
BBX 2 14 1 2
BITMAP
40
80
C0
80
00
00
80
C0
40
40
40
40
40
40
ENDCHAR
STARTCHAR FE84
ENCODING 65156
SWIDTH 205 0
DWIDTH 4 0
BBX 4 13 0 3
BITMAP
40
80
60
80
00
40
C0
40
40
40
40
70
30
ENDCHAR
STARTCHAR FE85
ENCODING 65157
SWIDTH 411 0
DWIDTH 8 0
BBX 8 16 0 -2
BITMAP
0C
10
0C
10
00
03
07
05
05
07
03
01
01
02
86
7C
ENDCHAR
STARTCHAR FE86
ENCODING 65158
SWIDTH 411 0
DWIDTH 8 0
BBX 8 16 0 -2
BITMAP
0C
10
0C
10
00
03
07
05
05
07
03
01
01
02
86
7C
ENDCHAR
STARTCHAR FE87
ENCODING 65159
SWIDTH 205 0
DWIDTH 4 0
BBX 3 16 0 -2
BITMAP
40
60
20
20
20
20
20
20
20
20
20
00
60
80
60
80
ENDCHAR
STARTCHAR FE88
ENCODING 65160
SWIDTH 205 0
DWIDTH 4 0
BBX 4 15 0 -1
BITMAP
C0
40
40
40
40
40
40
40
30
30
00
40
80
60
80
ENDCHAR
STARTCHAR FE89
ENCODING 65161
SWIDTH 617 0
DWIDTH 12 0
BBX 12 12 0 -1
BITMAP
2000
4000
6060
40F0
0100
0200
43E0
81E0
8020
C1C0
7F80
3E00
ENDCHAR
STARTCHAR FE8A
ENCODING 65162
SWIDTH 565 0
DWIDTH 11 0
BBX 11 13 0 -2
BITMAP
2000
4000
6000
4000
0000
0000
01E0
43E0
8200
83C0
C040
7FC0
3F00
ENDCHAR
STARTCHAR FE8B
ENCODING 65163
SWIDTH 257 0
DWIDTH 5 0
BBX 6 11 -1 3
BITMAP
10
20
10
20
00
08
08
0C
04
FC
FC
ENDCHAR
STARTCHAR FE8C
ENCODING 65164
SWIDTH 257 0
DWIDTH 5 0
BBX 6 11 -1 3
BITMAP
10
20
10
20
00
08
08
0C
04
FC
FC
ENDCHAR
STARTCHAR FE8D
ENCODING 65165
SWIDTH 205 0
DWIDTH 4 0
BBX 2 11 1 3
BITMAP
80
C0
40
40
40
40
40
40
40
40
40
ENDCHAR
STARTCHAR FE8E
ENCODING 65166
SWIDTH 205 0
DWIDTH 4 0
BBX 4 10 0 4
BITMAP
C0
40
40
40
40
40
40
40
30
30
ENDCHAR
STARTCHAR FE8F
ENCODING 65167
SWIDTH 720 0
DWIDTH 14 0
BBX 13 9 1 0
BITMAP
8010
8010
8010
8008
FFF8
7FF8
0000
0600
0600
ENDCHAR
STARTCHAR FE90
ENCODING 65168
SWIDTH 720 0
DWIDTH 14 0
BBX 13 9 1 0
BITMAP
8010
8010
8010
8008
FFF8
7FF8
0000
0600
0600
ENDCHAR
STARTCHAR FE91
ENCODING 65169
SWIDTH 257 0
DWIDTH 5 0
BBX 6 9 -1 0
BITMAP
08
08
0C
04
FC
FC
00
10
10
ENDCHAR
STARTCHAR FE92
ENCODING 65170
SWIDTH 257 0
DWIDTH 5 0
BBX 6 9 -1 0
BITMAP
08
08
0C
04
FC
FC
00
10
10
ENDCHAR
STARTCHAR FE93
ENCODING 65171
SWIDTH 257 0
DWIDTH 5 0
BBX 5 11 0 3
BITMAP
10
D0
C0
00
20
30
78
48
48
78
70
ENDCHAR
STARTCHAR FE94
ENCODING 65172
SWIDTH 360 0
DWIDTH 7 0
BBX 7 14 0 3
BITMAP
10
50
40
00
00
10
10
28
48
F8
E8
08
06
06
ENDCHAR
STARTCHAR FE95
ENCODING 65173
SWIDTH 720 0
DWIDTH 14 0
BBX 13 9 1 3
BITMAP
0300
0F00
0C00
8010
8010
8010
8008
FFF8
7FF8
ENDCHAR
STARTCHAR FE96
ENCODING 65174
SWIDTH 720 0
DWIDTH 14 0
BBX 13 9 1 3
BITMAP
0300
0F00
0C00
8010
8010
8010
8008
FFF8
7FF8
ENDCHAR
STARTCHAR FE97
ENCODING 65175
SWIDTH 257 0
DWIDTH 5 0
BBX 6 10 -1 3
BITMAP
08
28
20
00
08
08
0C
04
FC
FC
ENDCHAR
STARTCHAR FE98
ENCODING 65176
SWIDTH 257 0
DWIDTH 5 0
BBX 6 10 -1 3
BITMAP
08
28
20
00
08
08
0C
04
FC
FC
ENDCHAR
STARTCHAR FE99
ENCODING 65177
SWIDTH 720 0
DWIDTH 14 0
BBX 13 10 1 3
BITMAP
0400
0700
0F00
0C00
8010
8010
8010
8008
FFF8
7FF8
ENDCHAR
STARTCHAR FE9A
ENCODING 65178
SWIDTH 720 0
DWIDTH 14 0
BBX 13 10 1 3
BITMAP
0400
0700
0F00
0C00
8010
8010
8010
8008
FFF8
7FF8
ENDCHAR
STARTCHAR FE9B
ENCODING 65179
SWIDTH 257 0
DWIDTH 5 0
BBX 6 11 -1 3
BITMAP
20
28
28
20
00
08
08
0C
04
FC
FC
ENDCHAR
STARTCHAR FE9C
ENCODING 65180
SWIDTH 257 0
DWIDTH 5 0
BBX 6 11 -1 3
BITMAP
20
28
28
20
00
08
08
0C
04
FC
FC
ENDCHAR
STARTCHAR FE9D
ENCODING 65181
SWIDTH 565 0
DWIDTH 11 0
BBX 9 12 0 -4
BITMAP
3F80
7F80
0C00
3000
4000
8600
8600
8000
4000
7000
3F80
1F00
ENDCHAR
STARTCHAR FE9E
ENCODING 65182
SWIDTH 514 0
DWIDTH 10 0
BBX 10 12 0 -4
BITMAP
3F80
7F80
0E00
31C0
41C0
8000
8400
8400
4000
7000
3F80
1F00
ENDCHAR
STARTCHAR FE9F
ENCODING 65183
SWIDTH 514 0
DWIDTH 10 0
BBX 11 9 -1 0
BITMAP
1C00
1F00
0780
01C0
FFE0
FFE0
0000
0400
0400
ENDCHAR
STARTCHAR FEA0
ENCODING 65184
SWIDTH 514 0
DWIDTH 10 0
BBX 11 9 -1 0
BITMAP
1C00
1F00
0780
01C0
FFE0
FFE0
0000
0400
0400
ENDCHAR
STARTCHAR FEA1
ENCODING 65185
SWIDTH 565 0
DWIDTH 11 0
BBX 9 12 0 -4
BITMAP
3F80
7F80
0C00
3000
4000
8000
8000
8000
4000
7000
3F80
1F00
ENDCHAR
STARTCHAR FEA2
ENCODING 65186
SWIDTH 514 0
DWIDTH 10 0
BBX 10 12 0 -4
BITMAP
3F80
7F80
0E00
31C0
41C0
8000
8000
8000
4000
7000
3F80
1F00
ENDCHAR
STARTCHAR FEA3
ENCODING 65187
SWIDTH 514 0
DWIDTH 10 0
BBX 11 6 -1 3
BITMAP
1C00
1F00
0780
01C0
FFE0
FFE0
ENDCHAR
STARTCHAR FEA4
ENCODING 65188
SWIDTH 514 0
DWIDTH 10 0
BBX 11 6 -1 3
BITMAP
1C00
1F00
0780
01C0
FFE0
FFE0
ENDCHAR
STARTCHAR FEA5
ENCODING 65189
SWIDTH 565 0
DWIDTH 11 0
BBX 9 16 0 -4
BITMAP
0C00
0400
0000
0000
3F80
7F80
0C00
3000
4000
8000
8000
8000
4000
7000
3F80
1F00
ENDCHAR
STARTCHAR FEA6
ENCODING 65190
SWIDTH 514 0
DWIDTH 10 0
BBX 10 16 0 -4
BITMAP
0400
0400
0000
0000
3F80
7F80
0E00
31C0
41C0
8000
8000
8000
4000
7000
3F80
1F00
ENDCHAR
STARTCHAR FEA7
ENCODING 65191
SWIDTH 514 0
DWIDTH 10 0
BBX 11 10 -1 3
BITMAP
0400
0400
0000
0000
1C00
1F00
0780
01C0
FFE0
FFE0
ENDCHAR
STARTCHAR FEA8
ENCODING 65192
SWIDTH 514 0
DWIDTH 10 0
BBX 11 10 -1 3
BITMAP
0400
0400
0000
0000
1C00
1F00
0780
01C0
FFE0
FFE0
ENDCHAR
STARTCHAR FEA9
ENCODING 65193
SWIDTH 308 0
DWIDTH 6 0
BBX 5 8 1 3
BITMAP
20
30
18
08
08
08
F8
F8
ENDCHAR
STARTCHAR FEAA
ENCODING 65194
SWIDTH 308 0
DWIDTH 6 0
BBX 5 8 1 3
BITMAP
20
30
18
08
08
08
F8
F8
ENDCHAR
STARTCHAR FEAB
ENCODING 65195
SWIDTH 308 0
DWIDTH 6 0
BBX 5 12 1 3
BITMAP
40
60
00
00
20
30
18
08
08
08
F8
F8
ENDCHAR
STARTCHAR FEAC
ENCODING 65196
SWIDTH 308 0
DWIDTH 6 0
BBX 5 12 1 3
BITMAP
40
60
00
00
20
30
18
08
08
08
F8
F8
ENDCHAR
STARTCHAR FEAD
ENCODING 65197
SWIDTH 462 0
DWIDTH 9 0
BBX 8 10 1 -2
BITMAP
02
03
01
01
01
01
01
03
8E
78
ENDCHAR
STARTCHAR FEAE
ENCODING 65198
SWIDTH 462 0
DWIDTH 9 0
BBX 8 10 1 -2
BITMAP
02
03
01
01
01
01
01
03
8E
78
ENDCHAR
STARTCHAR FEAF
ENCODING 65199
SWIDTH 462 0
DWIDTH 9 0
BBX 8 14 1 -2
BITMAP
04
04
00
00
02
03
01
01
01
01
01
03
8E
78
ENDCHAR
STARTCHAR FEB0
ENCODING 65200
SWIDTH 462 0
DWIDTH 9 0
BBX 8 14 1 -2
BITMAP
04
04
00
00
02
03
01
01
01
01
01
03
8E
78
ENDCHAR
STARTCHAR FEB1
ENCODING 65201
SWIDTH 822 0
DWIDTH 16 0
BBX 15 9 1 -1
BITMAP
0104
0182
0092
80FE
80FE
8080
8180
FF00
7C00
ENDCHAR
STARTCHAR FEB2
ENCODING 65202
SWIDTH 822 0
DWIDTH 16 0
BBX 15 9 1 -1
BITMAP
0104
0182
0092
80FE
80FE
8080
8180
FF00
7C00
ENDCHAR
STARTCHAR FEB3
ENCODING 65203
SWIDTH 514 0
DWIDTH 10 0
BBX 11 5 -1 3
BITMAP
0020
10A0
08A0
FFE0
FF60
ENDCHAR
STARTCHAR FEB4
ENCODING 65204
SWIDTH 514 0
DWIDTH 10 0
BBX 11 5 -1 3
BITMAP
0020
10A0
08A0
FFE0
FF60
ENDCHAR
STARTCHAR FEB5
ENCODING 65205
SWIDTH 822 0
DWIDTH 16 0
BBX 15 14 1 -1
BITMAP
0030
0038
0028
0020
0000
0104
0182
0092
80FE
80FE
8080
8180
FF00
7C00
ENDCHAR
STARTCHAR FEB6
ENCODING 65206
SWIDTH 822 0
DWIDTH 16 0
BBX 15 14 1 -1
BITMAP
0030
0038
0028
0020
0000
0104
0182
0092
80FE
80FE
8080
8180
FF00
7C00
ENDCHAR
STARTCHAR FEB7
ENCODING 65207
SWIDTH 514 0
DWIDTH 10 0
BBX 11 10 -1 3
BITMAP
0100
01C0
0340
0300
0000
0020
10A0
08A0
FFE0
FF60
ENDCHAR
STARTCHAR FEB8
ENCODING 65208
SWIDTH 514 0
DWIDTH 10 0
BBX 11 10 -1 3
BITMAP
0100
01C0
0340
0300
0000
0020
10A0
08A0
FFE0
FF60
ENDCHAR
STARTCHAR FEB9
ENCODING 65209
SWIDTH 1080 0
DWIDTH 21 0
BBX 20 9 1 -1
BITMAP
0101E0
0187F0
008C30
80FFF0
80FFF0
808000
810000
FF0000
7C0000
ENDCHAR
STARTCHAR FEBA
ENCODING 65210
SWIDTH 1080 0
DWIDTH 21 0
BBX 20 9 1 -1
BITMAP
0101E0
0187F0
008C30
80FFF0
80FFF0
808000
810000
FF0000
7C0000
ENDCHAR
STARTCHAR FEBB
ENCODING 65211
SWIDTH 822 0
DWIDTH 16 0
BBX 17 6 -1 3
BITMAP
000700
001F80
103180
08C180
FFFF80
FFFF80
ENDCHAR
STARTCHAR FEBC
ENCODING 65212
SWIDTH 822 0
DWIDTH 16 0
BBX 17 6 -1 3
BITMAP
000700
001F80
103180
08C180
FFFF80
FFFF80
ENDCHAR
STARTCHAR FEBD
ENCODING 65213
SWIDTH 1080 0
DWIDTH 21 0
BBX 20 12 1 -1
BITMAP
000800
000800
000000
0101E0
0187F0
008C30
80FFF0
80FFF0
808000
810000
FF0000
7C0000
ENDCHAR
STARTCHAR FEBE
ENCODING 65214
SWIDTH 1080 0
DWIDTH 21 0
BBX 20 12 1 -1
BITMAP
000800
000800
000000
0101E0
0187F0
008C30
80FFF0
80FFF0
808000
810000
FF0000
7C0000
ENDCHAR
STARTCHAR FEBF
ENCODING 65215
SWIDTH 822 0
DWIDTH 16 0
BBX 17 9 -1 3
BITMAP
006000
006000
000000
000700
001F80
103180
08C180
FFFF80
FFFF80
ENDCHAR
STARTCHAR FEC0
ENCODING 65216
SWIDTH 822 0
DWIDTH 16 0
BBX 17 9 -1 3
BITMAP
006000
006000
000000
000700
001F80
103180
08C180
FFFF80
FFFF80
ENDCHAR
STARTCHAR FEC1
ENCODING 65217
SWIDTH 565 0
DWIDTH 11 0
BBX 12 11 -1 4
BITMAP
1800
1800
0800
0800
0800
08E0
0BF0
0630
0830
FFF0
FFF0
ENDCHAR
STARTCHAR FEC2
ENCODING 65218
SWIDTH 565 0
DWIDTH 11 0
BBX 12 11 -1 4
BITMAP
1800
1800
0800
0800
0800
08E0
0BF0
0630
0830
FFF0
FFF0
ENDCHAR
STARTCHAR FEC3
ENCODING 65219
SWIDTH 565 0
DWIDTH 11 0
BBX 12 11 -1 4
BITMAP
1800
1800
0800
0800
0800
08E0
0BF0
0630
0830
FFF0
FFF0
ENDCHAR
STARTCHAR FEC4
ENCODING 65220
SWIDTH 565 0
DWIDTH 11 0
BBX 12 11 -1 4
BITMAP
1800
1800
0800
0800
0800
08E0
0BF0
0630
0830
FFF0
FFF0
ENDCHAR
STARTCHAR FEC5
ENCODING 65221
SWIDTH 565 0
DWIDTH 11 0
BBX 12 11 -1 4
BITMAP
1800
1880
0880
0800
0800
08E0
0BF0
0630
0830
FFF0
FFF0
ENDCHAR
STARTCHAR FEC6
ENCODING 65222
SWIDTH 565 0
DWIDTH 11 0
BBX 12 11 -1 4
BITMAP
1800
1880
0880
0800
0800
08E0
0BF0
0630
0830
FFF0
FFF0
ENDCHAR
STARTCHAR FEC7
ENCODING 65223
SWIDTH 565 0
DWIDTH 11 0
BBX 12 11 -1 4
BITMAP
1800
1880
0880
0800
0800
08E0
0BF0
0630
0830
FFF0
FFF0
ENDCHAR
STARTCHAR FEC8
ENCODING 65224
SWIDTH 565 0
DWIDTH 11 0
BBX 12 11 -1 4
BITMAP
1800
1880
0880
0800
0800
08E0
0BF0
0630
0830
FFF0
FFF0
ENDCHAR
STARTCHAR FEC9
ENCODING 65225
SWIDTH 514 0
DWIDTH 10 0
BBX 9 16 0 -4
BITMAP
3800
7C00
6000
8000
8100
6700
7C00
3000
2000
4000
8000
8000
C000
6000
7F80
1F00
ENDCHAR
STARTCHAR FECA
ENCODING 65226
SWIDTH 462 0
DWIDTH 9 0
BBX 9 13 0 -4
BITMAP
1C00
3C00
1C00
3C00
2780
4380
4000
8000
4000
4000
7000
3F80
1F00
ENDCHAR
STARTCHAR FECB
ENCODING 65227
SWIDTH 514 0
DWIDTH 10 0
BBX 10 6 -1 3
BITMAP
1E00
3F00
2040
3380
FF00
FC00
ENDCHAR
STARTCHAR FECC
ENCODING 65228
SWIDTH 360 0
DWIDTH 7 0
BBX 8 6 -1 3
BITMAP
1E
3E
3E
0C
FF
E3
ENDCHAR
STARTCHAR FECD
ENCODING 65229
SWIDTH 514 0
DWIDTH 10 0
BBX 9 20 0 -4
BITMAP
1000
1000
0000
0000
3800
7C00
6000
8000
8100
6700
7C00
3000
2000
4000
8000
8000
C000
6000
7F80
1F00
ENDCHAR
STARTCHAR FECE
ENCODING 65230
SWIDTH 462 0
DWIDTH 9 0
BBX 9 17 0 -4
BITMAP
0800
0800
0000
0000
1C00
3C00
1C00
3C00
2780
4380
4000
8000
4000
4000
7000
3F80
1F00
ENDCHAR
STARTCHAR FECF
ENCODING 65231
SWIDTH 514 0
DWIDTH 10 0
BBX 10 9 -1 3
BITMAP
0C00
0C00
0000
1E00
3F00
2040
3380
FF00
FC00
ENDCHAR
STARTCHAR FED0
ENCODING 65232
SWIDTH 360 0
DWIDTH 7 0
BBX 8 10 -1 3
BITMAP
08
08
00
00
1E
3E
3E
0C
FF
E3
ENDCHAR
STARTCHAR FED1
ENCODING 65233
SWIDTH 771 0
DWIDTH 15 0
BBX 15 10 0 3
BITMAP
0018
0018
0000
0000
400C
800E
801A
C00E
7FFE
3FFE
ENDCHAR
STARTCHAR FED2
ENCODING 65234
SWIDTH 771 0
DWIDTH 15 0
BBX 15 10 0 3
BITMAP
0018
0018
0000
0000
400C
800E
801A
C00E
7FFE
3FFE
ENDCHAR
STARTCHAR FED3
ENCODING 65235
SWIDTH 257 0
DWIDTH 5 0
BBX 6 11 -1 3
BITMAP
10
10
00
18
38
2C
3C
3C
04
FC
FC
ENDCHAR
STARTCHAR FED4
ENCODING 65236
SWIDTH 257 0
DWIDTH 5 0
BBX 6 12 -1 3
BITMAP
08
08
00
00
18
1C
24
24
1C
0C
FC
FC
ENDCHAR
STARTCHAR FED5
ENCODING 65237
SWIDTH 565 0
DWIDTH 11 0
BBX 10 14 1 -1
BITMAP
0100
0580
0400
0000
0000
0180
03C0
02C0
83C0
83C0
8040
80C0
FF80
7F00
ENDCHAR
STARTCHAR FED6
ENCODING 65238
SWIDTH 565 0
DWIDTH 11 0
BBX 10 14 1 -1
BITMAP
0100
0580
0400
0000
0000
0180
03C0
02C0
83C0
83C0
8040
80C0
FF80
7F00
ENDCHAR
STARTCHAR FED7
ENCODING 65239
SWIDTH 257 0
DWIDTH 5 0
BBX 6 12 -1 3
BITMAP
08
28
20
00
18
38
2C
3C
3C
04
FC
FC
ENDCHAR
STARTCHAR FED8
ENCODING 65240
SWIDTH 257 0
DWIDTH 5 0
BBX 6 13 -1 3
BITMAP
08
28
20
00
00
18
1C
24
24
1C
0C
FC
FC
ENDCHAR
STARTCHAR FED9
ENCODING 65241
SWIDTH 565 0
DWIDTH 11 0
BBX 11 12 0 3
BITMAP
0040
0060
0060
0240
0420
0720
0120
0120
9E20
C020
7FE0
7FE0
ENDCHAR
STARTCHAR FEDA
ENCODING 65242
SWIDTH 565 0
DWIDTH 11 0
BBX 11 12 0 3
BITMAP
0040
0060
0060
0240
0420
0720
0120
0120
9E20
C020
7FE0
7FE0
ENDCHAR
STARTCHAR FEDB
ENCODING 65243
SWIDTH 360 0
DWIDTH 7 0
BBX 8 11 -1 3
BITMAP
03
0F
3C
20
30
38
0C
02
01
FF
FF
ENDCHAR
STARTCHAR FEDC
ENCODING 65244
SWIDTH 360 0
DWIDTH 7 0
BBX 8 11 -1 3
BITMAP
03
0F
3C
20
30
38
0C
02
01
FF
FF
ENDCHAR
STARTCHAR FEDD
ENCODING 65245
SWIDTH 514 0
DWIDTH 10 0
BBX 9 15 1 0
BITMAP
0200
0300
0100
0100
0100
0100
0100
0100
8100
8080
8080
8080
8300
FF00
7E00
ENDCHAR
STARTCHAR FEDE
ENCODING 65246
SWIDTH 514 0
DWIDTH 10 0
BBX 9 15 1 0
BITMAP
0200
0300
0100
0100
0100
0100
0100
0100
8100
8080
8080
8080
8300
FF00
7E00
ENDCHAR
STARTCHAR FEDF
ENCODING 65247
SWIDTH 205 0
DWIDTH 4 0
BBX 5 12 -1 3
BITMAP
20
38
10
10
10
10
10
08
08
08
F8
F8
ENDCHAR
STARTCHAR FEE0
ENCODING 65248
SWIDTH 205 0
DWIDTH 4 0
BBX 5 12 -1 3
BITMAP
20
38
10
10
10
10
10
08
08
08
F8
F8
ENDCHAR
STARTCHAR FEE1
ENCODING 65249
SWIDTH 308 0
DWIDTH 6 0
BBX 6 11 0 -4
BITMAP
38
3C
0C
3C
7C
C0
80
80
40
40
40
ENDCHAR
STARTCHAR FEE2
ENCODING 65250
SWIDTH 308 0
DWIDTH 6 0
BBX 6 11 0 -4
BITMAP
38
3C
0C
3C
7C
C0
80
80
40
40
40
ENDCHAR
STARTCHAR FEE3
ENCODING 65251
SWIDTH 360 0
DWIDTH 7 0
BBX 8 5 -1 3
BITMAP
02
0D
1D
FF
F7
ENDCHAR
STARTCHAR FEE4
ENCODING 65252
SWIDTH 360 0
DWIDTH 7 0
BBX 8 5 -1 3
BITMAP
02
0D
1D
FF
F7
ENDCHAR
STARTCHAR FEE5
ENCODING 65253
SWIDTH 514 0
DWIDTH 10 0
BBX 9 12 1 -1
BITMAP
0800
0800
0000
0000
0080
0080
8080
8080
8080
8180
FF00
7E00
ENDCHAR
STARTCHAR FEE6
ENCODING 65254
SWIDTH 514 0
DWIDTH 10 0
BBX 9 12 1 -1
BITMAP
0800
0800
0000
0000
0080
0080
8080
8080
8080
8180
FF00
7E00
ENDCHAR
STARTCHAR FEE7
ENCODING 65255
SWIDTH 257 0
DWIDTH 5 0
BBX 6 9 -1 3
BITMAP
10
10
00
08
08
0C
04
FC
FC
ENDCHAR
STARTCHAR FEE8
ENCODING 65256
SWIDTH 257 0
DWIDTH 5 0
BBX 6 9 -1 3
BITMAP
10
10
00
08
08
0C
04
FC
FC
ENDCHAR
STARTCHAR FEE9
ENCODING 65257
SWIDTH 257 0
DWIDTH 5 0
BBX 4 7 1 3
BITMAP
40
E0
F0
90
90
F0
E0
ENDCHAR
STARTCHAR FEEA
ENCODING 65258
SWIDTH 360 0
DWIDTH 7 0
BBX 7 9 0 4
BITMAP
10
10
28
48
F8
E8
08
06
06
ENDCHAR
STARTCHAR FEEB
ENCODING 65259
SWIDTH 462 0
DWIDTH 9 0
BBX 8 8 -1 3
BITMAP
08
1C
1C
26
27
19
FF
E7
ENDCHAR
STARTCHAR FEEC
ENCODING 65260
SWIDTH 360 0
DWIDTH 7 0
BBX 8 10 -1 -1
BITMAP
04
0C
14
18
FF
FF
24
34
1E
0C
ENDCHAR
STARTCHAR FEED
ENCODING 65261
SWIDTH 411 0
DWIDTH 8 0
BBX 8 11 0 -2
BITMAP
03
07
05
05
07
03
01
01
02
86
7C
ENDCHAR
STARTCHAR FEEE
ENCODING 65262
SWIDTH 411 0
DWIDTH 8 0
BBX 8 11 0 -2
BITMAP
03
07
05
05
07
03
01
01
02
86
7C
ENDCHAR
STARTCHAR FEEF
ENCODING 65263
SWIDTH 617 0
DWIDTH 12 0
BBX 12 10 0 -1
BITMAP
0060
00F0
0100
0200
43E0
81E0
8020
C1C0
7F80
3E00
ENDCHAR
STARTCHAR FEF0
ENCODING 65264
SWIDTH 565 0
DWIDTH 11 0
BBX 11 7 0 -2
BITMAP
01E0
43E0
8200
83C0
C040
7FC0
3F00
ENDCHAR
STARTCHAR FEF1
ENCODING 65265
SWIDTH 617 0
DWIDTH 12 0
BBX 12 13 0 -4
BITMAP
0060
00F0
0100
0200
43E0
81E0
8020
C1C0
7F80
3E00
0300
0B00
0800
ENDCHAR
STARTCHAR FEF2
ENCODING 65266
SWIDTH 565 0
DWIDTH 11 0
BBX 11 9 0 -4
BITMAP
01E0
43E0
8200
83C0
C040
7FC0
3F00
0A00
0A00
ENDCHAR
STARTCHAR FEF3
ENCODING 65267
SWIDTH 257 0
DWIDTH 5 0
BBX 6 10 -1 -1
BITMAP
08
08
0C
04
FC
FC
00
08
28
20
ENDCHAR
STARTCHAR FEF4
ENCODING 65268
SWIDTH 257 0
DWIDTH 5 0
BBX 6 10 -1 -1
BITMAP
08
08
0C
04
FC
FC
00
08
28
20
ENDCHAR
STARTCHAR FEF5
ENCODING 65269
SWIDTH 514 0
DWIDTH 10 0
BBX 9 15 1 1
BITMAP
E000
0000
8200
C380
E100
6100
1100
0A00
0A00
0600
0400
0600
1A00
1E00
1C00
ENDCHAR
STARTCHAR FEF6
ENCODING 65270
SWIDTH 565 0
DWIDTH 11 0
BBX 10 13 1 3
BITMAP
E000
0000
C000
F100
7900
0500
0280
0080
0180
0280
0680
3CC0
F840
ENDCHAR
STARTCHAR FEF7
ENCODING 65271
SWIDTH 514 0
DWIDTH 10 0
BBX 10 15 0 1
BITMAP
6000
8000
6100
81C0
0080
4080
6080
3080
0900
0500
0300
0200
0500
0F00
0E00
ENDCHAR
STARTCHAR FEF8
ENCODING 65272
SWIDTH 565 0
DWIDTH 11 0
BBX 10 13 1 3
BITMAP
4000
8000
C000
8100
E100
7900
0480
0280
0180
0280
0680
3CC0
F840
ENDCHAR
STARTCHAR FEF9
ENCODING 65273
SWIDTH 514 0
DWIDTH 10 0
BBX 9 18 1 -4
BITMAP
8200
C380
E100
6100
1100
0A00
0A00
0600
0400
0600
1A00
1E00
1C00
0000
1000
2000
1800
2000
ENDCHAR
STARTCHAR FEFA
ENCODING 65274
SWIDTH 565 0
DWIDTH 11 0
BBX 10 16 1 -2
BITMAP
C000
F100
7900
0500
0280
0080
0180
0280
0680
3CC0
F840
0000
2000
4000
6000
4000
ENDCHAR
STARTCHAR FEFB
ENCODING 65275
SWIDTH 514 0
DWIDTH 10 0
BBX 9 13 1 1
BITMAP
8200
C380
E100
6100
1100
0A00
0A00
0600
0400
0600
1A00
1E00
1C00
ENDCHAR
STARTCHAR FEFC
ENCODING 65276
SWIDTH 565 0
DWIDTH 11 0
BBX 10 11 1 3
BITMAP
C000
F100
7900
0500
0280
0080
0180
0280
0680
3CC0
F840
ENDCHAR
STARTCHAR FFFC
ENCODING 65532
SWIDTH 977 0
DWIDTH 19 0
BBX 19 14 0 0
BITMAP
E71CE0
800020
800020
000000
1EF980
B3C9A0
A1F1A0
A1C9A0
B3C920
1EFF00
000000
800020
800020
E71CE0
ENDCHAR
ENDFONT
